SplineFontDB: 3.2
FontName: cyrenia-regular
FullName: Cyrenia Regular
FamilyName: Cyrenia
Weight: Book
Copyright: Rai 2023, a font made for the Mira's Journal game
Version: 1.1
ItalicAngle: -1.5
UnderlinePosition: -146
UnderlineWidth: 75
Ascent: 800
Descent: 224
InvalidEm: 0
sfntRevision: 0x00010000
LayerCount: 2
Layer: 0 1 "Back" 1
Layer: 1 1 "Fore" 0
XUID: [1021 294 1757124127 7690120]
StyleMap: 0x0040
FSType: 0
OS2Version: 1
OS2_WeightWidthSlopeOnly: 0
OS2_UseTypoMetrics: 0
CreationTime: 1695154143
ModificationTime: 1739355789
PfmFamily: 17
TTFWeight: 400
TTFWidth: 5
LineGap: 92
VLineGap: 0
Panose: 2 0 5 3 0 0 0 0 0 0
OS2TypoAscent: 800
OS2TypoAOffset: 0
OS2TypoDescent: -224
OS2TypoDOffset: 0
OS2TypoLinegap: 92
OS2WinAscent: 786
OS2WinAOffset: 0
OS2WinDescent: 222
OS2WinDOffset: 0
HheadAscent: 786
HheadAOffset: 0
HheadDescent: -222
HheadDOffset: 0
OS2SubXSize: 665
OS2SubYSize: 716
OS2SubXOff: 0
OS2SubYOff: 142
OS2SupXSize: 665
OS2SupYSize: 716
OS2SupXOff: 0
OS2SupYOff: 491
OS2StrikeYSize: 51
OS2StrikeYPos: 264
OS2Vendor: 'PfEd'
OS2CodePages: 00000001.00000000
OS2UnicodeRanges: 00000001.00000000.00000000.00000000
Lookup: 258 0 0 "'kern' Horizontal Kerning in Latin lookup 0" { "'kern' Horizontal Kerning in Latin lookup 0 subtable"  } ['kern' ('latn' <'dflt' > ) ]
MarkAttachClasses: 1
DEI: 91125
ShortTable: cvt  2
  34
  665
EndShort
ShortTable: maxp 16
  1
  0
  94
  203
  5
  0
  0
  2
  0
  1
  1
  0
  64
  46
  0
  0
EndShort
LangName: 1033 "" "" "" "FontForge 2.0 : Cyrenia Regular : 20-9-2023" "" "Version 1.0" "" "" "" "" "" "" "" "" "" "" "Cyrenia" "Regular"
GaspTable: 1 65535 2 0
Encoding: UnicodeBmp
UnicodeInterp: none
NameList: AGL For New Fonts
DisplaySize: -48
AntiAlias: 1
FitToEm: 0
WinInfo: 0 24 10
BeginPrivate: 0
EndPrivate
BeginChars: 65538 99

StartChar: .notdef
Encoding: 65536 -1 0
Width: 367
GlyphClass: 1
Flags: W
LayerCount: 2
Fore
SplineSet
33 0 m 1,0,-1
 33 682 l 1,1,2
 33 682 33 682 300 682 c 1,3,-1
 300 0 l 1,4,-1
 33 0 l 1,0,-1
66 33 m 1,5,-1
 268 33 l 1,6,-1
 268 649 l 1,7,-1
 66 649 l 1,8,-1
 66 33 l 1,5,-1
EndSplineSet
Validated: 1
EndChar

StartChar: uni0000
Encoding: 0 0 1
Width: 344
GlyphClass: 1
Flags: W
LayerCount: 2
Fore
SplineSet
203.799914129 23.8760964271 m 0,0,1
 182 0 182 0 157.41346775 0 c 0,2,3
 148 0 148 0 140.21918737 2.86661517932 c 0,4,5
 129 7 129 7 125.619601163 15.2095400329 c 0,6,7
 122 24 122 24 122 38.6082517418 c 0,8,9
 122 77 122 77 152.40927955 98.8153527204 c 0,10,11
 168 110 168 110 187 110 c 0,12,13
 187 110 187 110 187 110 c 0,14,15
 202 106 202 106 212.472386302 94.5755785795 c 0,16,17
 224 82 224 82 224 65 c 0,18,19
 224 65 224 65 224 65 c 0,20,21
 224 46 224 46 203.799914129 23.8760964271 c 0,0,1
148.413812651 222.623525751 m 0,22,23
 143 233 143 233 135.530833786 250.861049643 c 0,24,25
 120 288 120 288 120 305.547386031 c 0,26,27
 120 310 120 310 119.462709977 312.149160091 c 0,28,29
 118 318 118 318 120.468067694 328.4892877 c 0,30,31
 126 352 126 352 146.888951872 372.324385606 c 0,32,33
 163 388 163 388 191.597756895 404.187409563 c 0,34,35
 216 418 216 418 224.893389743 426.893389743 c 0,36,37
 238 440 238 440 247.687445449 477.538851116 c 0,38,39
 254 502 254 502 254 517.882955125 c 0,40,41
 254 534 254 534 246.327208538 561.74009221 c 0,42,43
 241 581 241 581 236.666651537 589.185213764 c 0,44,45
 232 598 232 598 224.758936879 605.542774084 c 0,46,47
 208 623 208 623 178.534976278 630.36625593 c 0,48,49
 160 635 160 635 136 635 c 0,50,51
 136 635 136 635 136 635 c 0,52,53
 110 635 110 635 84.0913909368 617.063270649 c 0,54,55
 71 608 71 608 62.7319359131 594.219893188 c 0,56,57
 59 588 59 588 55.8711412614 583.828188349 c 0,58,59
 47 572 47 572 47 583.978329344 c 0,60,61
 47 588 47 588 46.6112944977 591.109644018 c 0,62,63
 46 596 46 596 46 599.51454811 c 0,64,65
 46 613 46 613 52.2968049056 632.190262569 c 0,66,67
 67 677 67 677 99.3108773169 694.005724904 c 0,68,69
 124 707 124 707 180 707 c 0,70,71
 180 707 180 707 180 707 c 0,72,73
 250 707 250 707 284.178451371 672.821548629 c 0,74,75
 300 657 300 657 311.268256142 630.87813349 c 0,76,77
 322 606 322 606 322.770198506 575.192059765 c 0,78,79
 323 566 323 566 323 530 c 0,80,81
 323 530 323 530 323 523 c 128,-1,82
 323 516 323 516 323 516 c 0,83,84
 323 490 323 490 316.520896276 462.163850666 c 0,85,86
 296 374 296 374 226.885988178 341.989299788 c 0,87,88
 201 330 201 330 179.904233172 202.581568361 c 0,89,90
 176 179 176 179 160.02338326 202.584529474 c 0,91,92
 155 210 155 210 148.413812651 222.623525751 c 0,22,23
EndSplineSet
Validated: 524293
EndChar

StartChar: exclam
Encoding: 33 33 4
Width: 344
GlyphClass: 1
Flags: W
LayerCount: 2
Fore
SplineSet
72 453.306665143 m 0,0,1
 72 472 72 472 66.7042379832 503.774572101 c 0,2,3
 58 556 58 556 58 616.194347406 c 0,4,5
 58 657 58 657 63.0873924431 686.888430603 c 0,6,7
 66 704 66 704 68.2651424482 711.802157322 c 0,8,9
 75 735 75 735 94.1873148666 744.593657433 c 0,10,11
 101 748 101 748 107.712731183 748 c 0,12,13
 118 748 118 748 129.845706003 738.605129722 c 0,14,15
 147 725 147 725 154.467188547 696.854443168 c 0,16,17
 160 676 160 676 160 634 c 0,18,19
 160 634 160 634 160 634 c 0,20,21
 158 577 158 577 155.565825437 510.668743151 c 0,22,23
 154 468 154 468 154 450.213823636 c 0,24,25
 154 436 154 436 155.045809978 431.816760087 c 0,26,27
 156 428 156 428 156 418 c 0,28,29
 156 418 156 418 156 418 c 0,30,31
 156 370 156 370 152.742008466 365.656011288 c 0,32,33
 150 362 150 362 150 335.512925772 c 0,34,35
 150 298 150 298 142.920032777 285.770965707 c 0,36,37
 139 279 139 279 139 268.946196856 c 0,38,39
 139 256 139 256 130.224408599 256 c 0,40,41
 126 256 126 256 122.151659807 259.298577308 c 0,42,43
 119 262 119 262 119.31786159 263.271446359 c 0,44,45
 120 266 120 266 109.418517486 291.49175333 c 0,46,47
 98 319 98 319 96.6421343944 329.183992042 c 0,48,49
 96 334 96 334 93.4364254901 342.117985948 c 0,50,51
 90 353 90 353 86.2286246032 371.228314418 c 0,52,53
 84 382 84 382 81.9405095422 391.26770706 c 0,54,55
 72 436 72 436 72 453.306665143 c 0,0,1
93.4800127836 149.949094396 m 0,56,57
 101 152 101 152 109.498086366 152 c 0,58,59
 142 152 142 152 167.836734055 114.901099818 c 0,60,61
 181 96 181 96 181 84.2410557619 c 0,62,63
 181 81 181 81 179.712264501 76.6216993017 c 0,64,65
 176 64 176 64 168.653136045 54.3572410593 c 0,66,67
 160 43 160 43 147.76458942 37.9019122582 c 0,68,69
 136 33 136 33 126.821772285 35.415323083 c 0,70,71
 117 38 117 38 100.802997409 57.013872607 c 0,72,73
 94 65 94 65 91.7133103979 70.1450516047 c 0,74,75
 90 74 90 74 87.0783188945 83.5618654362 c 0,76,77
 79 110 79 110 79 125.392341145 c 0,78,79
 79 146 79 146 93.4800127836 149.949094396 c 0,56,57
EndSplineSet
Validated: 524293
EndChar

StartChar: quotedbl
Encoding: 34 34 5
Width: 344
GlyphClass: 1
Flags: W
LayerCount: 2
Fore
SplineSet
140.352033209 513.630454083 m 0,0,1
 124 487 124 487 104.566590644 473.192051247 c 0,2,3
 86 460 86 460 78.8214433484 467.178556652 c 0,4,5
 75 471 75 471 75 480.399741143 c 0,6,7
 75 494 75 494 82.8041164107 518.387863784 c 0,8,9
 91 544 91 544 91 558.953175477 c 0,10,11
 91 568 91 568 85.4884779222 573.511522078 c 0,12,13
 81 578 81 578 76.1321221308 586.986851451 c 0,14,15
 68 602 68 602 64.9715117482 616.385319196 c 0,16,17
 64 621 64 621 64.7072300214 627.365070193 c 0,18,19
 66 639 66 639 73.2834287533 647.816782175 c 0,20,21
 85 662 85 662 112.001222227 668.750305557 c 0,22,23
 121 671 121 671 127.912212403 671 c 0,24,25
 148 671 148 671 163.392419822 651.3613954 c 0,26,27
 177 634 177 634 177 612.601651246 c 0,28,29
 177 601 177 601 169.966587925 578.727528429 c 0,30,31
 159 544 159 544 140.352033209 513.630454083 c 0,0,1
208.750449401 656.081138052 m 0,32,33
 226 675 226 675 252.971112926 675 c 128,-1,34
 280 675 280 675 296.452510197 654.0088663 c 0,35,36
 309 638 309 638 309 616.908534635 c 0,37,38
 309 605 309 605 301.589682856 581.533995711 c 0,39,40
 291 548 291 548 273.450669106 519.921070569 c 128,-1,41
 256 492 256 492 236.616678457 477.717552547 c 0,42,43
 218 464 218 464 210.653978121 471.346021879 c 0,44,45
 207 475 207 475 207 483.468901964 c 0,46,47
 207 496 207 496 214.926530146 522.752039243 c 0,48,49
 223 550 223 550 223 563.66816422 c 0,50,51
 223 572 223 572 215.674679089 579.325320911 c 0,52,53
 210 585 210 585 205.952993267 593.993348296 c 0,54,55
 201 605 201 605 199.14607541 616.123547537 c 0,56,57
 195 641 195 641 208.750449401 656.081138052 c 0,32,33
EndSplineSet
Validated: 524321
EndChar

StartChar: numbersign
Encoding: 35 35 6
Width: 344
GlyphClass: 1
Flags: W
LayerCount: 2
Fore
SplineSet
241.928480088 755.035759956 m 128,-1,1
 244 754 244 754 244.474864536 750.201083716 c 0,2,3
 245 746 245 746 245.400088762 744.177373419 c 0,4,5
 254 705 254 705 253.116253916 697.046285244 c 0,6,7
 253 696 253 696 252.331639688 688.648036564 c 0,8,9
 250 663 250 663 250.590352581 660.048237096 c 0,10,11
 251 658 251 658 252 638 c 2,12,-1
 252 599 l 2,13,14
 252 598 252 598 249 544 c 1,15,16
 262 543 262 543 317.634254432 540.24127664 c 0,17,18
 383 537 383 537 398.429656762 537 c 0,19,20
 407 537 407 537 418 536 c 1,21,22
 424 581 424 581 428.110657589 600.731156426 c 0,23,24
 434 629 434 629 450.550355623 670.966973187 c 0,25,26
 462 700 462 700 467.310879358 704.647019438 c 0,27,28
 470 707 470 707 473.416123536 715.54030884 c 0,29,30
 476 722 476 722 478.058174412 724.572718015 c 128,-1,31
 480 727 480 727 481.54133078 725.972446147 c 128,-1,32
 483 725 483 725 483.534616276 720.188453513 c 0,33,34
 484 716 484 716 485.737488546 708.057195217 c 0,35,36
 491 684 491 684 491 665 c 0,37,38
 491 665 491 665 490.455533422 651.932802123 c 0,39,40
 490 641 490 641 490 634.149664803 c 0,41,42
 490 624 490 624 490.788106253 612.966512453 c 0,43,44
 492 596 492 596 492 581.555735216 c 0,45,46
 492 563 492 563 490 532 c 1,47,48
 606 521 606 521 625.111070716 491.464708893 c 0,49,50
 628 487 628 487 628.244895918 483.326561231 c 0,51,52
 629 472 629 472 612.36404178 462.327931267 c 0,53,54
 586 447 586 447 537.634190953 446.232288745 c 0,55,56
 523 446 523 446 505.414641268 447.065779317 c 0,57,58
 490 448 490 448 482 448 c 1,59,60
 478 422 478 422 475.939945903 393.67425616 c 0,61,62
 474 367 474 367 466 278 c 1,63,64
 494 275 494 275 504.682385941 275 c 0,65,66
 521 275 521 275 537.48986544 271.640953336 c 0,67,68
 575 264 575 264 591.225629237 242.836135778 c 0,69,70
 598 234 598 234 597.134958343 226.214625086 c 0,71,72
 596 216 596 216 579.970851119 207.094917289 c 0,73,74
 560 196 560 196 528 196 c 0,75,76
 528 196 528 196 524.5 196 c 128,-1,77
 521 196 521 196 508.155942476 196.366973072 c 0,78,79
 486 197 486 197 460 199 c 1,80,81
 459 166 459 166 448.983051301 82.3290167457 c 0,82,83
 442 24 442 24 437.72399622 13.3099905491 c 0,84,85
 434 4 434 4 422.661431718 1.01616624148 c 0,86,87
 415 -1 415 -1 403.825208332 0.241643518692 c 0,88,89
 397 1 397 1 391.811875724 2.29703106905 c 0,90,91
 373 7 373 7 367.453589169 23.0845914088 c 0,92,93
 363 36 363 36 363 73 c 0,94,95
 363 73 363 73 363 73 c 0,96,97
 363 110 363 110 372 200 c 1,98,99
 336 200 336 200 336 200 c 128,-1,100
 336 200 336 200 321 200 c 128,-1,101
 306 200 306 200 306 200 c 0,102,103
 214 200 214 200 213.369707016 85.9169699599 c 0,104,105
 213 19 213 19 172.639260666 7.99252563627 c 0,106,107
 169 7 169 7 163.095892234 7.3690067354 c 0,108,109
 153 8 153 8 149.854937731 8 c 0,110,111
 143 8 143 8 136.872709044 17.3521809324 c 0,112,113
 124 37 124 37 124 145 c 0,114,115
 124 145 124 145 124 175.5 c 128,-1,116
 124 206 124 206 65.2690143915 206 c 0,117,118
 44 206 44 206 31.8369335441 209.909557075 c 0,119,120
 16 215 16 215 11.1392194759 230.27673879 c 0,121,122
 9 237 9 237 9 245.134575006 c 0,123,124
 9 253 9 253 10.6743126869 260.534407091 c 0,125,126
 15 280 15 280 30.2696613382 286.8450206 c 0,127,128
 44 293 44 293 80.1500322299 294.902633275 c 0,129,130
 101 296 101 296 140 296 c 0,131,132
 140 296 140 296 140 296 c 0,133,134
 152 397 152 397 158.572823914 432.055060872 c 0,135,136
 161 445 161 445 162 455 c 1,137,138
 144 455 144 455 131.013515982 455.393529819 c 0,139,140
 111 456 111 456 88.5795993461 456 c 0,141,142
 31 456 31 456 27.2496957698 458.50020282 c 0,143,144
 25 460 25 460 18.5304461639 471.03629772 c 0,145,146
 8 489 8 489 8.47107452681 498.892565063 c 0,147,148
 9 510 9 510 25.7081855609 523.211123467 c 0,149,150
 52 544 52 544 106.880772753 545.66305372 c 0,151,152
 118 546 118 546 134.160193238 546 c 0,153,154
 162 546 162 546 176 545 c 1,155,156
 177 556 177 556 178.247949579 567.231546212 c 0,157,158
 183 610 183 610 188.521314298 633.08913252 c 128,-1,159
 194 656 194 656 208.535097859 693.375965922 c 0,160,161
 222 728 222 728 228.15641147 733.472365751 c 0,162,163
 231 736 231 736 234.941283459 745.853208648 c 0,164,165
 237 751 237 751 238.171593215 752.952655358 c 0,166,0
 240 756 240 756 241.928480088 755.035759956 c 128,-1,1
251 456 m 1,167,168
 249 456 249 456 249 430.225396744 c 0,169,170
 249 412 249 412 247.947913264 388.503396239 c 0,171,172
 246 345 246 345 241 295 c 1,173,174
 290 285 290 285 370 285 c 2,175,176
 370 285 370 285 383 285 c 1,177,178
 390 358 390 358 396.947833032 403.16091471 c 0,179,180
 400 423 400 423 405 451 c 1,181,182
 302 456 302 456 251 456 c 1,167,168
EndSplineSet
Validated: 524325
EndChar

StartChar: dollar
Encoding: 36 36 7
Width: 574
GlyphClass: 1
Flags: W
LayerCount: 2
Fore
SplineSet
57.3935121178 125.112364454 m 0,0,1
 53 138 53 138 53 147.222496072 c 0,2,3
 53 158 53 158 59.8986254382 160.299541813 c 0,4,5
 62 161 62 161 64.9153599858 160.77574154 c 0,6,7
 75 160 75 160 91.5609192782 144.858588089 c 0,8,9
 110 128 110 128 134.117098575 112.472552972 c 0,10,11
 183 81 183 81 225 75 c 1,12,13
 224 119 224 119 224 228 c 0,14,15
 224 228 224 228 224 259.5 c 128,-1,16
 224 291 224 291 224 314 c 1,17,18
 220 316 220 316 220 316 c 0,19,20
 192 330 192 330 175.100111359 336.145414051 c 0,21,22
 148 346 148 346 120.256382355 365.816869747 c 0,23,24
 92 386 92 386 79.8031099876 406.734713021 c 0,25,26
 72 420 72 420 66.7539092763 435.738272171 c 0,27,28
 61 453 61 453 61.4560985328 468.963448648 c 0,29,30
 62 488 62 488 71.7560389122 520.269974863 c 0,31,32
 88 574 88 574 113.656518824 601.887520461 c 0,33,34
 134 624 134 624 172.618683212 644.102876192 c 0,35,36
 207 662 207 662 236 668 c 1,37,38
 237 708 237 708 239 744 c 1,39,40
 246 772 246 772 265.11972473 761.571059238 c 0,41,42
 279 754 279 754 287.452534914 731.459906895 c 0,43,44
 294 714 294 714 296.581428557 686.464762063 c 0,45,46
 297 682 297 682 298 671 c 1,47,48
 311 669 311 669 337.318149029 662.291452208 c 0,49,50
 362 656 362 656 377.26777532 653.195714737 c 0,51,52
 411 647 411 647 442.380404595 632.107604599 c 0,53,54
 470 619 470 619 475.403121104 606.167587378 c 0,55,56
 478 600 478 600 475.956306859 596.593844764 c 0,57,58
 472 590 472 590 447.783980767 586.27445858 c 0,59,60
 433 584 433 584 418.034004176 584 c 0,61,62
 404 584 404 584 380.786351238 586.901706095 c 0,63,64
 356 590 356 590 335.593374892 590 c 0,65,66
 324 590 324 590 307 591 c 1,67,68
 310 538 310 538 311.644299752 466.198910814 c 0,69,70
 313 407 313 407 314 385 c 1,71,72
 344 377 344 377 368.399388275 373.67281069 c 0,73,74
 410 368 410 368 443.620516819 352.262736808 c 0,75,76
 504 324 504 324 513.493134094 278.116518547 c 0,77,78
 516 266 516 266 516 238 c 0,79,80
 516 238 516 238 515.725709096 231.417018296 c 0,81,82
 514 190 514 190 487.161764798 137.601540797 c 0,83,84
 472 108 472 108 455.102581963 85.9598895174 c 0,85,86
 403 18 403 18 323 3 c 1,87,88
 323 -9 323 -9 323 -9 c 0,89,90
 323 -52 323 -52 321.724262619 -57.9534411105 c 0,91,92
 320 -66 320 -66 303.308748161 -71.961161371 c 0,93,94
 292 -76 292 -76 282.390649529 -77.0115105759 c 0,95,96
 273 -78 273 -78 264.497067338 -75.959296161 c 0,97,98
 248 -72 248 -72 241.238296933 -59.4425514467 c 0,99,100
 234 -46 234 -46 230.351255341 -14.6207959305 c 0,101,102
 229 -3 229 -3 228 3 c 1,103,104
 193 8 193 8 179.032055072 14.5731505546 c 0,105,106
 176 16 176 16 172.648165176 17.4365006387 c 0,107,108
 162 22 162 22 155.498700549 24.3785241893 c 0,109,110
 121 37 121 37 93.0637758487 67.0446184269 c 0,111,112
 68 94 68 94 57.3935121178 125.112364454 c 0,0,1
233 579 m 1,113,114
 231 578 231 578 228.852962192 577.24222195 c 0,115,116
 214 572 214 572 194.3090712 549.946159744 c 0,117,118
 164 516 164 516 162.208351879 483.750333823 c 0,119,120
 162 480 162 480 161.726539552 472.890028354 c 0,121,122
 161 454 161 454 164.361118565 447.949986583 c 0,123,124
 171 436 171 436 227 414 c 1,125,126
 228 439 228 439 228.796223388 459.701808078 c 0,127,128
 230 491 230 491 233 579 c 1,113,114
322 79 m 1,129,130
 338 84 338 84 353.78302833 91.8915141649 c 0,131,132
 386 108 386 108 405.282272848 139.552810115 c 0,133,134
 408 144 408 144 410.337414125 148.67482825 c 0,135,136
 412 152 412 152 412.818828983 154.456486948 c 0,137,138
 414 158 414 158 414 162 c 2,139,-1
 415 166 l 1,140,-1
 415 185 l 2,141,142
 415 204 415 204 412.717142268 216.555717525 c 0,143,144
 411 226 411 226 407.98490196 229.618117649 c 0,145,146
 406 232 406 232 402.996489913 235.003510087 c 0,147,148
 374 264 374 264 322.655141412 278.262460719 c 0,149,150
 320 279 320 279 316 280 c 1,151,152
 318 251 318 251 318 248.928932188 c 0,153,154
 318 246 318 246 319.530786217 185.916640983 c 0,155,156
 322 89 322 89 322 79 c 1,129,130
EndSplineSet
Validated: 524321
EndChar

StartChar: percent
Encoding: 37 37 8
Width: 572
GlyphClass: 1
Flags: W
LayerCount: 2
Fore
SplineSet
403.539722519 80 m 0,0,1
 392 80 392 80 381.684317314 81.2894603358 c 0,2,3
 344 86 344 86 328.374758685 109.437861973 c 0,4,5
 316 128 316 128 316 157.925276236 c 0,6,7
 316 193 316 193 336.90442514 220.667621509 c 0,8,9
 350 238 350 238 369.909502591 253.026039691 c 0,10,11
 403 278 403 278 432 278 c 0,12,13
 432 278 432 278 432 278 c 0,14,15
 455 278 455 278 470.289800434 248.694549169 c 0,16,17
 479 232 479 232 483.882003993 206.892550893 c 0,18,19
 486 196 486 196 486 181 c 0,20,21
 486 181 486 181 486 181 c 0,22,23
 486 165 486 165 478.537393459 143.855948133 c 0,24,25
 456 80 456 80 403.539722519 80 c 0,0,1
422 184.638367177 m 0,26,27
 422 196 422 196 419.208021685 201.583956629 c 0,28,29
 416 208 416 208 408.033047792 208 c 0,30,31
 401 208 401 208 393.401945367 203.251215855 c 0,32,33
 385 198 385 198 378.427178419 189.966551401 c 0,34,35
 367 176 367 176 370.419118279 162.893379931 c 0,36,37
 373 153 373 153 383.256061203 149.221451136 c 0,38,39
 392 146 392 146 400.690044823 148.744224681 c 0,40,41
 411 152 411 152 418.063862991 166.127725981 c 0,42,43
 421 172 421 172 421.660886201 177.287089606 c 0,44,45
 422 180 422 180 422 184.638367177 c 0,26,27
123.539722519 406 m 0,46,47
 112 406 112 406 101.958302208 407.229595648 c 0,48,49
 63 412 63 412 46.5526064007 439.60812497 c 0,50,51
 35 459 35 459 35 483.535154327 c 0,52,53
 35 515 35 515 56.36637227 545.605884603 c 0,54,55
 72 568 72 568 96.1440624477 584.399740531 c 0,56,57
 125 604 125 604 152 604 c 0,58,59
 152 604 152 604 154.193714406 604.219371441 c 0,60,61
 182 607 182 607 196.707082637 557.159331065 c 0,62,63
 200 546 200 546 201.926283045 538.294867821 c 0,64,65
 206 522 206 522 206 510 c 0,66,67
 206 510 206 510 206 510 c 0,68,69
 206 491 206 491 198.054785146 468.488557914 c 0,70,71
 176 406 176 406 123.539722519 406 c 0,46,47
88.1934617497 489.355127501 m 0,72,73
 85 500 85 500 90.1942837028 506.925711604 c 0,74,75
 94 512 94 512 102.424883272 519.488785131 c 0,76,77
 121 536 121 536 129.101734322 533.299421893 c 0,78,79
 133 532 133 532 141.999999879 519.000000174 c 0,80,81
 142 519 142 519 142 519 c 1,82,83
 146 494 146 494 127.171419261 480.466957594 c 0,84,85
 114 471 114 471 100.821775752 476.156696445 c 0,86,87
 91 480 91 480 88.1934617497 489.355127501 c 0,72,73
335.336055028 563.709638701 m 0,88,89
 370 610 370 610 403.061645485 643.69744636 c 0,90,91
 422 663 422 663 428.158462997 664.847538899 c 0,92,93
 432 666 432 666 438.847829766 672.086959792 c 0,94,95
 450 682 450 682 450 674.812582449 c 4,96,97
 450 670 450 670 447.061796404 657.659544897 c 0,98,99
 440 628 440 628 422.468555005 589.180371796 c 0,100,101
 412 566 412 566 406.123911461 550.890058043 c 0,102,103
 384 494 384 494 292.433767618 324.571325116 c 0,104,105
 237 222 237 222 227.289991107 197.724977767 c 0,106,107
 219 177 219 177 183.787390244 112.369260575 c 0,108,109
 140 32 140 32 129.05515883 22.2712522931 c 0,110,111
 122 16 122 16 109.035787079 18.5092025009 c 0,112,113
 91 22 91 22 79.4367156688 39.9230907134 c 0,114,115
 71 53 71 53 71 64.9022717396 c 0,116,117
 71 69 71 69 71.2173320368 70.4488802451 c 0,118,119
 74 89 74 89 107.346058221 164.584398634 c 0,120,121
 209 395 209 395 335.336055028 563.709638701 c 0,88,89
EndSplineSet
Validated: 524325
EndChar

StartChar: ampersand
Encoding: 38 38 9
Width: 606
GlyphClass: 1
Flags: W
LayerCount: 2
Fore
SplineSet
319 348 m 2,0,1
 345 320 345 320 362.046808302 304.84728151 c 0,2,3
 372 296 372 296 390.751365969 280.820322787 c 0,4,5
 414 262 414 262 415.229748333 262 c 0,6,7
 417 262 417 262 424.026241936 290.844572157 c 0,8,9
 436 340 436 340 446.507378317 362.015459331 c 128,-1,10
 457 384 457 384 480.846535238 406.182823477 c 0,11,12
 500 424 500 424 504.334267367 420.207516054 c 0,13,14
 508 417 508 417 507.253088768 395.339574279 c 0,15,16
 507 388 507 388 506.824605076 380.633413208 c 0,17,18
 506 346 506 346 502.329988492 329.484948214 c 0,19,20
 502 328 502 328 501.538810256 325.847781193 c 0,21,22
 499 314 499 314 497.446765135 305.45720824 c 0,23,24
 495 292 495 292 489.156135641 265.436980186 c 0,25,26
 484 242 484 242 480 222 c 1,27,-1
 476 207 l 1,28,29
 504 167 504 167 526.415274507 118.166723395 c 0,30,31
 532 106 532 106 538.36326414 93.9805010688 c 0,32,33
 541 89 541 89 542.532456967 85.9350860652 c 0,34,35
 546 79 546 79 549.063895812 74.0211693061 c 0,36,37
 554 66 554 66 555.292120883 59.5393955831 c 0,38,39
 556 56 556 56 557.59781393 52.0054651754 c 0,40,41
 560 46 560 46 560 41.1373795002 c 0,42,43
 560 38 560 38 559.115988126 34.4639525022 c 0,44,45
 558 30 558 30 556.416694178 27.6250412672 c 0,46,47
 554 24 554 24 550.550944412 22.0291110928 c 0,48,49
 540 16 540 16 519.919271425 24.606026532 c 0,50,51
 498 34 498 34 471.561380695 67.4889177862 c 0,52,53
 468 72 468 72 464.473427243 76.2318873086 c 0,54,55
 458 84 458 84 448.968635681 93.7260846513 c 0,56,57
 445 98 445 98 443 100 c 2,58,59
 444 100 444 100 430 115 c 1,60,61
 430 114 430 114 420 104 c 2,62,63
 404 86 404 86 374.04918046 66.531967299 c 128,-1,64
 344 47 344 47 323.366006434 41.1801556608 c 0,65,66
 305 36 305 36 269 36 c 0,67,68
 269 36 269 36 263.979616244 36.1115640835 c 0,69,70
 224 37 224 37 197.872898615 44.7096364743 c 0,71,72
 163 55 163 55 131.113472101 80.9343760242 c 0,73,74
 88 116 88 116 65.242673711 162.681694952 c 0,75,76
 49 196 49 196 49 225.163925572 c 0,77,78
 49 255 49 255 67.3145033302 292.750302783 c 0,79,80
 98 356 98 356 155 388 c 1,81,82
 154 388 154 388 174 400 c 1,83,-1
 171 405 l 1,84,85
 152 440 152 440 143.072742625 485.231437368 c 0,86,87
 137 516 137 516 137.52775614 542.915563159 c 0,88,89
 138 567 138 567 143.847869343 592.665648783 c 0,90,91
 156 646 156 646 192.115147168 677.600753772 c 0,92,93
 212 695 212 695 236.355512986 701.958717996 c 0,94,95
 254 707 254 707 271.740278649 706.260821723 c 0,96,97
 278 706 278 706 281.976594918 706 c 0,98,99
 304 706 304 706 329.741132576 697.089607954 c 0,100,101
 408 670 408 670 408 597.577659542 c 0,102,103
 408 586 408 586 405.755034743 571.12710517 c 0,104,105
 392 480 392 480 316 402 c 1,106,-1
 291 378 l 1,107,-1
 319 348 l 2,0,1
190 314 m 2,108,109
 148 292 148 292 129.356251357 256.710047211 c 0,110,111
 120 239 120 239 120 227.404244816 c 0,112,113
 120 208 120 208 143.288153508 181.384967419 c 0,114,115
 176 144 176 144 225.06297628 130.489905082 c 0,116,117
 245 125 245 125 264.046084898 124.485240949 c 0,118,119
 282 124 282 124 303.613454596 130.87700828 c 0,120,121
 326 138 326 138 351.938346144 154.286868509 c 0,122,123
 369 165 369 165 369 167.352777616 c 0,124,125
 369 171 369 171 334.796170787 199.781270923 c 0,126,127
 287 240 287 240 254.899799817 276.506110012 c 0,128,129
 236 298 236 298 218 323 c 1,130,-1
 215 328 l 1,131,-1
 190 314 l 2,108,109
283.342713832 622.501691249 m 0,132,133
 237 623 237 623 224.574348819 594.878789433 c 0,134,135
 218 580 218 580 218 548.484330697 c 0,136,137
 218 521 218 521 225.397982667 499.545850266 c 0,138,139
 228 492 228 492 232.867190708 480.643221682 c 0,140,141
 240 464 240 464 244.848429235 455.7576703 c 0,142,143
 250 447 250 447 252.139826909 447 c 0,144,145
 256 447 256 447 273.767561682 465.754648442 c 0,146,147
 310 504 310 504 328.083785756 539.037334903 c 0,148,149
 342 566 342 566 342 585.121745252 c 0,150,151
 342 594 342 594 339.44224805 599.968087883 c 0,152,153
 330 622 330 622 283.342713832 622.501691249 c 0,132,133
EndSplineSet
Validated: 524321
EndChar

StartChar: quotesingle
Encoding: 39 39 10
Width: 237
GlyphClass: 1
Flags: W
LayerCount: 2
Fore
SplineSet
82.9741092608 540.111971487 m 0,0,1
 90 564 90 564 90 577.108887569 c 0,2,3
 90 587 90 587 83.2840540358 594.275608128 c 0,4,5
 78 600 78 600 73.2485940524 610.453093085 c 0,6,7
 68 622 68 622 65.6996574866 631.201370054 c 0,8,9
 60 654 60 654 71.7627021519 668.319811315 c 0,10,11
 83 682 83 682 108.409804533 688.726124729 c 0,12,13
 117 691 117 691 123.939738536 691 c 0,14,15
 144 691 144 691 159.807971045 673.710031669 c 0,16,17
 176 656 176 656 176 632.620317044 c 0,18,19
 176 621 176 621 170.741987499 602.421689164 c 0,20,21
 161 568 161 568 139.873825775 535.4981935 c 0,22,23
 122 508 122 508 104.202517807 494.15751385 c 0,24,25
 86 480 86 480 78.798085557 487.201914443 c 0,26,27
 75 491 75 491 75 499.983376774 c 0,28,29
 75 513 75 513 82.9741092608 540.111971487 c 0,0,1
EndSplineSet
Validated: 524321
EndChar

StartChar: parenleft
Encoding: 40 40 11
Width: 296
GlyphClass: 1
Flags: W
LayerCount: 2
Fore
SplineSet
208.63041514 -17.79124445 m 0,0,1
 136 21 136 21 91.1780116461 167.690143704 c 0,2,3
 59 273 59 273 59 375.2956845 c 0,4,5
 59 469 59 469 86.8874836689 560.154610798 c 0,6,7
 126 688 126 688 196.014938618 735.481395155 c 0,8,9
 213 747 213 747 222.269428245 747 c 0,10,11
 227 747 227 747 230.375793617 744.468154787 c 0,12,13
 235 741 235 741 235 734.722972169 c 0,14,15
 235 727 235 727 224.997035041 707.520541923 c 0,16,17
 216 690 216 690 214.764561541 684.440526935 c 0,18,19
 212 672 212 672 99.6086707852 314.611744511 c 0,20,21
 73 230 73 230 72.4631993739 230 c 128,-1,22
 72 230 72 230 91.1877780187 293.29474827 c 0,23,24
 149 484 149 484 153.652412729 484 c 0,25,26
 155 484 155 484 151.839042893 467.333135256 c 0,27,28
 144 426 144 426 144 381.336378653 c 0,29,30
 144 283 144 283 182.388783277 169.753089334 c 0,31,32
 204 106 204 106 230.514175898 56.1533493111 c 0,33,34
 254 12 254 12 254 -7.11243289248 c 0,35,36
 254 -15 254 -15 249.297209051 -20.1730700439 c 0,37,38
 244 -26 244 -26 234.854687362 -26 c 0,39,40
 224 -26 224 -26 208.63041514 -17.79124445 c 0,0,1
EndSplineSet
Validated: 524325
EndChar

StartChar: parenright
Encoding: 41 41 12
Width: 293
GlyphClass: 1
Flags: W
LayerCount: 2
Fore
SplineSet
87.2149233765 -25.8738477421 m 0,0,1
 72 -34 72 -34 61.1085908125 -34 c 0,2,3
 51 -34 51 -34 45.9650919209 -27.8462234589 c 0,4,5
 42 -23 42 -23 42 -14.8215320759 c 0,6,7
 42 4 42 4 65.9470209742 48.0625185925 c 0,8,9
 92 96 92 96 110.691332426 152.766268849 c 0,10,11
 146 260 146 260 146 372.905254157 c 0,12,13
 146 444 146 444 132.092311616 514.233826342 c 0,14,15
 126 545 126 545 114.80061092 582.797938145 c 0,16,17
 110 599 110 599 108.163077069 607.817230071 c 0,18,19
 105 623 105 623 94.7538015623 645.931967932 c 0,20,21
 84 670 84 670 82.1097586194 679.451206903 c 0,22,23
 80 690 80 690 71.2602577355 707.019498094 c 0,24,25
 61 727 61 727 61 735.618658652 c 0,26,27
 61 741 61 741 64.718483292 744.187271393 c 0,28,29
 68 747 68 747 73.0376606094 747 c 0,30,31
 83 747 83 747 100.104802166 735.596798556 c 0,32,33
 170 689 170 689 208.689697724 557.689510756 c 0,34,35
 236 465 236 465 236 369.920128725 c 0,36,37
 236 267 236 267 204.496619724 161.712386972 c 0,38,39
 160 13 160 13 87.2149233765 -25.8738477421 c 0,0,1
EndSplineSet
Validated: 524289
EndChar

StartChar: asterisk
Encoding: 42 42 13
Width: 317
GlyphClass: 1
Flags: W
LayerCount: 2
Fore
SplineSet
145.514718626 492.727922061 m 0,0,1
 142 498 142 498 141.267769691 498.732230309 c 0,2,3
 138 502 138 502 135.356080624 528.43919376 c 0,4,5
 134 542 134 542 133 543 c 1,6,7
 129 540 129 540 126.615831877 538.569499126 c 0,8,9
 114 531 114 531 103.359539334 531.591136704 c 0,10,11
 96 532 96 532 91.0302474699 535.313168353 c 0,12,13
 84 540 84 540 84 549.329739457 c 0,14,15
 84 561 84 561 95 580 c 1,16,17
 88 580 88 580 81.6589180798 580.226467211 c 0,18,19
 60 581 60 581 47.0098999994 586.629043334 c 0,20,21
 30 594 30 594 39.9752242749 603.068385704 c 0,22,23
 52 614 52 614 105 629 c 1,24,25
 84 653 84 653 84 667.581415713 c 0,26,27
 84 676 84 676 90.2810462208 680.486461586 c 0,28,29
 98 686 98 686 112.929631274 684.009382497 c 128,-1,30
 128 682 128 682 138 674 c 1,31,32
 139 684 139 684 139.213118179 687.907166622 c 0,33,34
 142 739 142 739 157 739 c 0,35,36
 157 739 157 739 157.581503755 738.947136022 c 0,37,38
 168 738 168 738 177.764390955 709.404283632 c 0,39,40
 182 697 182 697 184 685 c 1,41,42
 188 688 188 688 192.494748004 690.921586203 c 0,43,44
 208 701 208 701 216.301795421 701 c 0,45,46
 220 701 220 701 223.221403261 699.159198137 c 0,47,48
 234 693 234 693 223.039187972 664.815054785 c 0,49,50
 220 657 220 657 216 648 c 1,51,52
 221 648 221 648 226.987541509 648.332641195 c 0,53,54
 257 650 257 650 269.827205724 635.147446004 c 0,55,56
 276 628 276 628 276 618.936118742 c 128,-1,57
 276 610 276 610 269.737370428 603.737370428 c 0,58,59
 264 598 264 598 250.738552991 595.053011776 c 0,60,61
 246 594 246 594 244.03322079 593.64240378 c 0,62,63
 224 590 224 590 212 587 c 1,64,65
 212 586 212 586 218 578 c 2,66,67
 226 566 226 566 230 561 c 128,-1,68
 234 556 234 556 237.123475476 550.533917917 c 0,69,70
 242 542 242 542 241.393414031 537.147312245 c 0,71,72
 241 534 241 534 237.920397433 530.535447112 c 0,73,74
 233 525 233 525 225.865465897 525 c 0,75,76
 213 525 213 525 193.964205442 541.440004391 c 0,77,78
 191 544 191 544 190 545 c 1,79,80
 190 541 190 541 189.459216022 535.682290884 c 0,81,82
 184 482 184 482 164.736527865 477.986776638 c 0,83,84
 160 477 160 477 155.441617487 479.848989071 c 0,85,86
 152 482 152 482 149.144060947 486.997893343 c 0,87,88
 148 489 148 489 145.514718626 492.727922061 c 0,0,1
EndSplineSet
Validated: 524321
EndChar

StartChar: plus
Encoding: 43 43 14
Width: 386
GlyphClass: 1
Flags: W
LayerCount: 2
Fore
SplineSet
241.457126303 364.691309385 m 0,0,1
 244 383 244 383 235.229268147 421.670954078 c 0,2,3
 222 480 222 480 197.604164659 481.524739709 c 0,4,5
 190 482 190 482 181.155692575 470.628747597 c 0,6,7
 176 464 176 464 172.461607112 452.20535704 c 0,8,9
 170 444 170 444 169.701705825 415.662053376 c 0,10,11
 169 349 169 349 145.601768749 344.125368489 c 0,12,13
 145 344 145 344 133.274633506 341.505241171 c 0,14,15
 51 324 51 324 29.0462227921 311.539748071 c 0,16,17
 14 303 14 303 31.3029167533 293.771777732 c 0,18,19
 44 287 44 287 99.4168948294 286.542009134 c 0,20,21
 165 286 165 286 165.673578974 265.119051798 c 0,22,23
 166 255 166 255 170.786531723 227.956095764 c 0,24,25
 186 142 186 142 202.632292373 142 c 0,26,27
 207 142 207 142 211.823829519 145.919361484 c 0,28,29
 239 168 239 168 241.421147423 207.77599337 c 0,30,31
 246 283 246 283 339 293 c 1,32,33
 364 316 364 316 348 334 c 1,34,35
 327 362 327 362 276.593224804 353.407936046 c 0,36,37
 239 347 239 347 241.457126303 364.691309385 c 0,0,1
EndSplineSet
Validated: 524329
EndChar

StartChar: comma
Encoding: 44 44 15
Width: 238
GlyphClass: 1
Flags: W
LayerCount: 2
Fore
SplineSet
83 -22 m 128,-1,1
 91 5 91 5 91 18.0242861606 c 0,2,3
 91 26 91 26 84.2932555978 33.9261524753 c 0,4,5
 80 39 80 39 76.362504274 45.3656175206 c 0,6,7
 68 60 68 60 65.0116368071 74.9418159643 c 0,8,9
 64 80 64 80 64 84.0173795162 c 0,10,11
 64 96 64 96 71.7755141341 105.719392668 c 0,12,13
 84 121 84 121 111.208986701 127.802246675 c 0,14,15
 120 130 120 130 126.85232095 130 c 0,16,17
 147 130 147 130 162.251909875 112.206105146 c 0,18,19
 177 95 177 95 177 72.6431892173 c 0,20,21
 177 61 177 61 171.715387965 41.9753966729 c 0,22,23
 162 7 162 7 141.536860779 -25.3102198228 c 0,24,25
 124 -53 124 -53 106.521764308 -66.5941833161 c 0,26,27
 88 -81 88 -81 79.4830729028 -73.7933693793 c 0,28,29
 75 -70 75 -70 75 -61.0096895579 c 0,30,0
 75 -49 75 -49 83 -22 c 128,-1,1
EndSplineSet
Validated: 524289
EndChar

StartChar: hyphen
Encoding: 45 45 16
Width: 400
GlyphClass: 1
Flags: W
LayerCount: 2
Fore
SplineSet
284.519014877 286.592709383 m 4,0,1
 248 278 248 278 205.498901348 278 c 4,2,3
 191 278 191 278 178 278 c 0,4,5
 139 278 139 278 93.8873093262 288.773179862 c 4,6,7
 72 294 72 294 67.5439181764 298.456081824 c 4,8,9
 66 300 66 300 66 300.887303377 c 4,10,11
 66 304 66 304 86.6499214327 315.411798687 c 4,12,13
 104 325 104 325 112.159684895 327.399907322 c 4,14,15
 121 330 121 330 134.946192699 336.113399539 c 4,16,17
 194 362 194 362 259.343675453 365.484996024 c 4,18,19
 269 366 269 366 279.196526565 366 c 0,20,21
 314 366 314 366 323.665341219 356.334658781 c 4,22,23
 328 352 328 352 333.241907508 339.419421981 c 4,24,25
 338 328 338 328 338 324.032497285 c 4,26,27
 338 318 338 318 330.933030968 310.290579238 c 4,28,29
 316 294 316 294 284.519014877 286.592709383 c 4,0,1
EndSplineSet
Validated: 524289
EndChar

StartChar: period
Encoding: 46 46 17
Width: 240
GlyphClass: 1
Flags: W
LayerCount: 2
Fore
SplineSet
66 53.340284708 m 0,0,1
 66 95 66 95 96.0380660505 115.896045948 c 0,2,3
 112 127 112 127 128.92181863 127 c 0,4,5
 134 127 134 127 140.192144492 125.451963877 c 0,6,7
 158 121 158 121 168.095142346 107.87631495 c 0,8,9
 178 95 178 95 178 79.3543186163 c 0,10,11
 178 55 178 55 153.191631201 29.1130064702 c 0,12,13
 132 7 132 7 107.539099368 4.96159161403 c 0,14,15
 96 4 96 4 87.1864925896 7.20491178561 c 0,16,17
 74 12 74 12 69.192702513 27.0228046468 c 0,18,19
 66 37 66 37 66 53.340284708 c 0,0,1
EndSplineSet
Validated: 524289
EndChar

StartChar: slash
Encoding: 47 47 18
Width: 369
GlyphClass: 1
Flags: W
LayerCount: 2
Fore
SplineSet
301.645189959 696.317992828 m 0,0,1
 304 698 304 698 308.8455966 703.451296174 c 0,2,3
 320 716 320 716 321.185364101 711.258543595 c 0,4,5
 322 708 322 708 321.500041174 696.500947012 c 0,6,7
 320 662 320 662 302.421218713 589.173620381 c 0,8,9
 299 575 299 575 297.839121951 569.99929456 c 0,10,11
 286 519 286 519 221.932810876 324.709285156 c 0,12,13
 194 240 194 240 188.496832203 219.36312076 c 0,14,15
 186 210 186 210 177.248329763 181.994655241 c 0,16,17
 171 162 171 162 163.671368144 138.102287425 c 0,18,19
 148 87 148 87 141.158956659 65.8253420396 c 0,20,21
 127 22 127 22 120.440246188 12.9172639522 c 128,-1,22
 114 4 114 4 99.428741852 4.44155327721 c 0,23,24
 81 5 81 5 64.5557693419 22.5405127019 c 0,25,26
 51 37 51 37 51 50.279001352 c 0,27,28
 51 66 51 66 60.833668432 105.334673728 c 0,29,30
 90 222 90 222 192.314472271 474.175081656 c 0,31,32
 260 641 260 641 290.538067344 683.918364916 c 0,33,34
 297 693 297 693 301.645189959 696.317992828 c 0,0,1
EndSplineSet
Validated: 524289
EndChar

StartChar: zero
Encoding: 48 48 19
Width: 520
GlyphClass: 1
Flags: W
LayerCount: 2
Fore
SplineSet
110.450735831 101.754914479 m 0,0,1
 95 128 95 128 82.6291218887 164.574770068 c 0,2,3
 72 196 72 196 66.3077242616 223.648196444 c 0,4,5
 58 264 58 264 58 319 c 0,6,7
 58 319 58 319 58.2422976877 327.601567914 c 0,8,9
 60 390 60 390 87.1367060981 468.553622916 c 0,10,11
 98 500 98 500 108.046965049 521.701444505 c 0,12,13
 123 554 123 554 153.445836694 596.359424965 c 0,14,15
 169 618 169 618 177.985769577 628.157826478 c 0,16,17
 192 644 192 644 205.658854588 653.312855401 c 0,18,19
 236 674 236 674 281.603371128 674 c 0,20,21
 327 674 327 674 353.698592116 645.193624296 c 0,22,23
 365 633 365 633 382.0296204 604.98352773 c 0,24,25
 396 582 396 582 403.542405495 564.594448858 c 0,26,27
 409 552 409 552 413.931482235 542.531554109 c 0,28,29
 434 504 434 504 448.888107188 437.934024355 c 0,30,31
 466 362 466 362 466 297.618699736 c 0,32,33
 466 246 466 246 451.172310359 189.98428358 c 0,34,35
 430 110 430 110 379.343226042 60.0186496944 c 0,36,37
 355 36 355 36 323.106941558 20.9561045085 c 0,38,39
 302 11 302 11 284 8 c 1,40,41
 168 4 168 4 110.450735831 101.754914479 c 0,0,1
247.579556851 94.3109493771 m 0,42,43
 251 94 251 94 253.723753682 94 c 0,44,45
 272 94 272 94 298.876240503 119.196475472 c 0,46,47
 304 124 304 124 307.264187409 126.611349927 c 0,48,49
 314 132 314 132 322.855819698 141.741401668 c 0,50,51
 334 154 334 154 344.126038093 169.18905714 c 0,52,53
 350 178 350 178 352.475282621 182.243341637 c 0,54,55
 364 202 364 202 371.258860365 239.20165937 c 0,56,57
 380 284 380 284 380 343.193783056 c 0,58,59
 380 476 380 476 337.816885932 525.213633079 c 0,60,61
 332 532 332 532 324.144254676 541.998221322 c 0,62,63
 310 560 310 560 308.010560234 562.893730569 c 256,64,65
 299 576 299 576 288.005261262 582.692449666 c 0,66,67
 276 590 276 590 265.904441214 586.971332364 c 128,-1,68
 256 584 256 584 243.735940792 571.735940792 c 0,69,70
 226 554 226 554 205.322609711 521.084970561 c 0,71,72
 177 476 177 476 159.903259675 419.506423273 c 0,73,74
 154 400 154 400 151.129448804 386.36488182 c 0,75,76
 146 362 146 362 145.073571119 317.531413699 c 0,77,78
 145 314 145 314 144.738093182 309.285677268 c 0,79,80
 144 296 144 296 145.236158615 288.583048308 c 0,81,82
 146 284 146 284 148 280 c 258,83,84
 148 280 148 280 148 280 c 0,85,86
 156 228 156 228 167.094134637 192.221415796 c 0,87,88
 196 99 196 99 247.579556851 94.3109493771 c 0,42,43
EndSplineSet
Validated: 524321
EndChar

StartChar: one
Encoding: 49 49 20
Width: 335
GlyphClass: 1
Flags: W
LayerCount: 2
Fore
SplineSet
46 411.442838739 m 0,0,1
 46 427 46 427 64.000572134 470.651387425 c 0,2,3
 86 524 86 524 121.898470654 576.35193637 c 0,4,5
 134 594 134 594 153.809238531 619.469020968 c 0,6,7
 162 630 162 630 167.300298964 636.625373705 c 0,8,9
 182 655 182 655 184.01686146 659.03372292 c 0,10,11
 188 667 188 667 209.115288161 663.832706776 c 0,12,13
 228 661 228 661 229.163009872 652.858930895 c 0,14,15
 230 647 230 647 238.511354421 637.008410027 c 0,16,17
 253 620 253 620 258.435523349 595.842118448 c 0,18,19
 262 580 262 580 263.681390563 557.581459154 c 0,20,21
 265 540 265 540 265 515.412207666 c 0,22,23
 265 494 265 494 263.701401857 450.713395242 c 0,24,25
 262 394 262 394 262 306 c 0,26,27
 262 306 262 306 262 277.5 c 128,-1,28
 262 249 262 249 262 249 c 0,29,30
 262 235 262 235 263.286729852 219.88092424 c 0,31,32
 266 188 266 188 266.742545731 121.91342991 c 0,33,34
 267 99 267 99 267 85.1790323537 c 0,35,36
 267 38 267 38 263.208651831 28.2508189934 c 0,37,38
 260 20 260 20 245.439708455 12.9894892563 c 0,39,40
 233 7 233 7 223.175610141 6.38597563382 c 0,41,42
 217 6 217 6 210.063852391 7.66467542627 c 0,43,44
 192 12 192 12 185.742983221 23.6201740183 c 0,45,46
 178 38 178 38 172.405587726 84.7896299276 c 0,47,48
 167 130 167 130 167 180.364802997 c 0,49,50
 167 211 167 211 169.852408691 265.671166584 c 0,51,52
 173 326 173 326 172.25675422 365.392026329 c 0,53,54
 172 379 172 379 171.14278216 400.001837082 c 0,55,56
 170 428 170 428 168 457 c 1,57,-1
 166 486 l 1,58,59
 75 401 75 401 53.3381204034 401.746961365 c 0,60,61
 46 402 46 402 46 411.442838739 c 0,0,1
EndSplineSet
Validated: 524321
EndChar

StartChar: two
Encoding: 50 50 21
Width: 627
GlyphClass: 1
Flags: W
LayerCount: 2
Fore
SplineSet
256.561646448 3.49188234163 m 0,0,1
 228 3 228 3 228 3 c 2,2,3
 193 4 193 4 174 4 c 1,4,5
 146 6 146 6 118.917930088 5.24772028024 c 0,6,7
 110 5 110 5 105.38608336 4.67043452569 c 0,8,9
 96 4 96 4 92.588673237 4 c 0,10,11
 77 4 77 4 67.212505505 16.2343681188 c 0,12,13
 61 24 61 24 60.635582746 31.2883450807 c 0,14,15
 60 44 60 44 76.5373075713 62.1910383284 c 0,16,17
 100 88 100 88 158.833288657 116.079524132 c 0,18,19
 188 130 188 130 212.025251886 144.784770392 c 0,20,21
 240 162 240 162 270 175 c 1,22,23
 361 228 361 228 402.942634183 327.431267233 c 0,24,25
 412.867979092 354.418640969 412.867979092 354.418640969 413.487831787 394.709066185 c 0,26,27
 414 428 414 428 400.406817379 466.967123513 c 0,28,29
 384 514 384 514 357.014602365 542.484586393 c 128,-1,30
 330 571 330 571 292.812112055 575.648485993 c 0,31,32
 282 577 282 577 272.254398784 577.324853374 c 0,33,34
 252 578 252 578 237.365605337 575.689306106 c 0,35,36
 214 572 214 572 183.357516091 560.24183757 c 0,37,38
 128 539 128 539 79.0426024332 493.867399118 c 0,39,40
 64 480 64 480 59.7816177837 473.145128899 c 0,41,42
 56 467 56 467 52 469 c 2,43,-1
 50 473 l 1,44,-1
 52 490 l 1,45,46
 61 542 61 542 97.5896869396 582.795398082 c 0,47,48
 148 639 148 639 239.587353516 654.014320249 c 0,49,50
 270 659 270 659 299.015608946 659 c 0,51,52
 338 659 338 659 368.790241496 648.736586168 c 0,53,54
 416 633 416 633 450.152470542 589.015757635 c 0,55,56
 482 548 482 548 494.41204903 484.698549945 c 0,57,58
 502 446 502 446 502 401.989531309 c 0,59,60
 502 349 502 349 492.992597125 308.681149034 c 0,61,62
 481 255 481 255 457.196890313 216.548822814 c 0,63,64
 416 150 416 150 327 109 c 1,65,66
 256 77 256 77 256 77 c 129,-1,67
 256 77 256 77 390 72 c 1,68,69
 524 63 524 63 555.224015393 54.7831538438 c 0,70,71
 562 53 562 53 569.986681751 49.9574545712 c 0,72,73
 583 45 583 45 584.424538697 41.4386532569 c 0,74,75
 585 40 585 40 585 37.800333161 c 0,76,77
 585 31 585 31 580.793808927 25.2642848999 c 0,78,79
 574 16 574 16 475.396332165 10.582216053 c 0,80,81
 392 6 392 6 256.561646448 3.49188234163 c 0,0,1
EndSplineSet
Validated: 524321
EndChar

StartChar: three
Encoding: 51 51 22
Width: 491
GlyphClass: 1
Flags: W
LayerCount: 2
Fore
SplineSet
251 7 m 1,0,1
 241 7 241 7 231.409107747 6.87039334793 c 0,2,3
 167 6 167 6 133.822256449 22.9141437713 c 0,4,5
 116 32 116 32 94.6736421411 53.3263578589 c 0,6,7
 77 71 77 71 73.3319586199 80.9561123175 c 0,8,9
 70 90 70 90 75.7429815603 94.6988030948 c 0,10,11
 81 99 81 99 94.6750149361 99 c 0,12,13
 104 99 104 99 129.762657269 95.531949983 c 0,14,15
 156 92 156 92 169.850956461 89.1483324933 c 0,16,17
 190 85 190 85 213.43413765 85.7811379217 c 0,18,19
 220 86 220 86 224.886905415 86.2443452707 c 0,20,21
 260 88 260 88 296.872054318 113.49179064 c 0,22,23
 341 144 341 144 352.425017768 183.171489489 c 0,24,25
 355 192 355 192 355 199.932116949 c 0,26,27
 355 230 355 230 320.990758219 256.871499679 c 0,28,29
 274 294 274 294 203.545208107 292.145926529 c 0,30,31
 198 292 198 292 191.580767978 292 c 0,32,33
 171 292 171 292 161.863927888 293.957729738 c 0,34,35
 157 295 157 295 153.134973609 297.208586509 c 0,36,37
 150 299 150 299 148 299 c 2,38,39
 148 299 148 299 148 299 c 0,40,41
 142 306 142 306 140.25206668 308.796693311 c 0,42,43
 137 314 137 314 137 323 c 1,44,45
 143 347 143 347 213.844753701 367.96426385 c 0,46,47
 241 376 241 376 260.767145198 386.165960388 c 0,48,49
 276 394 276 394 282.148124007 401.377748808 c 0,50,51
 286 406 286 406 293.497719476 416.135805958 c 0,52,53
 340 479 340 479 340 509.275272245 c 0,54,55
 340 524 340 524 329.133024554 543.758137174 c 0,56,57
 318 564 318 564 303.991300966 574.416724922 c 0,58,59
 279 593 279 593 229.469399628 593 c 0,60,61
 195 593 195 593 150.767922559 584.356950385 c 0,62,63
 108 576 108 576 83.0271975191 564.474091163 c 0,64,65
 69 558 69 558 61.2652392266 558 c 0,66,67
 56 558 56 558 51.5958298344 562.404170166 c 0,68,69
 46 568 46 568 46.4500927307 575.201483692 c 0,70,71
 47 584 47 584 60.1439680148 597.835755805 c 0,72,73
 66 604 66 604 68.891650209 607.717835983 c 0,74,75
 80 622 80 622 111.472713717 642.653968376 c 0,76,77
 144 664 144 664 165.030050741 669.392320703 c 0,78,79
 183 674 183 674 214.940554028 673.220962097 c 0,80,81
 224 673 224 673 229.165318422 672.910942786 c 0,82,83
 282 672 282 672 310.805268873 663.769923179 c 0,84,85
 338 656 338 656 366.598105911 632.764038948 c 0,86,87
 386 617 386 617 393.862947691 604.511788962 c 0,88,89
 403 590 403 590 412.58870166 556.211241768 c 0,90,91
 424 516 424 516 422.377329819 497.339292914 c 0,92,93
 422 493 422 493 421.751294828 489.145069838 c 0,94,95
 420 462 420 462 411.142862963 442.31747325 c 0,96,97
 402 422 402 422 350 356 c 0,98,99
 350 356 350 356 350 356 c 0,100,101
 389 332 389 332 413.851907281 301.625446657 c 0,102,103
 434 277 434 277 436.476957153 257.18434278 c 0,104,105
 437 253 437 253 437 245.636067981 c 0,106,107
 437 228 437 228 434.036245014 201.326205128 c 0,108,109
 430 165 430 165 424.161397079 143.76871665 c 0,110,111
 397 45 397 45 251 7 c 1,0,1
EndSplineSet
Validated: 524325
EndChar

StartChar: four
Encoding: 52 52 23
Width: 591
GlyphClass: 1
Flags: W
LayerCount: 2
Fore
SplineSet
406 144 m 1,0,1
 403 93 403 93 394.912067222 58.4914868156 c 0,2,3
 388 29 388 29 376.870743574 16.0158675025 c 0,4,5
 370 8 370 8 363.969586946 8 c 0,6,7
 356 8 356 8 348.439126049 21.2315294143 c 0,8,9
 340 36 340 36 336.645886855 58.5204739726 c 0,10,11
 333 83 333 83 333.628082957 145.18021273 c 0,12,13
 334 182 334 182 332.208354971 184.986075049 c 0,14,15
 331 187 331 187 316.770207326 186.509317494 c 0,16,17
 302 186 302 186 268.814410217 182.936714789 c 0,18,19
 172 174 172 174 123.058906217 152.248402763 c 0,20,21
 100 142 100 142 84.5586881302 142.908312463 c 0,22,23
 83 143 83 143 82.1117314893 143.052251089 c 0,24,25
 66 144 66 144 55.8780469086 161.266861156 c 0,26,27
 49 173 49 173 49 185.990256976 c 0,28,29
 49 200 49 200 57.2216709775 221.675314395 c 0,30,31
 71 258 71 258 121.344333423 330.031123206 c 0,32,33
 136 351 136 351 154.774702092 378.491528063 c 0,34,35
 220 474 220 474 246.062371849 518.105552359 c 0,36,37
 272 562 272 562 292.836305489 615.316428751 c 0,38,39
 306 649 306 649 313.823231721 660.245895598 c 0,40,41
 322 672 322 672 335.740472541 675.925849297 c 0,42,43
 350 680 350 680 364.783520854 673.882681026 c 0,44,45
 379 668 379 668 383.083349168 659.462088103 c 0,46,47
 390 645 390 645 391.202631134 560.214505087 c 0,48,49
 392 504 392 504 397.457409228 403.037929291 c 0,50,51
 400 356 400 356 402 310 c 1,52,-1
 404 282 l 1,53,-1
 457 282 l 2,54,55
 507 282 507 282 528.280468723 272.178245205 c 0,56,57
 546 264 546 264 546 249.751032662 c 0,58,59
 546 232 546 232 515.521873575 217.038010664 c 0,60,61
 491 205 491 205 449.669212568 201.37449233 c 0,62,63
 434 200 434 200 416 197 c 1,64,-1
 410 195 l 1,65,-1
 406 144 l 1,0,1
283 419 m 2,66,67
 180 266 180 266 176.158312395 259.853299832 c 0,68,69
 175 258 175 258 173 255 c 1,70,71
 176 255 176 255 211.440268929 260.695757506 c 0,72,73
 288 273 288 273 301.650603467 273 c 0,74,75
 325 273 325 273 324.148055978 307.929704896 c 0,76,77
 324 314 324 314 323.654106347 322.993234973 c 0,78,79
 322 366 322 366 312 444 c 1,80,-1
 310 458 l 1,81,-1
 283 419 l 2,66,67
EndSplineSet
Validated: 524321
EndChar

StartChar: five
Encoding: 53 53 24
Width: 534
GlyphClass: 1
Flags: W
LayerCount: 2
Fore
SplineSet
298.910861069 6.56310849252 m 0,0,1
 274 -2 274 -2 248.066403304 -2 c 0,2,3
 223 -2 223 -2 188.683686783 10.2222485431 c 0,4,5
 150 24 150 24 117.95323983 47.8992787712 c 0,6,7
 91 68 91 68 81.1716732767 87.6566534466 c 0,8,9
 74 102 74 102 72.2952322763 120.752444961 c 0,10,11
 70 146 70 146 79.5406165024 152.605042194 c 0,12,13
 83 155 83 155 86.7210382053 155.286233708 c 0,14,15
 96 156 96 156 112.319174553 145.693152914 c 0,16,17
 134 132 134 132 169.977422104 119.715026599 c 0,18,19
 216 104 216 104 249.885892857 102.262261905 c 0,20,21
 255 102 255 102 258.679732645 102 c 0,22,23
 290 102 290 102 321.679867762 117.085651315 c 0,24,25
 374 142 374 142 385.061790852 189.407675082 c 0,26,27
 388 202 388 202 388 214.333437143 c 0,28,29
 388 244 388 244 363.894966188 274.99218633 c 0,30,31
 346 298 346 298 329.0765755 301.3846849 c 0,32,33
 316 304 316 304 275.370459001 304 c 0,34,35
 200 304 200 304 149.405141374 294.01417264 c 0,36,37
 124 289 124 289 106.130185215 289.776948469 c 0,38,39
 101 290 101 290 96.6077309495 290.976059789 c 0,40,41
 83 294 83 294 70.8468174449 314.079171178 c 0,42,43
 60 332 60 332 60 348.13941403 c 0,44,45
 60 362 60 362 67.1394438865 405.78858917 c 0,46,47
 75 454 75 454 75.8273630729 477.993529115 c 0,48,49
 76 483 76 483 74.530497945 504.307779797 c 0,50,51
 74 512 74 512 73.0174264432 527.47553352 c 0,52,53
 70 575 70 575 70 592.011573422 c 0,54,55
 70 616 70 616 75.7778307517 631.682683469 c 0,56,57
 84 654 84 654 100.96458042 659.089374126 c 0,58,59
 124 666 124 666 271.087781692 666 c 0,60,61
 368 666 368 666 388.69538969 662.550768385 c 0,62,63
 404 660 404 660 429.489767438 646.745320932 c 0,64,65
 454 634 454 634 454 628.011687429 c 0,66,67
 454 624 454 624 443.45112217 617.287077744 c 0,68,69
 432 610 432 610 411.799044471 601.919617788 c 0,70,71
 392 594 392 594 377.734613939 590.245951037 c 0,72,73
 354 584 354 584 300.50382311 580.480514678 c 0,74,75
 278 579 278 579 169 571 c 1,76,77
 170 550 170 550 171.708088832 526.086756346 c 0,78,79
 175 480 175 480 174.582640378 458.7146593 c 0,80,81
 174 429 174 429 166 401 c 1,82,83
 166 402 166 402 164 396 c 1,84,-1
 192 398 l 2,85,86
 222 400 222 400 257.181479213 400 c 0,87,88
 323 400 323 400 352.632642111 392.172509631 c 0,89,90
 376 386 376 386 403.284146552 369.277458565 c 0,91,92
 438 348 438 348 452.424448828 327.264854809 c 0,93,94
 470 302 470 302 477.537426644 251.978895907 c 0,95,96
 481 229 481 229 481 207.945035787 c 0,97,98
 481 174 481 174 472.505926548 140.023706193 c 0,99,100
 458 82 458 82 419.471987873 50.9290224785 c 0,101,102
 396 32 396 32 348.854220707 20.999318165 c 0,103,104
 336 18 336 18 317.26874258 12.380622774 c 0,105,106
 306 9 306 9 298.910861069 6.56310849252 c 0,0,1
EndSplineSet
Validated: 524321
EndChar

StartChar: six
Encoding: 54 54 25
Width: 542
GlyphClass: 1
Flags: W
LayerCount: 2
Fore
SplineSet
190 380 m 1,0,1
 192 380 192 380 200.777340326 384.388670163 c 0,2,3
 224 396 224 396 246.171665823 401.189113278 c 0,4,5
 271 407 271 407 310 407 c 0,6,7
 310 407 310 407 310 407 c 0,8,9
 358 407 358 407 386.776909876 399.061542103 c 0,10,11
 416 391 416 391 436.311708256 373.77920387 c 0,12,13
 462 352 462 352 478.103547467 312.000865969 c 0,14,15
 493 275 493 275 493 239.07173901 c 0,16,17
 493 184 493 184 458.785135225 132.377572444 c 0,18,19
 436 98 436 98 396.984700522 65.4872504351 c 0,20,21
 364 38 364 38 328.632486272 21.4951602603 c 0,22,23
 304 10 304 10 278.280780778 3.0755948249 c 0,24,25
 252 -4 252 -4 230.196976678 -4 c 0,26,27
 216 -4 216 -4 204.370921121 -1.80583417369 c 0,28,29
 163 6 163 6 126.456896443 41.3642937649 c 0,30,31
 70 96 70 96 60.2114226463 191.438629198 c 0,32,33
 58 213 58 213 58 239.181748302 c 0,34,35
 58 292 58 292 68.9899398228 348.448327271 c 128,-1,36
 80 405 80 405 95.497049623 447.26468079 c 0,37,38
 124 525 124 525 177.854642643 585.10562795 c 0,39,40
 236 650 236 650 293.213168077 660.402394196 c 0,41,42
 302 662 302 662 305.378930681 663.126310227 c 0,43,44
 314 666 314 666 342.236633316 664.588168334 c 0,45,46
 354 664 354 664 363.418960632 662.287461703 c 0,47,48
 376 660 376 660 382.298005764 655.80132949 c 0,49,50
 388 652 388 652 407.332553709 633.204461672 c 0,51,52
 424 617 424 617 427.810783836 612.149911482 c 0,53,54
 435 603 435 603 427.798060603 596.221704097 c 0,55,56
 418 587 418 587 390.613676956 585.314687813 c 0,57,58
 353 583 353 583 310.929286489 565.165675794 c 0,59,60
 261 544 261 544 236.008145126 514.009774151 c 128,-1,61
 211 484 211 484 192.901858078 394.371106671 c 0,62,63
 190 380 190 380 190 380 c 1,0,1
183.590688859 106.409311141 m 0,64,65
 204 86 204 86 220.328227673 83.5507658491 c 0,66,67
 224 83 224 83 228.799223734 83 c 0,68,69
 240 83 240 83 252.905903362 85.2585330884 c 0,70,71
 280 90 280 90 306.408759665 105.605176166 c 0,72,73
 324 116 324 116 342.939353329 131.495834542 c 0,74,75
 368 152 368 152 379.351558979 167.995378562 c 0,76,77
 390 183 390 183 398.270788458 203.217482897 c 0,78,79
 408 227 408 227 408 243.782141366 c 0,80,81
 408 259 408 259 401.183340814 274.9055381 c 0,82,83
 387 308 387 308 356.268059012 319.769679527 c 0,84,85
 340 326 340 326 319.956100458 326 c 0,86,87
 302 326 302 326 278.452865448 320.393539392 c 0,88,89
 239 311 239 311 193.946136604 280.964091069 c 0,90,91
 185 275 185 275 181.984921279 273.291455391 c 0,92,93
 155 258 155 258 148.367430648 206.597587521 c 0,94,95
 147 196 147 196 147 187.414060205 c 0,96,97
 147 143 147 143 183.590688859 106.409311141 c 0,64,65
EndSplineSet
Validated: 524325
EndChar

StartChar: seven
Encoding: 55 55 26
Width: 558
GlyphClass: 1
Flags: W
LayerCount: 2
Fore
SplineSet
270 265.933325101 m 128,-1,1
 270 272 270 272 251.552985546 273.604088213 c 0,2,3
 247 274 247 274 237.845565238 274.638681495 c 0,4,5
 204 277 204 277 181.607242264 279.730824114 c 0,6,7
 163 282 163 282 154.404017254 284.046662559 c 0,8,9
 142 287 142 287 142 291.447207336 c 128,-1,10
 142 296 142 296 153.50808408 304.950732063 c 0,11,12
 196 338 196 338 292 352 c 1,13,-1
 302 352 l 1,14,-1
 325 419 l 2,15,16
 356 511 356 511 358 540 c 1,17,-1
 358 554 l 1,18,-1
 333 560 l 1,19,20
 284 571 284 571 231.437577811 571 c 0,21,22
 196 571 196 571 158.885304554 565.938905166 c 0,23,24
 130 562 130 562 107.690725784 562 c 0,25,26
 60 562 60 562 46.7980173268 579.084918754 c 0,27,28
 43 584 43 584 43 589.061388477 c 0,29,30
 43 610 43 610 108.855726537 637.86203815 c 0,31,32
 147 654 147 654 174.924122783 659.584824557 c 0,33,34
 202 665 202 665 248 665 c 0,35,36
 248 665 248 665 254.081777548 664.895141766 c 0,37,38
 306 664 306 664 346.778475041 656.879948802 c 0,39,40
 432 642 432 642 450.505449536 603.379931403 c 0,41,42
 455 594 455 594 455 584.093514048 c 0,43,44
 455 576 455 576 451.283163376 566.336224778 c 0,45,46
 445 550 445 550 438.311993848 513.806084354 c 0,47,48
 428 458 428 458 402.622569172 383.360497563 c 0,49,50
 394 358 394 358 395.385018853 358 c 0,51,52
 396 358 396 358 402.429323447 357.054511258 c 0,53,54
 464 348 464 348 492.464502918 336.614198833 c 0,55,56
 514 328 514 328 514 318.484301703 c 0,57,58
 514 312 514 312 500.047270696 302.151014609 c 0,59,60
 480 288 480 288 438.817891523 277.529972421 c 0,61,62
 421 273 421 273 401.437704702 270.036015864 c 0,63,64
 388 268 388 268 378.31738953 265.417970541 c 0,65,66
 373 264 373 264 366.811486949 262.874815809 c 0,67,68
 362 262 362 262 360.550134539 262 c 128,-1,69
 359 262 359 262 358.581792292 261.163584585 c 0,70,71
 358 260 358 260 354.114070654 251.214420609 c 0,72,73
 312 156 312 156 268.04302274 82.7383712332 c 0,74,75
 252 56 252 56 244.078184965 40.7657403168 c 0,76,77
 226 6 226 6 208.164573871 -0.369795046152 c 0,78,79
 198 -4 198 -4 190.701190429 1.58144261319 c 0,80,81
 181 9 181 9 180.655638436 23.8075472604 c 0,82,83
 180 52 180 52 230.361790906 173.460789833 c 0,84,85
 248 216 248 216 259.555520748 239.111041496 c 0,86,0
 270 260 270 260 270 265.933325101 c 128,-1,1
EndSplineSet
Validated: 524321
EndChar

StartChar: eight
Encoding: 56 56 27
Width: 498
GlyphClass: 1
Flags: W
LayerCount: 2
Fore
SplineSet
188 346 m 1,0,1
 188 347 188 347 174.426976731 355.572435749 c 0,2,3
 131 383 131 383 104.13275308 408.986353579 c 0,4,5
 70 442 70 442 56.0782387002 475.809991728 c 0,6,7
 49 493 49 493 49 508.915604685 c 0,8,9
 49 540 49 540 71.0465425561 576.631178401 c 0,10,11
 114 648 114 648 190.570963459 666.345126662 c 0,12,13
 210 671 210 671 230.148938594 670.571299179 c 0,14,15
 257 670 257 670 283.362779443 662.121468213 c 0,16,17
 344 644 344 644 379.472454012 593.39958766 c 0,18,19
 412 547 412 547 412.615801386 473.719635029 c 0,20,21
 413 428 413 428 395.216476237 392.432952474 c 0,22,23
 390 382 390 382 384.090810183 374.90897222 c 0,24,25
 380 370 380 370 350 336 c 1,26,27
 355 332 355 332 361.222252268 327.851831821 c 0,28,29
 394 306 394 306 420.266098632 257.765891603 c 0,30,31
 449 205 449 205 448.25520878 159.567735558 c 0,32,33
 448 144 448 144 443.981715167 124.410861437 c 0,34,35
 432 66 432 66 403.095087481 40.3067444274 c 0,36,37
 378 18 378 18 330.748568392 7.78347424686 c 0,38,39
 304 2 304 2 278.185019772 2 c 0,40,41
 241 2 241 2 198.552679295 12.6953878942 c 0,42,43
 114 34 114 34 88.3370539678 82.8221900125 c 0,44,45
 73 112 73 112 73 161.388774829 c 0,46,47
 73 174 73 174 74.3856285129 190.231648294 c 0,48,49
 80 256 80 256 107.170748507 294.154668116 c 0,50,51
 127 322 127 322 188 346 c 0,52,53
 188 346 188 346 188 346 c 1,0,1
255 297 m 1,54,55
 237 289 237 289 219.999681308 283.745356041 c 0,56,57
 182 272 182 272 168.876635035 257.001868612 c 0,58,59
 154 240 154 240 151.51670055 199.43944231 c 0,60,61
 151 191 151 191 150.916165702 187.562793793 c 0,62,63
 150 150 150 150 174.637600141 118.935199822 c 0,64,65
 196 92 196 92 225.657428543 86.6768718 c 0,66,67
 235 85 235 85 246.550544856 85 c 0,68,69
 262 85 262 85 274.427020517 86.9883232828 c 0,70,71
 312 93 312 93 332.590126966 121.025450592 c 0,72,73
 348 142 348 142 350.590356835 173.084282022 c 0,74,75
 351 178 351 178 351 184.303281896 c 0,76,77
 351 204 351 204 347.704120887 219.380769194 c 0,78,79
 342 246 342 246 325.22560808 263.822791415 c 0,80,81
 310 280 310 280 279 296 c 2,82,83
 278 296 278 296 268 302 c 1,84,-1
 255 297 l 1,54,55
193.559636233 432.440363767 m 0,85,86
 212 414 212 414 230.438570922 405.39533357 c 0,87,88
 242 400 242 400 254.869693755 389.470250564 c 0,89,90
 264 382 264 382 266.419317016 382 c 128,-1,91
 269 382 269 382 279.636791903 386.887174658 c 0,92,93
 306 399 306 399 314.729432501 412.094148752 c 0,94,95
 320 420 320 420 324.343640191 436.505832727 c 0,96,97
 330 458 330 458 330 477.498130425 c 0,98,99
 330 526 330 526 288.256203722 563.948905708 c 0,100,101
 253 596 253 596 215.605249269 596 c 0,102,103
 209 596 209 596 202.423140134 594.926226961 c 0,104,105
 160 588 160 588 148 542 c 1,106,107
 147 536 147 536 147 528.714223111 c 0,108,109
 147 479 147 479 193.559636233 432.440363767 c 0,85,86
EndSplineSet
Validated: 524325
EndChar

StartChar: nine
Encoding: 57 57 28
Width: 541
GlyphClass: 1
Flags: W
LayerCount: 2
Fore
SplineSet
156.520789878 11.0747830199 m 0,0,1
 152 14 152 14 134.629029441 32.3927923569 c 0,2,3
 118 50 118 50 114.519138953 54.8732054657 c 0,4,5
 108 64 108 64 115.141260717 70.7211865569 c 0,6,7
 125 80 125 80 151.801812676 81.2370067389 c 0,8,9
 190 83 190 83 232.801745382 102.022997948 c 0,10,11
 280 123 280 123 305.532187232 151.841915207 c 0,12,13
 334 184 334 184 349.384719406 263.231304939 c 0,14,15
 354 287 354 287 351.496883188 287 c 0,16,17
 350 287 350 287 342.966840595 283.143106133 c 0,18,19
 319 270 319 270 291.782403854 264.864604501 c 0,20,21
 266 260 266 260 230.072799529 260 c 0,22,23
 184 260 184 260 155.202322624 268.083558562 c 0,24,25
 127 276 127 276 107.394767833 291.851038774 c 0,26,27
 80 314 80 314 63.4415205797 355.663270799 c 0,28,29
 49 392 49 392 49 427.375870641 c 0,30,31
 49 484 49 484 86.5887676927 537.51621163 c 0,32,33
 108 568 108 568 143.882403183 599.781557105 c 0,34,35
 178 630 178 630 205.798734034 644.414158388 c 0,36,37
 232 658 232 658 262.582884461 664.975043824 c 0,38,39
 289 671 289 671 303.554098166 670.306947706 c 0,40,41
 310 670 310 670 323.704539103 668.0422087 c 0,42,43
 380 660 380 660 419.442974246 621.433536293 c 0,44,45
 470 572 470 572 480.819051885 476.174111873 c 0,46,47
 484 448 484 448 484 417.836033044 c 0,48,49
 484 370 484 370 473.754752614 318.285894149 c 0,50,51
 463 264 463 264 447.216992679 221.210513485 c 0,52,53
 418 142 418 142 366.430955826 82.9300039464 c 0,54,55
 308 16 308 16 248 6 c 1,56,57
 169 3 169 3 156.520789878 11.0747830199 c 0,0,1
359.028524814 560.615059511 m 0,58,59
 338 582 338 582 321.779907911 584.317156013 c 0,60,61
 317 585 317 585 311.557727825 584.697651546 c 0,62,63
 299 584 299 584 286.404130497 581.276568756 c 0,64,65
 262 576 262 576 236.704816448 561.052846083 c 0,66,67
 218 550 218 550 197.890531965 533.546798881 c 0,68,69
 174 514 174 514 163.386775873 499.527421645 c 0,70,71
 152 484 152 484 143.899465468 461.723530038 c 0,72,73
 136 440 136 440 136 423.516607372 c 0,74,75
 136 408 136 408 142.567547037 391.581132409 c 0,76,77
 156 358 156 358 187.411616235 346.638351574 c 0,78,79
 203 341 203 341 222.570559126 341 c 0,80,81
 241 341 241 341 264.750487158 346.654877895 c 0,82,83
 304 356 304 356 349.034560977 386.023040651 c 0,84,85
 358 392 358 392 361.820578313 394.037641767 c 0,86,87
 388 408 388 408 395.376695577 458.817236194 c 0,88,89
 397 470 397 470 397 478.909490692 c 0,90,91
 397 522 397 522 359.028524814 560.615059511 c 0,58,59
EndSplineSet
Validated: 524321
EndChar

StartChar: colon
Encoding: 58 58 29
Width: 240
GlyphClass: 1
Flags: W
LayerCount: 2
Fore
SplineSet
60 125.644791 m 0,0,1
 60 162 60 162 90.7254747179 184.57381816 c 0,2,3
 109 198 109 198 126.581470423 196.241852958 c 0,4,5
 129 196 129 196 133.275035087 195.185707603 c 0,6,7
 150 192 150 192 161.757257203 178.773085647 c 0,8,9
 174 165 174 165 174 145 c 0,10,11
 174 145 174 145 173.826086957 143.086956522 c 0,12,13
 172 123 172 123 150.490815856 100.024280574 c 0,14,15
 128 76 128 76 99.9520713753 74.5616446859 c 0,16,17
 89 74 89 74 82.2794070999 76.1222924948 c 0,18,19
 70 80 70 80 64.0791626767 97.76251197 c 0,20,21
 60 110 60 110 60 125.644791 c 0,0,1
68 432.340284708 m 0,22,23
 68 474 68 474 98.0538218958 495.56035049 c 0,24,25
 114 507 114 507 130.207946695 507 c 0,26,27
 135 507 135 507 142.115189533 504.834507534 c 0,28,29
 158 500 158 500 168.441975566 488.650026559 c 0,30,31
 181 475 181 475 181 458.210460198 c 0,32,33
 181 435 181 435 155.930190402 408.863389994 c 0,34,35
 134 386 134 386 109.368701141 384.631594508 c 0,36,37
 98 384 98 384 89.1559469673 387.216019285 c 0,38,39
 76 392 76 392 71.2561172837 406.231648149 c 0,40,41
 68 416 68 416 68 432.340284708 c 0,22,23
EndSplineSet
Validated: 524321
EndChar

StartChar: semicolon
Encoding: 59 59 30
Width: 237
GlyphClass: 1
Flags: W
LayerCount: 2
Fore
SplineSet
64 431.449959193 m 0,0,1
 64 472 64 472 94.7779608251 493.610057601 c 0,2,3
 111 505 111 505 127.199889046 505 c 0,4,5
 132 505 132 505 139.159951475 502.91168082 c 0,6,7
 156 498 156 498 166.226858148 487.308284664 c 0,8,9
 178 475 178 475 178 455 c 0,10,11
 178 455 178 455 177.795792036 452.65160841 c 0,12,13
 176 432 176 432 154.849975323 408.927245807 c 0,14,15
 132 384 132 384 100.8292704 384 c 0,16,17
 92 384 92 384 85.7710513299 385.639197018 c 0,18,19
 73 389 73 389 67.7924673172 403.465368563 c 0,20,21
 64 414 64 414 64 431.449959193 c 0,0,1
81.0929692744 77.5160955331 m 0,22,23
 88 101 88 101 88 114.060765546 c 0,24,25
 88 124 88 124 81.2766290815 131.283651828 c 0,26,27
 76 137 76 137 71.250347365 147.449235797 c 0,28,29
 66 159 66 159 62.9728717885 171.713938488 c 0,30,31
 61 180 61 180 61 185.309082025 c 0,32,33
 61 196 61 196 68.725302882 205.270363458 c 0,34,35
 81 220 81 220 107.760677496 226.296629999 c 0,36,37
 115 228 115 228 121.221464544 228 c 0,38,39
 142 228 142 228 158.064489287 209.927449553 c 128,-1,40
 174 192 174 192 174 168.682378102 c 0,41,42
 174 157 174 157 168.731908304 138.386076009 c 0,43,44
 159 104 159 104 137.878646237 71.5056095947 c 0,45,46
 120 44 120 44 102.201304501 30.1565701671 c 0,47,48
 84 16 84 16 76.7981684362 23.2018315638 c 0,49,50
 73 27 73 27 73 36.3506925892 c 0,51,52
 73 50 73 50 81.0929692744 77.5160955331 c 0,22,23
EndSplineSet
Validated: 524289
EndChar

StartChar: less
Encoding: 60 60 31
Width: 606
GlyphClass: 1
Flags: W
LayerCount: 2
Fore
SplineSet
283 237 m 2,0,1
 401 196 401 196 505.918786226 124.83131284 c 0,2,3
 544 99 544 99 546.878255187 89.6456706425 c 0,4,5
 548 86 548 86 543.922614665 82.4322878315 c 128,-1,6
 540 79 540 79 534.454064742 78.3067580928 c 0,7,8
 532 78 532 78 528.622942212 78 c 0,9,10
 520 78 520 78 505.733069222 79.1413544622 c 0,11,12
 470 82 470 82 454.074067227 85.7472782995 c 0,13,14
 436 90 436 90 377.619241513 113.219619853 c 0,15,16
 348 125 348 125 327.323453183 133.861377207 c 0,17,18
 299 146 299 146 284.439435195 150.518795974 c 128,-1,19
 270 155 270 155 256.748676985 161.294378432 c 0,20,21
 230 174 230 174 162.455643538 195.614194068 c 0,22,23
 105 214 105 214 82.4399459613 218.512010808 c 0,24,25
 55 224 55 224 50.2966236431 236.934284981 c 0,26,27
 47 246 47 246 55.351932441 256.808383159 c 0,28,29
 64 268 64 268 93.0127930602 289.896447593 c 0,30,31
 117 308 117 308 136.829899358 318.282170037 c 0,32,33
 144 322 144 322 161.351988562 331.915422035 c 0,34,35
 172 338 172 338 177.464695186 341.187738859 c 0,36,37
 196 352 196 352 225.873221823 367.300918495 c 0,38,39
 237 373 237 373 243.844942623 376.733605067 c 0,40,41
 248 379 248 379 256.17925808 383.544032267 c 0,42,43
 275 394 275 394 284.197853599 399.325073136 c 0,44,45
 294 405 294 405 299.936015954 408.280429869 c 0,46,47
 332 426 332 426 384.47676663 446.772053458 c 0,48,49
 428 464 428 464 446.555038931 475.928239313 c 0,50,51
 456 482 456 482 467.664062899 488.085598034 c 0,52,53
 502 506 502 506 522.896975904 506 c 0,54,55
 540 506 540 506 547.318173814 491.363652373 c 0,56,57
 552 482 552 482 550 472 c 1,58,59
 550 472 550 472 524.724239664 450.612818177 c 0,60,61
 420 362 420 362 364.766162384 326.711714857 c 0,62,63
 348 316 348 316 329.025923908 301.769442931 c 0,64,65
 312 289 312 289 295.376224751 277.778951707 c 0,66,67
 272 262 272 262 249 249 c 1,68,-1
 283 237 l 2,0,1
EndSplineSet
Validated: 524289
EndChar

StartChar: equal
Encoding: 61 61 32
Width: 395
GlyphClass: 1
Flags: W
LayerCount: 2
Fore
SplineSet
65.6365473243 337.272196619 m 0,0,1
 64 342 64 342 65.9411815721 345.882363144 c 0,2,3
 68 350 68 350 78 357 c 0,4,5
 78 357 78 357 78 357 c 0,6,7
 90 363 90 363 108 372 c 0,8,9
 108 372 108 372 108.0000002 372.00000008 c 0,10,11
 118 376 118 376 123.99999996 377.999999987 c 0,12,13
 136 382 136 382 138.593006474 383.060775376 c 0,14,15
 180 400 180 400 244.102018475 404.109103748 c 0,16,17
 258 405 258 405 269.741648914 405 c 0,18,19
 311 405 311 405 325.095962027 388.219092824 c 0,20,21
 332 380 332 380 332 369.10826867 c 0,22,23
 332 356 332 356 324.246358034 347.470993837 c 0,24,25
 312 334 312 334 278.448232283 326.745563737 c 0,26,27
 238 318 238 318 163.283326189 316.320973622 c 0,28,29
 149 316 149 316 140.685704497 316 c 0,30,31
 73 316 73 316 65.6365473243 337.272196619 c 0,0,1
325 212 m 1,32,33
 311 196 311 196 273.879096137 187.63472589 c 0,34,35
 240 180 240 180 174.123988572 179.366576813 c 0,36,37
 136 179 136 179 121.516810234 180.810398721 c 0,38,39
 112 182 112 182 102.538212168 185.010568856 c 0,40,41
 90 189 90 189 84.256935558 193.785887035 c 0,42,43
 78 199 78 199 79.7578853281 204.713127316 c 0,44,45
 82 212 82 212 92.9303366073 221.001453677 c 0,46,47
 116 240 116 240 163.464844781 252.799508705 c 0,48,49
 205 264 205 264 253.548728689 268.045727391 c 0,50,51
 265 269 265 269 274.678566264 269 c 0,52,53
 309 269 309 269 324.043050161 251.221849809 c 0,54,55
 331 243 331 243 331.894857123 234.49885733 c 0,56,57
 333 224 333 224 325 212 c 1,32,33
EndSplineSet
Validated: 524325
EndChar

StartChar: greater
Encoding: 62 62 33
Width: 601
GlyphClass: 1
Flags: W
LayerCount: 2
Fore
SplineSet
321 348 m 1,0,1
 206 388 206 388 99.0844535281 458.795429421 c 0,2,3
 58 486 58 486 56.4726392862 495.164164283 c 0,4,5
 56 498 56 498 57.0625479682 499.062547968 c 0,6,7
 59 501 59 501 68.2060233622 504.222108177 c 0,8,9
 79 508 79 508 87.5533033001 508 c 0,10,11
 100 508 100 508 131.440579458 500.744481664 c 0,12,13
 178 490 178 490 245.239257362 463.802886742 c 0,14,15
 255 460 255 460 267.477408613 455.009036555 c 0,16,17
 285 448 285 448 300.242566447 442.19330802 c 0,18,19
 306 440 306 440 307.826948156 439.314894441 c 0,20,21
 322 434 322 434 336.158406207 427.588646246 c 0,22,23
 375 410 375 410 442.767089834 388.314531253 c 0,24,25
 500 370 500 370 523.317444308 366.113759282 c 0,26,27
 548 362 548 362 552.515432922 350.711417695 c 0,28,29
 556 342 556 342 541.717851714 324.657391367 c 0,30,31
 528 308 528 308 510 298 c 2,32,33
 508 296 508 296 268 168 c 1,34,35
 268 168 268 168 231 146 c 1,36,37
 184 127 184 127 171.624421502 120.193431826 c 0,38,39
 164 116 164 116 149.27539248 109.097840225 c 0,40,41
 100 86 100 86 79.9431280305 84.3285940025 c 0,42,43
 64 83 64 83 56.5477882228 97.2834059063 c 0,44,45
 52 106 52 106 53.2689483087 113.613689852 c 0,46,47
 55 124 55 124 74.2082766935 140.253157202 c 0,48,49
 81 146 81 146 87.6355522642 152.319573585 c 0,50,51
 102 166 102 166 117.138513845 176.480509585 c 0,52,53
 128 184 128 184 146.161821327 197.777933421 c 0,54,55
 186 228 186 228 216.084624121 246.652466955 c 0,56,57
 236 259 236 259 271.583085989 283.594191787 c 0,58,59
 304 306 304 306 322.845245783 317.441756368 c 0,60,61
 332 323 332 323 354 337 c 1,62,-1
 321 348 l 1,0,1
EndSplineSet
Validated: 524289
EndChar

StartChar: question
Encoding: 63 63 34
Width: 378
GlyphClass: 1
Flags: W
LayerCount: 2
Fore
SplineSet
202.290137382 23.3046442513 m 0,0,1
 182 2 182 2 158.539489191 0.61996995243 c 0,2,3
 148 0 148 0 139.613042053 3.08993187512 c 0,4,5
 129 7 129 7 125.668117388 15.0917149155 c 0,6,7
 122 24 122 24 122 38.6788037994 c 0,8,9
 122 77 122 77 152.399815391 98.808563215 c 0,10,11
 168 110 168 110 185 110 c 0,12,13
 185 110 185 110 187.953145191 109.305142308 c 0,14,15
 202 106 202 106 212.395353515 94.6596143471 c 0,16,17
 224 82 224 82 224 65 c 0,18,19
 224 65 224 65 223.776353243 62.6517090473 c 0,20,21
 222 44 222 44 202.290137382 23.3046442513 c 0,0,1
148.06201353 215.986324289 m 0,22,23
 132 250 132 250 125.659760508 272.824862173 c 0,24,25
 122 286 122 286 120.489833823 297.074551967 c 128,-1,26
 119 308 119 308 119.600061991 317.60099185 c 0,27,28
 120 324 120 324 121.376052763 330.421579562 c 0,29,30
 126 352 126 352 146.6174046 372.060177448 c 0,31,32
 163 388 163 388 191.707757947 404.249674309 c 0,33,34
 216 418 216 418 224.881423475 426.881423475 c 0,35,36
 238 440 238 440 247.689189318 477.545608606 c 0,37,38
 254 502 254 502 254 517.881850016 c 0,39,40
 254 534 254 534 246.327100747 561.740481916 c 0,41,42
 241 581 241 581 236.562448468 589.382041783 c 0,43,44
 232 598 232 598 225.877679043 604.678895589 c 0,45,46
 210 622 210 622 181.605216783 629.690253788 c 0,47,48
 162 635 162 635 136 635 c 0,49,50
 136 635 136 635 133.262571805 634.902234707 c 0,51,52
 108 634 108 634 90.6948047729 621.822270025 c 0,53,54
 81 615 81 615 68.3175828446 601.442933386 c 0,55,56
 52 584 52 584 49.6648546047 576.994563814 c 0,57,58
 48 572 48 572 46.6623629522 582.701096383 c 0,59,60
 46 588 46 588 46 593.975051614 c 0,61,62
 46 616 46 616 52.7781863807 636.334559142 c 0,63,64
 66 676 66 676 97.6113431509 693.440741049 c 0,65,66
 124 708 124 708 164.127412842 708 c 0,67,68
 179 708 179 708 193.746508903 706.467895179 c 0,69,70
 256 700 256 700 285.928739773 670.721885004 c 0,71,72
 302 655 302 655 312.264682072 627.057254359 c 0,73,74
 320 606 320 606 321.804766501 581.936446648 c 0,75,76
 323 566 323 566 323 526 c 0,77,78
 323 526 323 526 323 526 c 0,79,80
 323 490 323 490 315.707527784 459.209561754 c 0,81,82
 296 376 296 376 228.808358474 342.404179237 c 0,83,84
 204 330 204 330 198.53609463 318.161538365 c 0,85,86
 192 304 192 304 187.396837879 242.317627582 c 0,87,88
 182 170 182 170 174.841752864 170 c 0,89,90
 174 170 174 170 173.331738624 170.668261376 c 0,91,92
 166 178 166 178 148.06201353 215.986324289 c 0,22,23
EndSplineSet
Validated: 524293
EndChar

StartChar: A
Encoding: 65 65 35
Width: 584
GlyphClass: 1
Flags: W
LayerCount: 2
Fore
SplineSet
494 10 m 1,0,1
 493 12 493 12 487.855723879 18.8590348284 c 0,2,3
 472 40 472 40 464.74632226 55.4140651983 c 0,4,5
 456 74 456 74 435.083131964 97.2409644839 c 0,6,7
 420 114 420 114 415.194286455 125.671018609 c 0,8,9
 413 131 413 131 405.937698977 144.709172573 c 0,10,11
 396 164 396 164 393.525609805 171.423170585 c 0,12,13
 392 176 392 176 388.184380613 182.359365645 c 0,14,15
 386 186 386 186 385.401883814 186.598116186 c 0,16,17
 384 188 384 188 381.230446442 196.308660674 c 0,18,19
 376 212 376 212 371.165908606 212.690584485 c 0,20,21
 369 213 369 213 353.987929164 213 c 0,22,23
 327 213 327 213 311.015412572 213.444016317 c 0,24,25
 291 214 291 214 268 214 c 0,26,27
 268 214 268 214 253.298221281 213.387425887 c 0,28,29
 244 213 244 213 230.734039894 213.663298005 c 0,30,31
 224 214 224 214 200 214 c 0,32,33
 200 214 200 214 200 214 c 0,34,35
 190 214 190 214 186 206 c 1,36,-1
 186 205 l 1,37,38
 183 200 183 200 176.449909933 183.922506199 c 0,39,40
 172 173 172 173 167.835323589 164.075693406 c 0,41,42
 165 158 165 158 162.697069917 152.4729678 c 0,43,44
 160 146 160 146 157.452583665 140.905167329 c 128,-1,45
 155 136 155 136 155 135.394359412 c 0,46,47
 155 134 155 134 150.523275268 124.013460212 c 0,48,49
 129 76 129 76 85.3497435294 30.7330673638 c 0,50,51
 75 20 75 20 72.9281286766 15.8562573532 c 0,52,53
 72 14 72 14 70.3792208195 12.3792208195 c 0,54,55
 68 10 68 10 67.2455766644 8.74262777398 c 0,56,57
 65 5 65 5 64.1820424502 5.27265251659 c 0,58,59
 62 6 62 6 57.314291276 33.177110599 c 0,60,61
 52 64 52 64 52 79.4945689008 c 0,62,63
 52 89 52 89 53.9037679904 96.9323666268 c 0,64,65
 58 114 58 114 77.3512095142 154.739388451 c 0,66,67
 96 194 96 194 109.199923787 231.199785217 c 0,68,69
 118 256 118 256 130.516541272 295.896475306 c 0,70,71
 150 358 150 358 176 433 c 1,72,73
 176 433 176 433 209 528 c 1,74,75
 242 606 242 606 257.052425483 644.168650333 c 0,76,77
 270 677 270 677 274.532481214 676.622293232 c 0,78,79
 282 676 282 676 360.442429127 503.070099426 c 0,80,81
 370 482 370 482 375.398160184 470.712937797 c 0,82,83
 392 436 392 436 403.217492606 398.140962453 c 0,84,85
 408 382 408 382 414.855902729 360.904914681 c 0,86,87
 434 302 434 302 439.185052829 274.519220005 c 0,88,89
 444 249 444 249 464.079004996 195.216950903 c 0,90,91
 472 174 472 174 474.740849791 164.86383403 c 0,92,93
 478 154 478 154 482.361197528 130.324927706 c 0,94,95
 485 116 485 116 486.977672256 104.133966464 c 0,96,97
 492 74 492 74 495.875142835 55.0118001078 c 0,98,99
 502 25 502 25 501.199916075 11.3985732719 c 0,100,101
 501 8 501 8 500 5 c 1,102,-1
 494 10 l 1,0,1
232 295 m 2,103,104
 234 295 234 295 253.882250994 294.585786438 c 0,105,106
 282 294 282 294 306 294 c 0,107,108
 306 294 306 294 314 294 c 1,109,-1
 350 295 l 1,110,-1
 358 295 l 1,111,112
 348 311 348 311 333.137223843 351.459779537 c 0,113,114
 330 360 330 360 327.684883711 366.173643437 c 0,115,116
 312 408 312 408 305.494610275 432.395211469 c 0,117,118
 296 468 296 468 282 489 c 1,119,-1
 281 488 l 1,120,121
 267 458 267 458 261 440 c 2,122,123
 261 440 261 440 260.999998092 439.999994276 c 0,124,125
 243 386 243 386 240.797959024 379.944387315 c 0,126,127
 239 375 239 375 211 295 c 1,128,-1
 232 295 l 2,103,104
EndSplineSet
Validated: 524325
EndChar

StartChar: B
Encoding: 66 66 36
Width: 525
GlyphClass: 1
Flags: W
LayerCount: 2
Fore
SplineSet
95.8235017951 601.847878753 m 0,0,1
 76 608 76 608 76 625.278385517 c 0,2,3
 76 632 76 632 79.7987897261 640.547276884 c 0,4,5
 84 650 84 650 90.7861509919 655.220116148 c 0,6,7
 97 660 97 660 109.810485242 661.348472131 c 0,8,9
 116 662 116 662 122.414985015 663.603746254 c 0,10,11
 132 666 132 666 144.467403219 668.20012998 c 0,12,13
 183 675 183 675 232 675 c 0,14,15
 232 675 232 675 238.007125178 674.906138669 c 0,16,17
 296 674 296 674 334.890730101 659.415976212 c 0,18,19
 408 632 408 632 430.268071475 551.374223969 c 0,20,21
 437 527 437 527 437 504.81190455 c 0,22,23
 437 490 437 490 432.869987658 471.978127962 c 0,24,25
 426 442 426 442 410.833433329 421.958465471 c 0,26,27
 398 405 398 405 368.044059661 391.784143968 c 0,28,29
 364 390 364 390 361.285899661 388.914359864 c 0,30,31
 354 386 354 386 346.631968812 384.157992203 c 0,32,33
 338 382 338 382 329.899275548 377.949637774 c 0,34,35
 326 376 326 376 325 376 c 1,36,37
 325 375 325 375 336.402810198 370.75189424 c 0,38,39
 376 356 376 356 399.130421265 335.760881394 c 0,40,41
 424 314 424 314 446.27588504 262.487015845 c 0,42,43
 456 240 456 240 461.053762635 223.575271437 c 0,44,45
 468 201 468 201 468 183.60143796 c 0,46,47
 468 177 468 177 467.043892509 169.112113198 c 0,48,49
 464 144 464 144 453.985976505 123.018236487 c 0,50,51
 443 100 443 100 427.173624534 83.4375140469 c 0,52,53
 400 55 400 55 348.933141152 34.2841987694 c 0,54,55
 294 12 294 12 216.152315674 5.83384678604 c 0,56,57
 193 4 193 4 175.74320409 4 c 0,58,59
 163 4 163 4 155.554300616 5.98551983586 c 128,-1,60
 148 8 148 8 133.95224423 9.52692997495 c 0,61,62
 102 13 102 13 98.8120903034 19.907137676 c 0,63,64
 96 26 96 26 92.2208808138 71.3494302348 c 0,65,66
 88 122 88 122 88 157.537517103 c 0,67,68
 88 182 88 182 92.7679046659 253.518569988 c 0,69,70
 94 272 94 272 94.8243863119 281.892635743 c 0,71,72
 96 296 96 296 96.5543020775 309.30324986 c 0,73,74
 97 320 97 320 97 328.407098215 c 0,75,76
 97 341 97 341 95.723878281 355.675399769 c 0,77,78
 95 364 95 364 95 374.147133186 c 0,79,80
 95 398 95 398 98.6083116355 435.686810415 c 0,81,82
 104 492 104 492 104.691535109 560.461975839 c 0,83,84
 105 591 105 591 106 595 c 1,85,86
 105 599 105 599 95.8235017951 601.847878753 c 0,0,1
215 68 m 1,87,88
 108 34 108 34 108 33.3671053887 c 0,89,90
 108 33 108 33 157.917048385 48.0485219397 c 0,91,92
 244 74 244 74 251.002861248 75.4005722496 c 0,93,94
 254 76 254 76 261.215559345 76.5550430265 c 0,95,96
 280 78 280 78 306.134407349 82.5232628103 c 0,97,98
 332 87 332 87 338.940831246 89.4292909361 c 0,99,100
 352 94 352 94 365.486832661 110.858540826 c 0,101,102
 388 139 388 139 388.906942682 174.370764593 c 0,103,104
 389 178 389 178 389 181.84149177 c 0,105,106
 389 210 389 210 379.293437993 229.413124013 c 0,107,108
 378 232 378 232 375.977162054 235.708536234 c 0,109,110
 372 243 372 243 370.223653381 246.441671574 c 0,111,112
 356 274 356 274 323.841981108 299.16714522 c 0,113,114
 310 310 310 310 297.463203183 315.571909696 c 0,115,116
 292 318 292 318 282.529515098 321.443812692 c 0,117,118
 270 326 270 326 265.407091045 327.275808043 c 0,119,120
 252 331 252 331 217.217775471 331 c 0,121,122
 186 331 186 331 182.904930603 327.904930603 c 128,-1,123
 180 325 180 325 182.319987002 306.053439484 c 0,124,125
 186 276 186 276 186 187.916577163 c 0,126,127
 186 142 186 142 184.647003439 134.558518915 c 0,128,129
 184 131 184 131 184 123.386265469 c 0,130,131
 184 110 184 110 181.802146924 99.0107346207 c 0,132,133
 180 90 180 90 180 79.6842928453 c 0,134,135
 180 72 180 72 180.878958803 71.1210411972 c 0,136,137
 182 70 182 70 198.320613382 68.7910656754 c 0,138,139
 209 68 209 68 215 68 c 1,87,88
178 484.5 m 128,-1,141
 178 387 178 387 180 387 c 2,142,143
 180 387 180 387 186.165994291 388.141850795 c 0,144,145
 207 392 207 392 226.659810872 398.740506585 c 0,146,147
 242 404 242 404 256.352176593 410.560995014 c 0,148,149
 277 420 277 420 298.469824241 427.380252083 c 0,150,151
 341 442 341 442 353.765385211 454.765385211 c 0,152,153
 367 468 367 468 366.175670264 496.851540748 c 0,154,155
 366 503 366 503 365.7677357 508.458211054 c 0,156,157
 364 550 364 550 337.751662373 578.530801769 c 0,158,159
 318 600 318 600 280.852797047 610.513359326 c 0,160,161
 265 615 265 615 254 615 c 0,162,163
 254 615 254 615 252.209189666 614.850765806 c 0,164,165
 242 614 242 614 176 598 c 0,166,167
 176 598 176 598 176 598 c 1,168,-1
 176 590 l 1,169,140
 178 582 178 582 178 484.5 c 128,-1,141
EndSplineSet
Validated: 524325
EndChar

StartChar: C
Encoding: 67 67 37
Width: 558
GlyphClass: 1
Flags: W
LayerCount: 2
Fore
SplineSet
365 7 m 1,0,1
 329 9 329 9 293.420863658 18.1698805005 c 0,2,3
 232 34 232 34 180.499893986 75.2000848108 c 0,4,5
 152 98 152 98 130.638078522 131.229655633 c 0,6,7
 125 140 125 140 120.472105726 148.552689184 c 128,-1,8
 116 157 116 157 112.710741795 162.207992158 c 0,9,10
 104 176 104 176 90.5526559961 204.872238597 c 0,11,12
 70 249 70 249 63.4270532693 273.883298338 c 0,13,14
 56 302 56 302 56 347.291551343 c 0,15,16
 56 388 56 388 61.8664417639 412.932377496 c 0,17,18
 68 439 68 439 82.8642208685 469.100047259 c 0,19,20
 108 520 108 520 150.473794633 565.581633264 c 0,21,22
 190 608 190 608 245.241245512 641.270295593 c 0,23,24
 278 661 278 661 299.461227994 666.901837698 c 0,25,26
 318 672 318 672 354.140653953 674.780050304 c 0,27,28
 370 676 370 676 381.241592334 676 c 0,29,30
 404 676 404 676 423.581468441 669.472843853 c 0,31,32
 440 664 440 664 462.265569162 651.415113082 c 0,33,34
 486 638 486 638 493.69663753 628.527215348 c 0,35,36
 499 622 499 622 489.053939576 622.765081571 c 0,37,38
 486 623 486 623 480.280671241 623.714916095 c 0,39,40
 462 626 462 626 442.434845632 627.222822148 c 0,41,42
 430 628 430 628 422.871353481 628 c 0,43,44
 400 628 400 628 374.049676783 621.687759217 c 0,45,46
 326 610 326 610 283.769565617 575.221995214 c 0,47,48
 258 554 258 554 230.374655048 521.845909973 c 0,49,50
 197 483 197 483 180.883650922 453.659979884 c 0,51,52
 158 412 158 412 157.085969322 365.38443544 c 0,53,54
 157 361 157 361 157 356.510571104 c 0,55,56
 157 316 157 316 163.064792368 286.888996634 c 0,57,58
 172 244 172 244 207.338809561 185.943384292 c 0,59,60
 228 152 228 152 242.421228627 137.578771373 c 0,61,62
 258 122 258 122 299.628349712 96.303487832 c 0,63,64
 339 72 339 72 361.70834384 66.9537013689 c 0,65,66
 366 66 366 66 373.249707719 63.7693207019 c 0,67,68
 379 62 379 62 380.556075969 61.3775696125 c 0,69,70
 384 60 384 60 398.394280719 56.9155112745 c 0,71,72
 412 54 412 54 424 52 c 2,73,-1
 436 50 l 2,74,75
 458 45 458 45 477.882250994 44.1715728753 c 0,76,77
 506 43 506 43 513.571866612 34.9548917244 c 0,78,79
 522 26 522 26 501.434638085 18.5964697105 c 0,80,81
 472 8 472 8 401 7 c 1,82,-1
 365 7 l 1,0,1
EndSplineSet
Validated: 524289
EndChar

StartChar: D
Encoding: 68 68 38
Width: 570
GlyphClass: 1
Flags: W
LayerCount: 2
Fore
SplineSet
82.2084247883 55.4589735179 m 0,0,1
 84 68 84 68 85.5287836646 111.825131718 c 0,2,3
 87 154 87 154 87.6032549038 205.879921727 c 0,4,5
 88 240 88 240 88 272.534863297 c 0,6,7
 88 362 88 362 85.2792543186 399.546290403 c 0,8,9
 83 431 83 431 83.7144002347 481.722416661 c 0,10,11
 84 502 84 502 84 528.876694635 c 0,12,13
 84 600 84 600 86.6138928312 610.455571325 c 0,14,15
 88 616 88 616 83.0004901447 618.22200438 c 0,16,17
 79 620 79 620 73.1799918414 618.412725048 c 0,18,19
 68 617 68 617 59.7241711964 616.3103476 c 0,20,21
 44 615 44 615 43.317032077 619.780775461 c 0,22,23
 43 622 43 622 45.7589653575 624.758965358 c 0,24,25
 49 628 49 628 51.3311853077 632.662370615 c 0,26,27
 56 642 56 642 67.8392616386 653.365691173 c 0,28,29
 81 666 81 666 89.5917518415 670.124040884 c 0,30,31
 106 678 106 678 153.812482092 678 c 0,32,33
 202 678 202 678 235.486463798 665.823104073 c 0,34,35
 246 662 246 662 263.212419856 657.347994633 c 0,36,37
 283 652 283 652 293.044363122 648.828095856 c 0,38,39
 340 634 340 634 386.284239544 596.023188066 c 0,40,41
 418 570 418 570 440.152726993 541.105138705 c 0,42,43
 464 510 464 510 481.083013688 469.427842492 c 0,44,45
 496 434 496 434 501.395211423 402.707773748 c 0,46,47
 506 376 506 376 506 339.165324038 c 0,48,49
 506 322 506 322 504.874743882 299.213563619 c 0,50,51
 502 241 502 241 495.060519411 212.708271444 c 0,52,53
 489 188 489 188 471.994640164 166.913353804 c 0,54,55
 464 157 464 157 458.703039527 146.406079053 c 0,56,57
 437 103 437 103 342.937909034 51.9377220468 c 0,58,59
 297 27 297 27 271.430742704 23.54469496 c 0,60,61
 260 22 260 22 241.443809584 17.360952396 c 0,62,63
 196 6 196 6 172.092845729 6 c 0,64,65
 165 6 165 6 156.656541152 6 c 0,66,67
 138 6 138 6 122.808821988 8.76203236585 c 0,68,69
 94 14 94 14 85.4457509736 29.8864624777 c 0,70,71
 80 40 80 40 82.2084247883 55.4589735179 c 0,0,1
167 70 m 1,72,73
 175 71 175 71 178.793224787 71.5747310283 c 0,74,75
 208 76 208 76 253.713909084 94.6587384015 c 0,76,77
 306 116 306 116 337.976521038 137.76179904 c 0,78,79
 378 165 378 165 396.098847228 207.230643532 c 0,80,81
 405 228 405 228 418.853578725 276.744073291 c 0,82,83
 432 323 432 323 432 332.436968163 c 128,-1,84
 432 342 432 342 420.377551116 384.185184838 c 0,85,86
 405 440 405 440 392.442208286 467.299547204 c 0,87,88
 382 490 382 490 366.407122988 511.830027816 c 0,89,90
 342 546 342 546 316.251775349 561.55621906 c 0,91,92
 294 575 294 575 249.659915697 587.373977015 c 0,93,94
 208 599 208 599 188.846066445 598.201919435 c 0,95,96
 184 598 184 598 179.597000224 598 c 0,97,98
 160 598 160 598 160 592.376531173 c 0,99,100
 160 590 160 590 162.226165398 575.370913098 c 0,101,102
 167 544 167 544 170.413496984 525.495253191 c 0,103,104
 186 441 186 441 186 272.396035954 c 0,105,106
 186 212 186 212 182.729012938 185.014356741 c 0,107,108
 182 179 182 179 180.453100189 168.558426272 c 0,109,110
 178 152 178 152 176.819427298 140.78455933 c 0,111,112
 176 133 176 133 175.125845335 122.801528906 c 0,113,114
 173 98 173 98 170 84 c 0,115,116
 170 84 170 84 167 70 c 1,72,73
EndSplineSet
Validated: 524321
EndChar

StartChar: E
Encoding: 69 69 39
Width: 497
GlyphClass: 1
Flags: W
LayerCount: 2
Fore
SplineSet
178 284 m 2,0,-1
 172 284 l 1,1,-1
 171 209 l 1,2,3
 171 134 171 134 165.233396091 96.5170745886 c 0,4,5
 163 82 163 82 163.92610559 81.0738944102 c 0,6,7
 166 79 166 79 246.697807823 77.1233067948 c 0,8,9
 338 75 338 75 358.625171341 71.4642563415 c 0,10,11
 373 69 373 69 397.319242253 60.5693293521 c 0,12,13
 448 43 448 43 453.750760599 27.0256650027 c 0,14,15
 457 18 457 18 444.924978234 12.1861006312 c 0,16,17
 430 5 430 5 349.392411957 1.44378288047 c 0,18,19
 294 -1 294 -1 237.745981775 -1 c 0,20,21
 108 -1 108 -1 97.0175105686 9.43336495981 c 0,22,23
 88 18 88 18 88 133.77923835 c 0,24,25
 88 181 88 181 86.1797045347 201.630015274 c 0,26,27
 85 215 85 215 84.2988343984 250.759445681 c 0,28,29
 84 266 84 266 83.8672977976 275.023749765 c 0,30,31
 83 334 83 334 79.4186910764 355.487853542 c 0,32,33
 76 376 76 376 73.4137192425 423.199623825 c 0,34,35
 68 522 68 522 54 594 c 2,36,-1
 52 608 l 1,37,-1
 56 619 l 1,38,39
 66 648 66 648 94.4158708396 653.327975782 c 0,40,41
 98 654 98 654 104.308949463 655.752485962 c 0,42,43
 116 659 116 659 121.666281422 660.349114624 c 0,44,45
 158 669 158 669 192.356840449 668.219162717 c 0,46,47
 202 668 202 668 207.952675988 668 c 0,48,49
 252 668 252 668 353.757533173 648.617612729 c 0,50,51
 378 644 378 644 384.643450031 642.977930764 c 0,52,53
 404 640 404 640 422.289497695 628.569063941 c 0,54,55
 436 620 436 620 439.013639519 612.968174455 c 128,-1,56
 442 606 442 606 437.180598536 602.46577226 c 0,57,58
 427 595 427 595 348.868849175 590.480016068 c 0,59,60
 306 588 306 588 270.644301434 584.211889439 c 0,61,62
 222 579 222 579 175.455120647 569.580202988 c 0,63,64
 138 562 138 562 138 557.126224389 c 0,65,66
 138 556 138 556 138.896415174 553.086650683 c 0,67,68
 142 543 142 543 145.51447586 519.716597428 c 0,69,70
 150 490 150 490 155.113916328 469.544334687 c 0,71,72
 163 438 163 438 165.609347026 400.425402828 c 0,73,74
 168 366 168 366 172.529874214 363.735062893 c 0,75,76
 174 363 174 363 181.310744054 362.634462797 c 0,77,78
 194 362 194 362 214.013003384 364.070310695 c 0,79,80
 223 365 223 365 231.491725391 365 c 0,81,82
 262 365 262 365 301.859095639 350.195193049 c 0,83,84
 332 339 332 339 340.385567029 329.042139153 c 0,85,86
 348 320 348 320 337.881904635 310.41443597 c 0,87,88
 329 302 329 302 311.298917203 297.215923568 c 0,89,90
 292 292 292 292 251.705668104 290.111203192 c 0,91,92
 228 289 228 289 202.755862248 286.064635145 c 0,93,94
 185 284 185 284 178 284 c 2,0,-1
EndSplineSet
Validated: 524321
EndChar

StartChar: F
Encoding: 70 70 40
Width: 486
GlyphClass: 1
Flags: W
LayerCount: 2
Fore
SplineSet
92.3705938806 662.206067411 m 0,0,1
 96 663 96 663 101.0512935 663.797572658 c 0,2,3
 115 666 115 666 124.779684689 668.328496354 c 0,4,5
 157 676 157 676 202.319394914 676 c 0,6,7
 259 676 259 676 352.81863409 657.078594805 c 0,8,9
 378 652 378 652 386.558765795 650.777319172 c 0,10,11
 406 648 406 648 424.047245086 637.062275706 c 0,12,13
 439 628 439 628 441.706528695 619.339108176 c 0,14,15
 444 612 444 612 439.537238822 608.812313445 c 0,16,17
 430 602 430 602 345.154636555 596.612992797 c 0,18,19
 304 594 304 594 272.862757951 590.886275795 c 0,20,21
 224 586 224 586 180.464098828 577.900297456 c 0,22,23
 138 570 138 570 138 563.426578091 c 0,24,25
 138 562 138 562 138.981298374 558.810780284 c 0,26,27
 142 549 142 549 145.469336313 526.015646927 c 0,28,29
 150 496 150 496 155.57293062 472.912144575 c 0,30,31
 164 438 164 438 166.391639855 397.342122457 c 0,32,33
 168 370 168 370 170.778752605 367.915935546 c 0,34,35
 172 367 172 367 179.264839269 367 c 0,36,37
 190 367 190 367 210.522747487 368.986072337 c 0,38,39
 221 370 221 370 222.576495872 370 c 0,40,41
 228 370 228 370 270.787090403 359.699404162 c 0,42,43
 336 344 336 344 345.335607062 329.996589407 c 0,44,45
 350 323 350 323 342.746008977 315.292634538 c 0,46,47
 334 306 334 306 313.198456681 300.326851822 c 0,48,49
 290 294 290 294 237.402796267 291.86768093 c 0,50,51
 216 291 216 291 199.267005764 289.326700576 c 0,52,53
 186 288 186 288 178 288 c 2,54,-1
 172 288 l 1,55,-1
 172 213 l 2,56,57
 172 143 172 143 165.422947855 96.9606349874 c 0,58,59
 163 80 163 80 162.716482086 72.6285342289 c 0,60,61
 162 54 162 54 150 36 c 1,62,-1
 146 26 l 2,63,64
 139 14 139 14 127.249308841 9.59349081538 c 0,65,66
 115 5 115 5 110.036092193 14.3762703012 c 0,67,68
 106 22 106 22 101.722556988 56.2195440937 c 0,69,70
 100 70 100 70 94.0000003063 109.999997958 c 0,71,72
 94 110 94 110 93.9999998469 110.00000102 c 0,73,74
 88 150 88 150 88 182.664694246 c 0,75,76
 88 196 88 196 86.6775195114 210.547285375 c 0,77,78
 86 218 86 218 85.5293619594 226.471484731 c 0,79,80
 85 236 85 236 84.6134606529 238.319236083 c 0,81,82
 84 242 84 242 83.4102571404 264.410228665 c 0,83,84
 83 280 83 280 82.6041396067 291.282021208 c 0,85,86
 81 337 81 337 78.7882671868 356.020902193 c 0,87,88
 76 380 76 380 73.7794871512 421.079487703 c 0,89,90
 68 528 68 528 54 600 c 1,91,-1
 51 615 l 1,92,93
 50 616 50 616 54 626 c 2,94,95
 64 656 64 656 92.3705938806 662.206067411 c 0,0,1
EndSplineSet
Validated: 524289
EndChar

StartChar: G
Encoding: 71 71 41
Width: 674
GlyphClass: 1
Flags: W
LayerCount: 2
Fore
SplineSet
255 144 m 1,0,1
 269 134 269 134 282.663799952 124.890800032 c 0,2,3
 329 94 329 94 341.674734558 94 c 0,4,5
 352 94 352 94 386.853942015 106.759032345 c 0,6,7
 464 135 464 135 510.517877248 180.742579294 c 0,8,9
 524 194 524 194 524 198.518981106 c 0,10,11
 524 202 524 202 512.587596339 209.846027517 c 0,12,13
 508 213 508 213 504.009485258 215.916145388 c 0,14,15
 482 232 482 232 461.27027083 241.932995227 c 0,16,17
 434 255 434 255 408.792638018 255 c 0,18,19
 394 255 394 255 379.117990185 248.621995794 c 0,20,21
 373 246 373 246 350.93035174 235.26341436 c 0,22,23
 336 228 336 228 333.552334459 226.870308212 c 0,24,25
 323 222 323 222 316.674089666 224.232674235 c 0,26,27
 306 228 306 228 313.101369015 250.318588333 c 0,28,29
 320 272 320 272 340.110130688 297.931484308 c 0,30,31
 358 321 358 321 378.101412679 330.648678086 c 0,32,33
 383 333 383 333 385.81842939 334.793545976 c 0,34,35
 394 340 394 340 405.414325598 343.170645999 c 0,36,37
 430 350 430 350 475.624422615 350 c 0,38,39
 528 350 528 350 563.503068676 335.47601736 c 0,40,41
 572 332 572 332 577.796621493 330.136800234 c 0,42,43
 600 323 600 323 608.686568085 308.341416356 c 0,44,45
 616 296 616 296 616 273.436869436 c 0,46,47
 616 253 616 253 609.553466316 226.676654123 c 0,48,49
 604 204 604 204 591.677171556 177.043812779 c 0,50,51
 588 169 588 169 585.70621751 163.265543776 c 0,52,53
 582 154 582 154 579.270116791 147.85776278 c 0,54,55
 558 100 558 100 516.34465615 60.2821140035 c 0,56,57
 472 18 472 18 420.059431173 9.46182430234 c 0,58,59
 399 6 399 6 369.734960425 6.79094701554 c 0,60,61
 362 7 362 7 357.881419403 7.10296451493 c 0,62,63
 322 8 322 8 298.414959453 13.8962601367 c 0,64,65
 266 22 266 22 233.846045435 40.5234738253 c 0,66,67
 174 75 174 75 133.286514471 134.300076749 c 0,68,69
 128 142 128 142 123.344966835 149.448053063 c 0,70,71
 118 158 118 158 114.920755709 163.542639725 c 0,72,73
 108 176 108 176 100.716728171 190.994971413 c 0,74,75
 74 246 74 246 67.0826797949 273.669280821 c 0,76,77
 62 294 62 294 58.4590682305 337.907553942 c 0,78,79
 57 356 57 356 56.6171124685 369.783951134 c 0,80,81
 56 392 56 392 58.9029760885 406.514880443 c 0,82,83
 64 432 64 432 84.3178371514 467.556215015 c 0,84,85
 112 516 112 516 162.214092255 562.142679369 c 0,86,87
 186 584 186 584 210.66982106 598.951406703 c 0,88,89
 219 604 219 604 230.63843983 612.215369292 c 0,90,91
 236 616 236 616 242.959224972 620.794132759 c 0,92,93
 326 678 326 678 394.00830323 678 c 0,94,95
 403 678 403 678 419.407814182 675.859850324 c 0,96,97
 426 675 426 675 437.837955722 673.579445313 c 0,98,99
 451 672 451 672 457.197405701 670.450648575 c 0,100,101
 463 669 463 669 468.949792581 669.540890235 c 0,102,103
 474 670 474 670 481.600346665 666.199826667 c 0,104,105
 486 664 486 664 494 661 c 1,106,107
 494 661 494 661 495 653 c 1,108,109
 488 643 488 643 451.489337373 630.642544957 c 0,110,111
 423 621 423 621 383.384342523 602.54887186 c 0,112,113
 350 587 350 587 334.88483141 581.401789411 c 0,114,115
 296 567 296 567 250.536967148 527.880646151 c 0,116,117
 210 493 210 493 188.425468461 457.231697711 c 0,118,119
 172 430 172 430 165.105828217 401.274284238 c 0,120,121
 160 380 160 380 160 355.397738258 c 0,122,123
 160 340 160 340 162.341742545 320.095188364 c 0,124,125
 168 272 168 272 194.443662169 222.317968046 c 0,126,127
 201 210 201 210 215 186 c 1,128,129
 214 186 214 186 228 165 c 1,130,-1
 255 144 l 1,0,1
EndSplineSet
Validated: 524321
EndChar

StartChar: H
Encoding: 72 72 42
Width: 567
GlyphClass: 1
Flags: W
LayerCount: 2
Fore
SplineSet
81 82 m 1,0,1
 79 86 79 86 79 107.71825393 c 0,2,3
 79 132 79 132 76.2592703811 170.918360589 c 0,4,5
 74 203 74 203 74 222.816278998 c 0,6,7
 74 236 74 236 73.1945657852 257.746723799 c 0,8,9
 72 290 72 290 72 315.284146325 c 0,10,11
 72 348 72 348 70.5108519791 401.11294608 c 0,12,13
 69 455 69 455 69 491.392530305 c 0,14,15
 69 521 69 521 70 552 c 1,16,-1
 70 580 l 2,17,18
 70 613 70 613 74.6238904359 653.29390237 c 0,19,20
 77 674 77 674 77.6981448576 674 c 0,21,22
 79 674 79 674 92.7758525543 639.797883313 c 0,23,24
 137 530 137 530 142.358454808 465.698542303 c 0,25,26
 144 446 144 446 148.241673876 428.609137108 c 0,27,28
 154 405 154 405 155 377 c 1,29,-1
 156 366 l 1,30,-1
 199 365 l 1,31,32
 269 365 269 365 284.707965942 363.254670451 c 0,33,34
 296 362 296 362 348 362 c 0,35,36
 348 362 348 362 348 362 c 0,37,38
 384 362 384 362 394 364 c 1,39,-1
 402 365 l 1,40,41
 402 366 402 366 403 386 c 2,42,43
 403 393 403 393 405.401161541 410.768595407 c 0,44,45
 408 430 408 430 410.127745039 454.469067949 c 0,46,47
 412 476 412 476 416.591525704 517.979663583 c 0,48,49
 419 540 419 540 419.935344528 547.794537736 c 0,50,51
 422 565 422 565 424.966874059 580.328849304 c 0,52,53
 428 596 428 596 429.389557274 612.674687292 c 0,54,55
 430 620 430 620 430.582643724 628.157012132 c 0,56,57
 434 676 434 676 438.430879177 676 c 0,58,59
 440 676 440 676 442.192075901 673.608644472 c 0,60,61
 451 664 451 664 463.47802191 614.087912362 c 0,62,63
 470 588 470 588 473.768845522 564.130645027 c 0,64,65
 476 550 476 550 478.133245523 539.333772384 c 0,66,67
 484 510 484 510 486.444860792 469.659796936 c 0,68,69
 488 444 488 444 489.443567626 429.083134535 c 0,70,71
 494 382 494 382 494 319.350023253 c 0,72,73
 494 290 494 290 492.868115496 246.422446604 c 0,74,75
 492 213 492 213 492 182.808213652 c 0,76,77
 492 118 492 118 497.292665057 93.8049597379 c 0,78,79
 499 86 499 86 499.433758898 78.1923398388 c 0,80,81
 500 68 500 68 496.835374012 55.3414960483 c 0,82,83
 494 44 494 44 487.877891259 30.6426718388 c 0,84,85
 483 20 483 20 481.140183507 20 c 0,86,87
 480 20 480 20 478.765770232 18.354360309 c 0,88,89
 474 12 474 12 459.317682723 12 c 0,90,91
 440 12 440 12 432.680564045 28.1027591005 c 0,92,93
 430 34 430 34 426.056042807 38.9299464913 c 0,94,95
 418 49 418 49 413.361534685 63.7587532743 c 0,96,97
 407 84 407 84 403.879691719 121.443699372 c 0,98,99
 400 168 400 168 400 258 c 1,100,-1
 400 293 l 1,101,-1
 380 294 l 2,102,103
 376 294 376 294 367.50155281 294.472135955 c 0,104,105
 358 295 358 295 349.415325477 295.306595519 c 0,106,107
 330 296 330 296 315.914850062 296 c 0,108,109
 299 296 299 296 289.117314098 296 c 0,110,111
 272 296 272 296 224.000001277 292.000000106 c 0,112,113
 224 292 224 292 190 289 c 1,114,-1
 168 288 l 1,115,-1
 167 234 l 2,116,117
 166 164 166 164 152.984094051 102.748677885 c 0,118,119
 149 84 149 84 146.567955519 69.8499230212 c 0,120,121
 138 20 138 20 124.881558396 9.26672959687 c 0,122,123
 116 2 116 2 104.173616864 10.1874960172 c 0,124,125
 90 20 90 20 85.6454289907 56.5783964779 c 0,126,127
 85 62 85 62 84.0637928835 67.617242699 c 0,128,129
 83 74 83 74 82 78 c 2,130,-1
 81 82 l 1,0,1
EndSplineSet
Validated: 524293
EndChar

StartChar: I
Encoding: 73 73 43
Width: 236
GlyphClass: 1
Flags: W
LayerCount: 2
Fore
SplineSet
68.607910706 228.437223697 m 0,0,1
 68 264 68 264 68 295.984944913 c 0,2,3
 68 354 68 354 71.9576750295 438.43040063 c 0,4,5
 74 482 74 482 74.4527222268 520.934111504 c 0,6,7
 75 568 75 568 77.2530860777 587.827157484 c 0,8,9
 80 612 80 612 92.7146784486 651.299915205 c 0,10,11
 102 680 102 680 107.221081676 685.221081676 c 0,12,13
 110 688 110 688 112.439811556 697.149293336 c 0,14,15
 114 703 114 703 115.392349908 705.32058318 c 0,16,17
 117 708 117 708 119.1180439 706.94097805 c 0,18,19
 121 706 121 706 122.849970943 701.683401134 c 0,20,21
 124 699 124 699 125.484630764 695.231321906 c 0,22,23
 137 666 137 666 139.49329023 636.080517245 c 0,24,25
 140 630 140 630 140.64637471 625.152189675 c 0,26,27
 142 615 142 615 144.48723374 604.636526081 c 0,28,29
 148 590 148 590 149.369762375 580.183369643 c 0,30,31
 154 547 154 547 158.081744527 377.316048959 c 0,32,33
 161 256 161 256 163.862507752 230.237430233 c 0,34,35
 166 211 166 211 167.243772449 153.786467366 c 0,36,37
 168 119 168 119 168 98.8191751907 c 0,38,39
 168 66 168 66 165.14052312 57.4215693611 c 0,40,41
 162 48 162 48 147.397020681 41.2601633914 c 0,42,43
 136 36 136 36 125.484211973 36 c 0,44,45
 119 36 119 36 111.099905027 38.0481727708 c 0,46,47
 92 43 92 43 85.308010596 54.4719818354 c 0,48,49
 78 67 78 67 74.1088386837 105.911613163 c 0,50,51
 70 147 70 147 68.607910706 228.437223697 c 0,0,1
EndSplineSet
Validated: 524289
EndChar

StartChar: J
Encoding: 74 74 44
Width: 383
GlyphClass: 1
Flags: W
LayerCount: 2
Fore
SplineSet
218.064024539 16.5285823834 m 0,0,1
 190 4 190 4 158.811399955 4 c 0,2,3
 150 4 150 4 139.751288694 4 c 0,4,5
 122 4 122 4 113.830003066 5.81555487413 c 0,6,7
 104 8 104 8 89.7223264856 15.1388367572 c 0,8,9
 60 30 60 30 50.4212785647 48.4206181448 c 0,10,11
 47 55 47 55 47.4222817701 61.7565083216 c 0,12,13
 48 71 48 71 55.4855463365 78.4855463365 c 0,14,15
 65 88 65 88 78.0272360373 88 c 0,16,17
 84 88 84 88 92.0537491219 86.0824406853 c 0,18,19
 105 83 105 83 119.954274196 83 c 0,20,21
 132 83 132 83 149.269799141 86.0222148497 c 0,22,23
 172 90 172 90 182.804030227 94.9864754896 c 0,24,25
 198 102 198 102 211.911701429 126.345477501 c 0,26,27
 218 137 218 137 219.591951447 145.755732956 c 0,28,29
 220 148 220 148 223.999999525 166.999997745 c 0,30,31
 224 167 224 167 224.000000091 167.000000432 c 0,32,33
 232 205 232 205 232 316.696311697 c 0,34,35
 232 405 232 405 225.403150137 467.670073694 c 0,36,37
 222 500 222 500 222 530.478412177 c 0,38,39
 222 547 222 547 220.630385759 562.06575665 c 0,40,41
 220 569 220 569 219.28088501 574.393362428 c 0,42,43
 218 584 218 584 218 588.000987466 c 0,44,45
 218 598 218 598 223.435230743 621.7791345 c 0,46,47
 234 668 234 668 241.999949681 668 c 0,48,49
 248 668 248 668 260.524914507 640.340813797 c 0,50,51
 272 615 272 615 278.291090203 591.183729945 c 0,52,53
 286 562 286 562 293.926531981 492.82299362 c 0,54,55
 297 466 297 466 297.880114837 463.35965549 c 0,56,57
 299 460 299 460 302.422673103 428.055051035 c 0,58,59
 308 376 308 376 311.666808395 358.582660123 c 0,60,61
 316 338 316 338 318.119991419 296.306835419 c 0,62,63
 319 279 319 279 319 262.839027512 c 0,64,65
 319 233 319 233 316.261751471 204.167853725 c 0,66,67
 302 54 302 54 218.064024539 16.5285823834 c 0,0,1
EndSplineSet
Validated: 524289
EndChar

StartChar: K
Encoding: 75 75 45
Width: 457
GlyphClass: 1
Flags: W
LayerCount: 2
Fore
SplineSet
160.008929283 297.504464642 m 128,-1,1
 159 297 159 297 160.095118525 287.143933274 c 0,2,3
 162 270 162 270 163.229242628 236.195827731 c 0,4,5
 164 215 164 215 164 201.016129285 c 0,6,7
 164 162 164 162 157.55117825 95.6692620044 c 0,8,9
 150 18 150 18 141.3699634 7.93162396694 c 0,10,11
 138 4 138 4 128.933583583 1.35562854507 c 0,12,13
 114 -3 114 -3 100.810199862 1.9461750519 c 0,14,15
 90 6 90 6 86.0966591926 14.9219218455 c 0,16,17
 83 22 83 22 83 40.5472344614 c 0,18,19
 83 48 83 48 83.5771648175 54.9259778104 c 0,20,21
 84 60 84 60 84 64 c 2,22,-1
 84 68 l 1,23,24
 85 69 85 69 86.6579832434 158.531095145 c 0,25,26
 88 231 88 231 88 289 c 0,27,28
 88 289 88 289 86.9045434642 308.718217645 c 0,29,30
 86 325 86 325 84.9725600614 345.291938788 c 0,31,32
 82 404 82 404 80.3858094071 414.492238854 c 0,33,34
 80 417 80 417 79.5867506269 421.545743104 c 0,35,36
 79 428 79 428 78.3534705028 432.848971229 c 0,37,38
 77 443 77 443 76.3379518318 453.923794776 c 0,39,40
 75 476 75 476 69.7592789359 504.532814682 c 0,41,42
 66 525 66 525 64.0480663482 543.05538628 c 0,43,44
 62 562 62 562 59.2971211619 572.811515353 c 0,45,46
 56 586 56 586 52.4783349096 612.160940672 c 0,47,48
 49 638 49 638 49 649.925137739 c 0,49,50
 49 661 49 661 52.9554399451 665.8344266 c 0,51,52
 58 672 58 672 68.7521880488 665.548687171 c 0,53,54
 78 660 78 660 89.1329917572 647.011509617 c 0,55,56
 102 632 102 632 108.709502436 616.344494317 c 0,57,58
 114 604 114 604 124.805354988 569.619325037 c 0,59,60
 136 534 136 534 137.398034954 522.815720371 c 0,61,62
 138 518 138 518 139.924595282 512.226214154 c 0,63,64
 142 506 142 506 142.992004202 499.551972685 c 128,-1,65
 144 493 144 493 147.54000439 476.627479694 c 0,66,67
 152 456 152 456 152 453 c 2,68,69
 152 453 152 453 152 444 c 1,70,71
 153 450 153 450 183 462 c 0,72,73
 198 468 198 468 206.860067232 472.430033616 c 0,74,75
 226 482 226 482 269.416556728 512.917851003 c 0,76,77
 292 529 292 529 310.126784901 540.937151033 c 0,78,79
 333 556 333 556 346.883976373 567.469371787 c 0,80,81
 356 575 356 575 365.63149236 584.63149236 c 0,82,83
 375 594 375 594 382.225743449 600.240414797 c 0,84,85
 397 613 397 613 406.804514071 615.306944487 c 0,86,87
 414 617 414 617 414 612.36574937 c 0,88,89
 414 602 414 602 361.571283088 535.007750612 c 0,90,91
 342 510 342 510 334.676851372 502.153769327 c 0,92,93
 328 495 328 495 316.99137882 480.895204114 c 0,94,95
 296 454 296 454 283.839351298 444.050378334 c 0,96,97
 274 436 274 436 255.937257256 416.432028694 c 0,98,99
 226 384 226 384 212 376 c 1,100,-1
 194 365 l 1,101,102
 194 366 194 366 206 354 c 2,103,104
 228 332 228 332 250.873660135 295.402143785 c 0,105,106
 268 268 268 268 283.39904116 249.359055438 c 0,107,108
 306 222 306 222 329.989451834 182.2674704 c 0,109,110
 370 116 370 116 381.373824466 66.9503819908 c 0,111,112
 386 47 386 47 385.405559763 32.1389940793 c 0,113,114
 385 22 385 22 380.803520667 15.1330338194 c 0,115,116
 374 4 374 4 359.493743445 4.45332051735 c 0,117,118
 342 5 342 5 326.981139283 20.9575395121 c 0,119,120
 310 39 310 39 285.445823475 89.7097123889 c 0,121,122
 264 134 264 134 219.531754769 206.898762674 c 0,123,124
 203 234 203 234 199.346087306 241.307825389 c 0,125,126
 196 248 196 248 185.272534944 264.091197583 c 0,127,128
 176 278 176 278 168.803338971 287.595548039 c 0,129,0
 161 298 161 298 160.008929283 297.504464642 c 128,-1,1
EndSplineSet
Validated: 524325
EndChar

StartChar: L
Encoding: 76 76 46
Width: 492
GlyphClass: 1
Flags: W
LayerCount: 2
Fore
SplineSet
171 94 m 2,0,-1
 171 86 l 1,1,2
 172 86 172 86 176 86 c 1,3,4
 195 88 195 88 209.058874503 88 c 0,5,6
 219 88 219 88 223.889510123 88.2125873966 c 0,7,8
 242 89 242 89 270.767858968 84.8155841501 c 0,9,10
 297 81 297 81 317.834671241 79.4680388794 c 0,11,12
 365 76 365 76 402.339582039 63.8767590781 c 0,13,14
 442 51 442 51 446.777170609 31.2088646215 c 0,15,16
 449 22 449 22 443.593401729 12.1698213251 c 0,17,18
 438 2 438 2 432.638996356 -0.345439094465 c 0,19,20
 422 -5 422 -5 330.767053506 -4.12276012987 c 0,21,22
 318 -4 318 -4 267.220182609 -3.52094511896 c 0,23,24
 106 -2 106 -2 82 3 c 1,25,26
 78 7 78 7 76.9473045878 8.84221697143 c 0,27,28
 74 14 74 14 72.354121864 43.0771804034 c 0,29,30
 71 67 71 67 71 120 c 0,31,32
 71 120 71 120 71.2708131846 143.831560242 c 0,33,34
 72 208 72 208 73.635141113 233.072163732 c 0,35,36
 75 254 75 254 74.2989128347 282.043486613 c 0,37,38
 74 294 74 294 74 325 c 0,39,40
 74 325 74 325 74 355.5 c 128,-1,41
 74 386 74 386 74 386 c 0,42,43
 74 504 74 504 75.567186395 516.53749116 c 0,44,45
 76 520 76 520 76.4688327805 532.189652292 c 0,46,47
 77 546 77 546 77.2653476007 555.552513627 c 0,48,49
 79 618 79 618 89.0114316666 653.755113095 c 0,50,51
 93 668 93 668 95.6071164902 668 c 0,52,53
 98 668 98 668 101.64419009 653.42323964 c 0,54,55
 104 644 104 644 106.422006561 639.155986878 c 0,56,57
 108 636 108 636 108.940820951 632.236716195 c 0,58,59
 110 628 110 628 111.491464804 622.886406386 c 0,60,61
 124 580 124 580 130.792393126 492.45359971 c 0,62,63
 133 464 133 464 137.029193311 423.260378747 c 0,64,65
 142 373 142 373 144.865683361 352.940216474 c 0,66,67
 148 331 148 331 148.904673 307.930838508 c 0,68,69
 150 280 150 280 153.604133948 264.68243072 c 0,70,71
 158 246 158 246 159.464103297 205.981176546 c 0,72,73
 161 164 161 164 166.670269185 135.648654073 c 0,74,75
 171 114 171 114 171 94 c 2,0,-1
EndSplineSet
Validated: 524321
EndChar

StartChar: M
Encoding: 77 77 47
Width: 673
GlyphClass: 1
Flags: W
LayerCount: 2
Fore
SplineSet
547.47909383 2.48042643281 m 0,0,1
 540 6 540 6 537.484451238 11.7498257428 c 0,2,3
 533 22 533 22 527.135943144 74.3254304077 c 0,4,5
 520 138 520 138 518.868754985 197.955985771 c 0,6,7
 518 244 518 244 511.529183852 286.869156978 c 0,8,9
 510 297 510 297 507.840651646 313.734949743 c 0,10,11
 506 328 506 328 504.935855417 335.80372694 c 0,12,13
 500 372 500 372 491.925578076 409.007767153 c 0,14,15
 488 427 488 427 487.559083862 431.850077514 c 0,16,17
 487 438 487 438 481.379981648 458.436430369 c 0,18,19
 476 478 476 478 474.113974049 481.300545415 c 0,20,21
 472 485 472 485 468.072023243 475.180058107 c 0,22,23
 466 470 466 470 460.369477784 454.359660512 c 0,24,25
 448 420 448 420 432.734931191 379.401412743 c 0,26,27
 401 295 401 295 382.837145019 241.356219008 c 0,28,29
 358 168 358 168 346.155741985 149.951606834 c 0,30,31
 337 136 337 136 322.801329848 136 c 0,32,33
 319 136 319 136 313.884468074 137.334486589 c 0,34,35
 296 142 296 142 285.027732793 155.50432887 c 0,36,37
 270 174 270 174 240.919392236 243.585740006 c 0,38,39
 214 308 214 308 199.279928004 367.69806976 c 0,40,41
 196 381 196 381 192.888957658 391.888648197 c 0,42,43
 188 409 188 409 183.514045379 419.654142226 c 0,44,45
 180 428 180 428 178.582216343 426.582216343 c 0,46,47
 178 426 178 426 178 424.895371037 c 0,48,49
 178 422 178 422 174.720692245 409.702595917 c 0,50,51
 170 392 170 392 168.21370408 379.942502537 c 0,52,53
 166 365 166 365 162.837176557 329.892659781 c 0,54,55
 156 254 156 254 147.548440422 199.313438022 c 0,56,57
 139 144 139 144 139 108.952364367 c 0,58,59
 139 92 139 92 141.067510511 73.9092830253 c 0,60,61
 143 57 143 57 143 44.6983836324 c 0,62,63
 143 27 143 27 136.10639932 13.8394896108 c 0,64,65
 132 6 132 6 127.183398343 2.62837883994 c 0,66,67
 122 -1 122 -1 112.412723483 -0.360848232178 c 0,68,69
 107 0 107 0 104.176429574 1.21010161098 c 0,70,71
 100 3 100 3 96 9 c 1,72,73
 96 8 96 8 91 14 c 1,74,75
 81 24 81 24 76.7262768082 55.3406367398 c 0,76,77
 75 68 75 68 74.1477012858 72.6267644484 c 0,78,79
 68 106 68 106 66.2252390707 148.594262304 c 0,80,81
 66 154 66 154 65.7098902136 170.536257825 c 0,82,83
 65 211 65 211 68 289 c 1,84,85
 68 289 68 289 74 382 c 1,86,87
 121 666 121 666 123 666 c 2,88,89
 122 666 122 666 135.5 666 c 128,-1,90
 149 666 149 666 149 666 c 0,91,92
 170 666 170 666 186 628 c 1,93,94
 208 580 208 580 222.188052559 553.988570309 c 0,95,96
 232 536 232 536 236.250351577 524.311533163 c 0,97,98
 240 514 240 514 250.083203996 492.153058008 c 0,99,100
 264 462 264 462 271.730102506 438.809692482 c 0,101,102
 274 432 274 432 277.415529855 420.777544762 c 0,103,104
 281 409 281 409 282.843983684 403.468048948 c 0,105,106
 286 394 286 394 289.363018956 386.43320735 c 0,107,108
 294 376 294 376 296.23549825 365.940257873 c 0,109,110
 298 358 298 358 301.545072265 349.728164714 c 0,111,112
 304 344 304 344 309.437117703 333.805404306 c 0,113,114
 312 329 312 329 314 325 c 2,115,116
 314 326 314 326 323 304 c 1,117,-1
 325 316 l 2,118,119
 327 332 327 332 339.781346434 377.647665834 c 0,120,121
 341 382 341 382 349.999999071 411.999996904 c 0,122,123
 350 412 350 412 350.000001025 412.000003417 c 0,124,125
 356 432 356 432 368.934143633 469.570607696 c 0,126,127
 377 493 377 493 387.140558391 521.49014024 c 0,128,129
 398 552 398 552 399.965506163 558.38789503 c 0,130,131
 402 565 402 565 403.657943273 572.816018289 c 0,132,133
 409 598 409 598 422.096317381 627.335750933 c 0,134,135
 434 654 434 654 450 668 c 0,136,137
 450 668 450 668 450 668 c 1,138,139
 457 674 457 674 465.139455461 674 c 0,140,141
 480 674 480 674 497.584352308 656.415647692 c 0,142,143
 530 624 530 624 561.465481685 524.917206609 c 0,144,145
 577 476 577 476 584 420 c 0,146,147
 584 420 584 420 584 420 c 0,148,149
 588 388 588 388 594.538048019 343.868175872 c 0,150,151
 596 334 596 334 598.871201388 315.337190979 c 0,152,153
 606 269 606 269 606 256 c 2,154,155
 606 256 606 256 605.61851286 252.566615743 c 0,156,157
 604 238 604 238 607.320159332 210.885365458 c 0,158,159
 610 189 610 189 610 168.612575696 c 0,160,161
 610 151 610 151 607.778794711 125.82634006 c 0,162,163
 604 83 604 83 594.183294094 59.2762940602 c 0,164,165
 592 54 592 54 589.702956879 46.5346098556 c 0,166,167
 588 41 588 41 586.569962836 35.6373606367 c 0,168,169
 584 26 584 26 582.574275563 21.9604474289 c 0,170,171
 578 9 578 9 567.212325649 3.34931343526 c 0,172,173
 557 -2 557 -2 547.47909383 2.48042643281 c 0,0,1
EndSplineSet
Validated: 524321
EndChar

StartChar: N
Encoding: 78 78 48
Width: 556
GlyphClass: 1
Flags: W
LayerCount: 2
Fore
SplineSet
173 422 m 1,0,1
 171 362 171 362 164.128537625 307.028301004 c 0,2,3
 158 258 158 258 152.104652015 176.447686206 c 0,4,5
 146 92 146 92 139.370455507 63.8244359056 c 0,6,7
 138 58 138 58 135.403024758 43.7166361698 c 0,8,9
 134 36 134 36 133.610586429 33.6635185768 c 0,10,11
 132 24 132 24 129.462786188 18.9255723758 c 0,12,13
 126 12 126 12 119.910933667 7.94062244477 c 0,14,15
 108 0 108 0 97.7404589594 8.9213400353 c 0,16,17
 85 20 85 20 78.9262817528 56.4423094831 c 0,18,19
 74 86 74 86 69.0856755408 150.869082861 c 0,20,21
 64 218 64 218 64 257.48925522 c 0,22,23
 64 275 64 275 65.4341506587 296.870797545 c 0,24,25
 68 336 68 336 68 391 c 1,26,27
 68 392 68 392 74 466 c 1,28,29
 82 529 82 529 83.0751838136 535.988694788 c 0,30,31
 86 555 86 555 98.0017394012 592.033938724 c 0,32,33
 121 663 121 663 132.310315826 672.979690435 c 0,34,35
 138 678 138 678 149.816100002 673.273559999 c 0,36,37
 158 670 158 670 161.172788697 664.288980346 c 0,38,39
 163 661 163 661 168.345791352 653.76745876 c 0,40,41
 180 638 180 638 184.715164002 628.569671995 c 0,42,43
 192 614 192 614 220.292608495 575.283798902 c 0,44,45
 249 536 249 536 293.842537014 466.620980468 c 0,46,47
 302 454 302 454 304.585457986 449.937137451 c 0,48,49
 316 432 316 432 331.824700928 403.317729568 c 0,50,51
 348 374 348 374 354.225881022 365.698825304 c 0,52,53
 360 358 360 358 366.581666019 344.836667962 c 0,54,55
 380 318 380 318 380 334.257611224 c 0,56,57
 380 346 380 346 385.259546399 375.303187079 c 0,58,59
 394 424 394 424 395.342457217 475.013374228 c 0,60,61
 396 500 396 500 398.761197128 511.044788512 c 0,62,63
 400 516 400 516 400.640907137 524.331792781 c 0,64,65
 401 529 401 529 401.679334258 535.453675456 c 0,66,67
 403 548 403 548 404.925266214 562.632023228 c 0,68,69
 408 586 408 586 409.374790894 590.582636314 c 0,70,71
 411 596 411 596 414.560031688 617.907887311 c 0,72,73
 424 676 424 676 433.087997114 695.311993867 c 0,74,75
 440 710 440 710 445.995394457 689.765543708 c 0,76,77
 448 683 448 683 450.811474046 671.519814312 c 0,78,79
 460 634 460 634 464.984589286 594.746359372 c 0,80,81
 468 571 468 571 469.702607423 546.737844217 c 0,82,83
 472 514 472 514 474.215704431 501.813625627 c 0,84,85
 480 470 480 470 480 288.45137226 c 0,86,87
 480 196 480 196 481.814174269 172.415734504 c 0,88,89
 483 157 483 157 483 129.149963554 c 0,90,91
 483 78 483 78 486.837874161 50.3673060411 c 0,92,93
 488 42 488 42 488 35.829203489 c 0,94,95
 488 16 488 16 471.384515572 8.33131487949 c 0,96,97
 462 4 462 4 456.244711707 6.15823311004 c 0,98,99
 446 10 446 10 414.011510061 63.8753514755 c 0,100,101
 408 74 408 74 406.017458455 77.9650830897 c 0,102,103
 405 80 405 80 403.995673075 82.510817312 c 128,-1,104
 403 85 403 85 402 87 c 1,105,-1
 400 89 l 2,106,107
 399 90 399 90 395.055441712 96.7620999228 c 0,108,109
 392 102 392 102 389.516889046 106.469599717 c 0,110,111
 382 120 382 120 380 126 c 2,112,-1
 362 161 l 1,113,114
 358 171 358 171 348.034250166 188.440062209 c 0,115,116
 346 192 346 192 344.271482139 195.072920641 c 0,117,118
 337 208 337 208 334.267368889 213.465262223 c 0,119,120
 328 226 328 226 314.752882276 246.567893308 c 0,121,122
 290 285 290 285 269.546227129 325.462898506 c 0,123,124
 244 376 244 376 213.51417427 418.099473627 c 0,125,126
 202 434 202 434 184 460 c 2,127,-1
 174 474 l 1,128,-1
 173 422 l 1,0,1
EndSplineSet
Validated: 524289
EndChar

StartChar: O
Encoding: 79 79 49
Width: 714
GlyphClass: 1
Flags: W
LayerCount: 2
Fore
SplineSet
533 54 m 1,0,1
 482 24 482 24 447.64708061 12.7199369167 c 0,2,3
 415 2 415 2 346.894563232 0.275811727402 c 0,4,5
 336 0 336 0 326 0 c 2,6,7
 326 0 326 0 281 0 c 1,8,9
 199 12 199 12 138.785592817 82.8404790387 c 0,10,11
 114 112 114 112 95.8987322232 147.196909566 c 0,12,13
 78 182 78 182 68.7104285576 216.371414337 c 0,14,15
 58 256 58 256 58 306 c 0,16,17
 58 306 58 306 58.4278775383 318.40844861 c 0,18,19
 60 364 60 364 63.8536554405 379.414621762 c 0,20,21
 68 396 68 396 88.8603696245 438.174225545 c 0,22,23
 114 489 114 489 132.376699372 514.63065965 c 0,24,25
 152 542 152 542 185.29270948 574.518460422 c 0,26,27
 238 626 238 626 277.332796103 644.452422863 c 0,28,29
 319 664 319 664 380.399147266 664 c 0,30,31
 447 664 447 664 491.812774715 633.233020345 c 0,32,33
 514 618 514 618 543.728754754 583.101027028 c 0,34,35
 560 564 560 564 577.570360907 538.320241752 c 0,36,37
 586 526 586 526 590.779035943 520.689960064 c 0,38,39
 604 506 604 506 620.936753577 454.82938281 c 0,40,41
 651 364 651 364 651 288.23334456 c 0,42,43
 651 228 651 228 631.802914036 177.607649344 c 0,44,45
 603 102 603 102 533 54 c 1,0,1
223.033334815 112.959998222 m 128,-1,47
 228 107 228 107 234.946066603 101.68830201 c 0,48,49
 245 94 245 94 261.441790939 88.5194030203 c 0,50,51
 266 87 266 87 268.483316358 86.044878324 c 0,52,53
 279 82 279 82 302.884797927 80.2307557091 c 0,54,55
 306 80 306 80 308.727616198 79.7726986502 c 0,56,57
 318 79 318 79 322 79 c 2,58,59
 322 79 322 79 349.868364053 78.5505102572 c 0,60,61
 384 78 384 78 390.574883873 78 c 0,62,63
 443 78 443 78 486.166909725 110.923914197 c 0,64,65
 502 123 502 123 517.989255176 142.826676419 c 0,66,67
 527 154 527 154 534.502796671 161.502796671 c 0,68,69
 547 174 547 174 551.382370057 184.225530134 c 0,70,71
 556 195 556 195 562.051718851 221.560321622 c 0,72,73
 574 274 574 274 574 305.024605423 c 0,74,75
 574 314 574 314 574.229106765 322.247843558 c 0,76,77
 575 350 575 350 568.543885382 375.824458474 c 0,78,79
 563 398 563 398 545.989913594 440.799572247 c 0,80,81
 532 476 532 476 526.597719134 482.077565974 c 0,82,83
 524 485 524 485 519.449395805 492.679144579 c 0,84,85
 508 512 508 512 492.839177596 525.897420537 c 0,86,87
 484 534 484 534 474.160223204 540.905106523 c 0,88,89
 427 574 427 574 377.60628307 574 c 0,90,91
 310 574 310 574 235.128153045 512.904572884 c 0,92,93
 185 472 185 472 161.187246313 418.931577496 c 0,94,95
 150 394 150 394 143.521486314 362.687183849 c 0,96,97
 138 336 138 336 137.226185082 308.916477882 c 0,98,99
 137 301 137 301 137 294.876212475 c 0,100,101
 137 282 137 282 138.684472598 274.139127878 c 0,102,103
 140 268 140 268 143.930729941 255.421664189 c 0,104,105
 150 236 150 236 152.970728981 223.456922082 c 0,106,107
 159 198 159 198 171.802704059 172.394591882 c 0,108,109
 182 152 182 152 193.924523751 139.413002708 c 0,110,111
 200 133 200 133 208.481874956 126.402986145 c 0,112,46
 218 119 218 119 223.033334815 112.959998222 c 128,-1,47
EndSplineSet
Validated: 524321
EndChar

StartChar: P
Encoding: 80 80 50
Width: 461
GlyphClass: 1
Flags: W
LayerCount: 2
Fore
SplineSet
102.038959897 7.84091009026 m 0,0,1
 95 14 95 14 95.4923393808 15.4770181423 c 128,-1,2
 96 17 96 17 91 31 c 2,3,4
 85 49 85 49 84.1844225114 51.7962656753 c 0,5,6
 78 73 78 73 75.2985414464 119.600160049 c 0,7,8
 74 142 74 142 71.3319978516 170.458689583 c 0,9,10
 68 206 68 206 67.1996587714 234.812284229 c 0,11,12
 67 242 67 242 66.7926203957 246.977110503 c 0,13,14
 66 266 66 266 66.7314798713 278.069417876 c 0,15,16
 68 299 68 299 68 365.056540832 c 0,17,18
 68 448 68 448 70.7927313222 481.512775866 c 0,19,20
 72 496 72 496 75.280607352 527.544301461 c 0,21,22
 85 621 85 621 89.4976042867 638.490683337 c 128,-1,23
 94 656 94 656 109.624948509 673.361053899 c 0,24,25
 130 696 130 696 154 696 c 0,26,27
 154 696 154 696 160.825242379 695.024965374 c 0,28,29
 182 692 182 692 205.518813417 684.573006289 c 0,30,31
 239 674 239 674 268.568553061 659.559543854 c 0,32,33
 325 632 325 632 362.038674042 583.341349788 c 0,34,35
 376 565 376 565 384.473707542 544.52187344 c 0,36,37
 388 536 388 536 394.032708176 525.442760693 c 0,38,39
 396 522 396 522 397.392864423 519.313761471 c 0,40,41
 410 495 410 495 410 471.592460701 c 0,42,43
 410 465 410 465 405.383295584 436.53032277 c 0,44,45
 404 428 404 428 402.873469728 420.959185797 c 0,46,47
 400 403 400 403 399.376421885 399.57032037 c 0,48,49
 398 392 398 392 394.916701355 383.135516395 c 0,50,51
 390 369 390 369 384.006963185 360.240946193 c 0,52,53
 377 350 377 350 367.57526715 340.816926966 c 0,54,55
 338 312 338 312 278.894985165 291.341936562 c 0,56,57
 235 276 235 276 203 276 c 0,58,59
 203 276 203 276 192.802439186 276.618033989 c 0,60,61
 170 278 170 278 161.984188318 279.781291485 c 0,62,63
 161 280 161 280 159.93699158 280.212601684 c 0,64,65
 156 281 156 281 155.319867669 281.170033083 c 0,66,67
 152 282 152 282 152 264 c 0,68,69
 152 264 152 264 152 264 c 0,70,71
 152 236 152 236 152.964240044 187.787997812 c 0,72,73
 154 136 154 136 154 136 c 130,-1,74
 154 136 154 136 154 136 c 0,75,76
 154 92 154 92 149.43317464 70.6881483187 c 0,77,78
 148 64 148 64 145.640151897 58.1003797434 c 0,79,80
 144 54 144 54 139.247744858 40.6936856023 c 0,81,82
 134 26 134 26 128 11 c 0,83,84
 128 11 128 11 128 11 c 0,85,86
 125 0 125 0 117.408964907 0 c 0,87,88
 111 0 111 0 102.038959897 7.84091009026 c 0,0,1
158 436 m 2,89,-1
 158 354 l 1,90,-1
 178 352 l 1,91,92
 180 352 180 352 180 352 c 0,93,94
 222 352 222 352 256.746438609 364.40944236 c 0,95,96
 306 382 306 382 317.693605914 421.46591996 c 0,97,98
 322 436 322 436 321.415390753 453.538277424 c 0,99,100
 321 466 321 466 316.335616321 481.689290555 c 0,101,102
 310 503 310 503 295.758100041 524.67245646 c 0,103,104
 287 538 287 538 277.635841089 546.73988165 c 0,105,106
 272 552 272 552 262.319442369 559.133042465 c 0,107,108
 253 566 253 566 243.775773253 571.534536048 c 0,109,110
 238 575 238 575 228.095215435 580.447631511 c 128,-1,111
 218 586 218 586 206.499870935 592.117089928 c 0,112,113
 171 611 171 611 163.297500423 610.144166714 c 0,114,115
 162 610 162 610 161.361778292 609.361778292 c 0,116,117
 158 606 158 606 158 542 c 0,118,119
 158 542 158 542 158 531 c 2,120,121
 158 532 158 532 158 436 c 2,89,-1
EndSplineSet
Validated: 524325
EndChar

StartChar: Q
Encoding: 81 81 51
Width: 715
GlyphClass: 1
Flags: W
LayerCount: 2
Fore
SplineSet
64.115865465 389.124423302 m 0,0,1
 68 400 68 400 83.3019809152 431.269265348 c 0,2,3
 114 494 114 494 132.758168565 520.656344802 c 0,4,5
 152 548 152 548 186.749527198 581.133270119 c 0,6,7
 238 630 238 630 277.053701919 648.821061166 c 0,8,9
 321 670 321 670 384.634695981 670 c 0,10,11
 448 670 448 670 488.660264356 640.556360294 c 0,12,13
 506 628 506 628 532.670824799 599.009973045 c 0,14,15
 552 578 552 578 558.892040432 567.279048216 c 0,16,17
 561 564 561 564 562.306549241 561.876857484 c 0,18,19
 569 551 569 551 581.591322281 534.576536156 c 0,20,21
 592 521 592 521 598.563941848 510.259004249 c 0,22,23
 614 485 614 485 630.159782702 436.520651895 c 0,24,25
 639 410 639 410 644.685371751 387.258512996 c 0,26,27
 658 334 658 334 658 289.634307346 c 0,28,29
 658 241 658 241 641.34354127 199.358853174 c 0,30,31
 638 191 638 191 634.248807769 183.02871651 c 0,32,33
 630 174 630 174 629.566422008 172.888956395 c 0,34,35
 614 133 614 133 593.560706923 106.428919 c 0,36,37
 584 94 584 94 585.430995486 89.7070135417 c 0,38,39
 586 88 586 88 591.258991345 75.8212832007 c 0,40,41
 605 44 605 44 615.776892749 21.9073698636 c 0,42,43
 625 3 625 3 629.938312743 -9.15584675112 c 0,44,45
 638 -29 638 -29 640.522413444 -43.7140784252 c 0,46,47
 644 -64 644 -64 635.735327946 -69.2593367616 c 0,48,49
 633 -71 633 -71 628.86489864 -71 c 0,50,51
 620 -71 620 -71 600.800348973 -61.4001744866 c 0,52,53
 582 -52 582 -52 566.948871401 -37.7410360645 c 0,54,55
 563 -34 563 -34 556.111035783 -27.1110357832 c 0,56,57
 541 -12 541 -12 536.27443961 -8.84962640662 c 0,58,59
 532 -6 532 -6 516 10 c 2,60,-1
 501 24 l 1,61,-1
 493 35 l 1,62,63
 468 23 468 23 439.694716035 13.5649053451 c 0,64,65
 417 6 417 6 409.920446261 4.82007437691 c 0,66,67
 399 3 399 3 345 3 c 1,68,69
 335 3 335 3 335 3 c 0,70,71
 274 3 274 3 230.969722121 19.6852097899 c 0,72,73
 225 22 225 22 218.018452911 25.0116477641 c 0,74,75
 174 44 174 44 127.665935856 103.14986912 c 0,76,77
 80 164 80 164 64.3873261176 232.305448235 c 0,78,79
 56 269 56 269 56 318 c 0,80,81
 56 318 56 318 56.3296906403 326.901647288 c 0,82,83
 58 372 58 372 64.115865465 389.124423302 c 0,0,1
163.5 199 m 128,-1,85
 165 196 165 196 166.984330883 191.590375816 c 0,86,87
 174 176 174 176 180.607954868 163.610084622 c 0,88,89
 198 131 198 131 216.611341096 111.059277398 c 0,90,91
 240 86 240 86 268.221580943 77.1807559555 c 0,92,93
 288 71 288 71 314.599698051 70.3666738559 c 0,94,95
 330 70 330 70 346.730760363 71.6191058416 c 0,96,97
 392 76 392 76 438.296916943 92.2039209299 c 0,98,99
 472 104 472 104 490.381001811 117.637517472 c 0,100,101
 503 127 503 127 518.451691947 146.160098015 c 0,102,103
 528 158 528 158 536.073887918 166.073887918 c 0,104,105
 548 178 548 178 552.297439083 186.594878166 c 0,106,107
 558 198 558 198 564.691626624 226.997048704 c 0,108,109
 576 276 576 276 576 320.774389083 c 0,110,111
 576 352 576 352 570.553075949 376.758745688 c 0,112,113
 565 402 565 402 546.804515748 446.608283973 c 0,114,115
 534 478 534 478 527.244067691 486.782712002 c 0,116,117
 524 491 524 491 520.02691025 498.094803125 c 0,118,119
 510 516 510 516 496.292804076 528.515265843 c 0,120,121
 487 537 487 537 468.660203998 549.406332589 c 0,122,123
 453 560 453 560 445.270752772 564.04865331 c 0,124,125
 432 571 432 571 411.7929603 575.369089665 c 0,126,127
 395 579 395 579 389.481660983 579.424487617 c 0,128,129
 382 580 382 580 369.045583556 578.149369079 c 0,130,131
 340 574 340 574 310.139527266 559.948012831 c 0,132,133
 272 542 272 542 233.859763404 510.435666266 c 0,134,135
 185 470 185 470 163.558332585 423.218180185 c 0,136,137
 152 398 152 398 143.872158613 357.941353162 c 0,138,139
 138 329 138 329 136.839870912 304.057224617 c 0,140,141
 136 286 136 286 138.615581234 275.537675064 c 0,142,143
 140 270 140 270 143.753747102 259.489508115 c 0,144,145
 150 242 150 242 153.349160221 227.486972375 c 0,146,147
 156 216 156 216 160.59031829 205.289257324 c 0,148,84
 162 202 162 202 163.5 199 c 128,-1,85
EndSplineSet
Validated: 524321
EndChar

StartChar: R
Encoding: 82 82 52
Width: 442
GlyphClass: 1
Flags: W
LayerCount: 2
Fore
SplineSet
186.840899723 337.681799445 m 0,0,1
 186 336 186 336 187.303318399 335.3483408 c 0,2,3
 190 334 190 334 196.69156255 324.631812429 c 0,4,5
 210 306 210 306 236.906759924 275.927738909 c 0,6,7
 278 230 278 230 299.458984115 196.117393503 c 0,8,9
 316 170 316 170 339.264527941 121.355987032 c 0,10,11
 360 78 360 78 365.044877369 56.1388647328 c 0,12,13
 366 52 366 52 367.685773399 46.0997931043 c 0,14,15
 370 38 370 38 371.362774835 34.2523692038 c 0,16,17
 374 27 374 27 374 21.5307568689 c 0,18,19
 374 14 374 14 368.169124251 9.91838697602 c 0,20,21
 364 7 364 7 360.777531098 7 c 0,22,23
 353 7 353 7 328.479825363 29.5320523695 c 0,24,25
 316 41 316 41 308.591107135 49.1145017094 c 0,26,27
 295 64 295 64 242.994115594 129.914434887 c 0,28,29
 209 173 209 173 209 174.193852348 c 256,30,31
 209 175 209 175 190.842038261 197.258146648 c 0,32,33
 178 213 178 213 172.442319344 219.252390738 c 0,34,35
 170 222 170 222 165.867155598 226.546128843 c 0,36,37
 150 244 150 244 143.547469522 250.452530478 c 0,38,39
 131 263 131 263 130.340681005 253.110215081 c 0,40,41
 130 248 130 248 131.378160989 226.983044911 c 0,42,43
 134 187 134 187 134 154.878433721 c 0,44,45
 134 138 134 138 134 138 c 0,46,47
 134 78 134 78 126.472908766 42.4173868921 c 0,48,49
 123 26 123 26 119.007027202 18.4577180481 c 0,50,51
 114 9 114 9 105.388602991 7.56476716521 c 0,52,53
 96 6 96 6 86.4170222528 17.4995732967 c 0,54,55
 81 24 81 24 78.787611535 31.1902625111 c 0,56,57
 77 37 77 37 74.0319805651 50.9496913441 c 0,58,59
 67 84 67 84 60.7560254669 139.303774436 c 0,60,61
 60 146 60 146 59.4565578801 150.755118549 c 0,62,63
 52 216 52 216 50.2474500926 248.130081636 c 0,64,65
 49 271 49 271 49 301.447862644 c 0,66,67
 49 435 49 435 73 645 c 1,68,69
 79 662 79 662 94.2534901958 677.654897833 c 0,70,71
 117 701 117 701 141.867115556 701.802165018 c 0,72,73
 148 702 148 702 155.027326644 700.890422109 c 0,74,75
 186 696 186 696 247.444286554 663.715713844 c 0,76,77
 304 634 304 634 323.433059604 610.402713337 c 0,78,79
 332 600 332 600 356.30578197 558.983992926 c 0,80,81
 364 546 364 546 367.461802941 539.845683661 c 0,82,83
 373 530 373 530 375.66662725 523.904851999 c 0,84,85
 380 514 380 514 385.381810736 505.120012286 c 0,86,87
 400 481 400 481 400 456.910408923 c 0,88,89
 400 448 400 448 398.251427881 437.071424256 c 0,90,91
 392 398 392 398 368.195238656 377.765952857 c 0,92,93
 352 364 352 364 318.473197929 351.620873081 c 0,94,95
 287 340 287 340 257.406419263 337.112821392 c 0,96,97
 246 336 246 336 224 336 c 0,98,99
 224 336 224 336 216.448785509 336.269686232 c 0,100,101
 196 337 196 337 191.091741574 338.84059691 c 0,102,103
 188 340 188 340 186.840899723 337.681799445 c 0,0,1
176 415 m 1,104,105
 184 415 184 415 184 415 c 0,106,107
 220 415 220 415 247.190947109 416.837226156 c 0,108,109
 294 420 294 420 302.854250649 430.119143599 c 0,110,111
 308 436 308 436 308 451.694682996 c 0,112,113
 308 470 308 470 302.199190203 488.231116506 c 0,114,115
 294 514 294 514 275.348392025 540.893016149 c 0,116,117
 251 576 251 576 211.403762752 596.186317028 c 0,118,119
 200 602 200 602 184.33818798 607.800671118 c 0,120,121
 173 612 173 612 166.082363643 613.921565655 c 0,122,123
 155 617 155 617 153.281954998 615.281954998 c 0,124,125
 150 612 150 612 145.335465415 560.171837948 c 0,126,127
 141 512 141 512 141 484.3022815 c 0,128,129
 141 471 141 471 142 461 c 2,130,-1
 142 415 l 1,131,-1
 176 415 l 1,104,105
EndSplineSet
Validated: 524289
EndChar

StartChar: S
Encoding: 83 83 53
Width: 574
GlyphClass: 1
Flags: W
LayerCount: 2
Fore
SplineSet
407.894398907 229.726721312 m 4,0,1
 406 232 406 232 403.041180026 234.958819974 c 4,2,3
 374 264 374 264 295.235835625 286.393733009 c 4,4,5
 272 293 272 293 255.804515383 299.380039395 c 4,6,7
 239 306 239 306 218.423703555 316.507044993 c 4,8,9
 192 330 192 330 175.010623448 336.17795511 c 4,10,11
 148 346 148 346 120.279533345 365.800333325 c 4,12,13
 92 386 92 386 79.8011614335 406.738025563 c 4,14,15
 72 420 72 420 66.7542894241 435.737131728 c 4,16,17
 61 453 61 453 61.456106301 468.963720536 c 0,18,19
 62 488 62 488 71.7559975969 520.269838205 c 4,20,21
 88 574 88 574 112.723437731 601.470486368 c 4,22,23
 133 624 133 624 172.19693443 644.324336371 c 4,24,25
 214 666 214 666 250.562739419 671.332066165 c 4,26,27
 262 673 262 673 273.80865445 673 c 0,28,29
 298 673 298 673 338.606553149 662.21388432 c 4,30,31
 362 656 362 656 377.726674336 653.111427163 c 4,32,33
 411 647 411 647 442.279773989 632.155361497 c 4,34,35
 470 619 470 619 475.406309414 606.160015141 c 4,36,37
 478 600 478 600 475.957134529 596.595224215 c 4,38,39
 472 590 472 590 447.783020668 586.274310872 c 4,40,41
 433 584 433 584 418.034239355 584 c 0,42,43
 404 584 404 584 380.7862508 586.90171865 c 4,44,45
 356 590 356 590 335.593389871 590 c 4,46,47
 324 590 324 590 309.559468612 590.825173222 c 4,48,49
 289 592 289 592 281.577471662 590.762911944 c 4,50,51
 277 590 277 590 269.960114884 590 c 4,52,53
 256 590 256 590 250 587 c 6,54,55
 250 587 250 587 250 587 c 4,56,57
 214 571 214 571 190.001605141 544.601765655 c 4,58,59
 164 516 164 516 162.222791707 484.010250717 c 4,60,61
 162 480 162 480 161.726034274 472.876891112 c 0,62,63
 161 454 161 454 164.311704616 447.97871888 c 4,64,65
 172 434 172 434 248.361646062 406.325309481 c 4,66,67
 321 380 321 380 366.004968045 373.931914421 c 4,68,69
 410 368 410 368 445.234378044 351.148775718 c 4,70,71
 502 324 502 324 511.682558144 280.800894432 c 4,72,73
 515 266 515 266 515 234 c 0,74,75
 515 234 515 234 514.913445658 230.191608967 c 4,76,77
 514 190 514 190 487.11611995 137.512424664 c 4,78,79
 472 108 472 108 455.175427223 86.0345855407 c 4,80,81
 400 14 400 14 312.933981905 1.44240123628 c 4,82,83
 296 -1 296 -1 277.501567132 -1 c 0,84,85
 257 -1 257 -1 224.901081184 3.58555983086 c 4,86,87
 194 8 194 8 177.771950942 15.2124662479 c 4,88,89
 176 16 176 16 174.19612947 16.7730873701 c 4,90,91
 162 22 162 22 155.118791773 24.5175152051 c 4,92,93
 121 37 121 37 92.9808728158 67.1337782925 c 4,94,95
 68 94 68 94 57.4870817945 124.837893403 c 4,96,97
 53 138 53 138 53 147.274882619 c 0,98,99
 53 158 53 158 59.8946986758 160.298232892 c 4,100,101
 62 161 62 161 64.9170259604 160.775613388 c 0,102,103
 75 160 75 160 91.5601733136 144.859270113 c 4,104,105
 110 128 110 128 132.965502111 113.10345809 c 4,106,107
 184 80 184 80 238.968577924 73.7178768087 c 4,108,109
 254 72 254 72 270.354064338 72 c 0,110,111
 288 72 288 72 300.896576134 74.0363014949 c 4,112,113
 326 78 326 78 353.193025569 91.5965127844 c 4,114,115
 386 108 386 108 405.303813063 139.58805774 c 4,116,117
 408 144 408 144 410 148 c 6,118,119
 410 148 410 148 410 148 c 4,120,121
 414 157 414 157 415 166 c 4,122,123
 415 166 415 166 415 166 c 134,-1,124
 415 166 415 166 415 166 c 4,125,126
 415 204 415 204 412.488714361 217.812071012 c 4,127,128
 411 226 411 226 407.894398907 229.726721312 c 4,0,1
EndSplineSet
Validated: 524321
EndChar

StartChar: T
Encoding: 84 84 54
Width: 537
GlyphClass: 1
Flags: W
LayerCount: 2
Fore
SplineSet
322.956327117 206.567747482 m 0,0,1
 324 193 324 193 325.100010517 135.249447832 c 0,2,3
 326 88 326 88 326 65.5165476788 c 0,4,5
 326 32 326 32 323.125679572 23.3770387167 c 0,6,7
 320 14 320 14 305.554857606 6.77742880295 c 0,8,9
 294 1 294 1 283.926756021 1 c 0,10,11
 278 1 278 1 269.373649416 3.65426171802 c 0,12,13
 252 9 252 9 247.714825746 17.9988659332 c 0,14,15
 242 30 242 30 236.104963431 87.4766065437 c 0,16,17
 230 147 230 147 229.411481337 202.909273016 c 0,18,19
 229 242 229 242 232.494436892 319.876022156 c 0,20,21
 236 398 236 398 238.550216526 517.860176722 c 0,22,23
 240 586 240 586 241.800208411 620.203959813 c 0,24,25
 242 624 242 624 242 624.04907972 c 0,26,27
 242 625 242 625 209.901888111 625.213987413 c 0,28,29
 92 626 92 626 48.9117142919 647.966577028 c 0,30,31
 41 652 41 652 41 654 c 2,32,33
 41 654 41 654 41 658 c 1,34,-1
 43 658 l 1,35,36
 44 659 44 659 46.4975242063 659.356789172 c 0,37,38
 51 660 51 660 80.2358521192 666.937320842 c 0,39,40
 110 674 110 674 115.793291638 675.54487777 c 0,41,42
 140 682 140 682 247.832303721 689.094230508 c 0,43,44
 292 692 292 692 307.64160917 693.737956574 c 0,45,46
 319 695 319 695 329.052116033 695 c 0,47,48
 338 695 338 695 351.328321852 693.667167815 c 0,49,50
 368 692 368 692 408.303274547 689.915347868 c 0,51,52
 426 689 426 689 431.382333845 688.68948074 c 0,53,54
 478 686 478 686 489.887745995 675.895415904 c 0,55,56
 498 669 498 669 496.104509388 654.309947759 c 0,57,58
 494 638 494 638 483.239657045 631.723133277 c 0,59,60
 470 624 470 624 409.522182246 623.244027278 c 0,61,62
 390 623 390 623 367.484675762 621.675569162 c 0,63,64
 356 621 356 621 343.826543398 620.513061736 c 0,65,66
 331 620 331 620 325 620 c 1,67,68
 326 620 326 620 306 622 c 1,69,-1
 306 610 l 2,70,71
 306 609 306 609 306 609 c 0,72,73
 306 594 306 594 306.976176963 580.333522512 c 0,74,75
 308 566 308 566 308 549.402883376 c 128,-1,76
 308 533 308 533 309.535623462 513.804706729 c 0,77,78
 310 508 310 508 310.321403298 503.500353823 c 0,79,80
 312 480 312 480 314.102061562 430.601553304 c 0,81,82
 316 386 316 386 318.593675075 313.80937707 c 0,83,84
 322 219 322 219 322.956327117 206.567747482 c 0,0,1
EndSplineSet
Validated: 524321
EndChar

StartChar: U
Encoding: 85 85 55
Width: 548
GlyphClass: 1
Flags: W
LayerCount: 2
Fore
SplineSet
348 132 m 2,0,1
 366 146 366 146 381.873362986 205.164352947 c 0,2,3
 388 228 388 228 390.912890396 242.148324783 c 0,4,5
 402 296 402 296 404.244445716 419.444514398 c 0,6,7
 405 461 405 461 404.290760211 511.356025044 c 0,8,9
 404 532 404 532 402.710342842 562.951771791 c 0,10,11
 402 580 402 580 402 590.521824959 c 0,12,13
 402 630 402 630 412.57172608 653.257797375 c 0,14,15
 422 674 422 674 434.372140576 668.844941427 c 0,16,17
 446 664 446 664 454.323259183 632.627715388 c 0,18,19
 459 615 459 615 463.210971211 584.320066894 c 0,20,21
 466 564 466 564 467.0421109 548.889391952 c 0,22,23
 468 535 468 535 473.147611452 482.236982618 c 0,24,25
 476 453 476 453 477.088520086 440.482019016 c 0,26,27
 478 430 478 430 479.395783663 411.854812375 c 0,28,29
 482 378 482 378 482.976142711 364.334002049 c 0,30,31
 485 336 485 336 485 320.62084218 c 0,32,33
 485 299 485 299 481.351940739 264.546106978 c 0,34,35
 476 214 476 214 469.771682994 191.162837646 c 0,36,37
 461 159 461 159 433.919108611 114.161147045 c 0,38,39
 400 58 400 58 362.947169423 30.8279242433 c 0,40,41
 340 14 340 14 313.779902155 5.25996738516 c 0,42,43
 292 -2 292 -2 271.014536539 -2 c 0,44,45
 260 -2 260 -2 249.625989146 -0.234210918418 c 0,46,47
 213 6 213 6 179.768267991 39.7765145012 c 0,48,49
 152 68 152 68 131.666345447 108.667309107 c 0,50,51
 108 156 108 156 85.602804186 246.833071912 c 0,52,53
 72 302 72 302 70.4176007708 336.812783043 c 0,54,55
 70 346 70 346 68.7879251475 352.060374263 c 0,56,57
 68 356 68 356 68 359 c 1,58,-1
 68 362 l 1,59,60
 66 364 66 364 61.3071687461 425.860048347 c 0,61,62
 55 509 55 509 55.5358218325 552.937390268 c 0,63,64
 56 591 56 591 63.7965246837 624.351800036 c 0,65,66
 74 668 74 668 92.0747758396 668 c 0,67,68
 104 668 104 668 116.451586321 650.28043485 c 0,69,70
 130 631 130 631 130 611 c 2,71,72
 130 611 130 611 129.574923318 605.686541474 c 0,73,74
 128 586 128 586 132.881565219 560.371782598 c 0,75,76
 136 544 136 544 136 534.62160542 c 0,77,78
 136 524 136 524 138.803328172 512.085855268 c 0,79,80
 144 490 144 490 146.475081411 434.31066825 c 0,81,82
 148 400 148 400 150.26061956 389.827211979 c 0,83,84
 152 382 152 382 153.742675295 362.83057175 c 0,85,86
 157 327 157 327 163.359658105 302.717669052 c 0,87,88
 168 285 168 285 172.32175605 261.770561231 c 0,89,90
 184 199 184 199 208.76658945 159.19655267 c 0,91,92
 212 154 212 154 217.187147056 146.219279415 c 0,93,94
 226 133 226 133 227.989493417 129.021013166 c 128,-1,95
 230 125 230 125 233.157181565 121.527100278 c 0,96,97
 240 114 240 114 250.686033547 108.443262556 c 0,98,99
 265 101 265 101 280.367306841 101 c 0,100,101
 286 101 286 101 294.482211612 102.325345564 c 0,102,103
 318 106 318 106 334.879757021 121.345233655 c 0,104,105
 340 126 340 126 344 129 c 1,106,-1
 348 132 l 2,0,1
EndSplineSet
Validated: 524321
EndChar

StartChar: V
Encoding: 86 86 56
Width: 505
GlyphClass: 1
Flags: W
LayerCount: 2
Fore
SplineSet
314 89 m 1,0,1
 306 75 306 75 301.626398658 65.7060971488 c 0,2,3
 298 58 298 58 293.393509682 47.3850440497 c 0,4,5
 275 5 275 5 268.115064263 5 c 0,6,7
 266 5 266 5 261.657222692 9.34277730794 c 0,8,9
 258 13 258 13 255.443769163 17.473403965 c 0,10,11
 254 20 254 20 251.031791188 25.6665804586 c 0,12,13
 243 41 243 41 234.581957174 56.0944216197 c 0,14,15
 214 93 214 93 202.808328796 119.300427329 c 0,16,17
 194 140 194 140 183.352368795 160.297046985 c 0,18,19
 162 201 162 201 143.760052893 257.824450604 c 0,20,21
 136 282 136 282 122.444845274 321.926092102 c 0,22,23
 81 444 81 444 72.1187236573 488.406381713 c 0,24,25
 69 504 69 504 62.2719569392 528.220955019 c 0,26,27
 54 558 54 558 50.6846427632 573.747946875 c 0,28,29
 46 596 46 596 46 617 c 0,30,31
 46 617 46 617 46.1184632282 619.961580705 c 0,32,33
 47 642 47 642 55.6117361702 660.129970885 c 0,34,35
 66 682 66 682 81.0207359564 679.689117545 c 0,36,37
 92 678 92 678 96.1350978027 660.081242855 c 0,38,39
 98 652 98 652 102 644 c 1,40,-1
 104 636 l 1,41,42
 109 626 109 626 132.67175793 553.090985577 c 0,43,44
 159 472 159 472 163.016468506 452.921774596 c 128,-1,45
 167 434 167 434 192.779282157 360.024668592 c 0,46,47
 213 302 213 302 230.836999674 256.484897383 c 0,48,49
 242 228 242 228 247.868656157 209.741958623 c 0,50,51
 251 200 251 200 254.847053588 190.767071389 c 0,52,53
 256 188 256 188 256.774449939 186.063875153 c 0,54,55
 260 178 260 178 260 176 c 1,56,-1
 268 188 l 1,57,58
 273 198 273 198 289.163104087 259.308325849 c 0,59,60
 302 308 302 308 308.692066021 327.561423753 c 0,61,62
 315 346 315 346 318.971773431 364.77565622 c 0,63,64
 326 398 326 398 363.266288872 524.981428749 c 0,65,66
 380 582 380 582 382.999348385 593.622474994 c 0,67,68
 388 613 388 613 395.856444395 631.238174488 c 0,69,70
 416 678 416 678 438.974784371 678 c 0,71,72
 454 678 454 678 456.474805 655.726754996 c 0,73,74
 457 651 457 651 456.551775011 641.587275236 c 0,75,76
 456 630 456 630 453.084334115 612.506004688 c 0,77,78
 450 594 450 594 444.950071075 571.696147247 c 0,79,80
 438 541 438 541 436.043281675 526.324612559 c 0,81,82
 432 496 432 496 400.046205425 373.297428833 c 0,83,84
 382 304 382 304 377.083312374 279.962860494 c 0,85,86
 373 260 373 260 362.826254815 225.888030849 c 0,87,88
 356 203 356 203 348.43814111 180.31442333 c 0,89,90
 340 155 340 155 331.842905092 134.097444299 c 0,91,92
 324 114 324 114 318 102 c 1,93,-1
 314 89 l 1,0,1
EndSplineSet
Validated: 524321
EndChar

StartChar: W
Encoding: 87 87 57
Width: 668
GlyphClass: 1
Flags: W
LayerCount: 2
Fore
SplineSet
516.892419965 473.298258142 m 0,0,1
 518 532 518 532 525.762056203 601.261424584 c 0,2,3
 531 648 531 648 535.053878617 658.4242593 c 0,4,5
 538 666 538 666 545.273932673 668.727724753 c 0,6,7
 554 672 554 672 565.447814392 667.022689395 c 128,-1,8
 577 662 577 662 580.697152875 651.524733521 c 0,9,10
 583 645 583 645 587.009551051 639.386628529 c 0,11,12
 598 624 598 624 604.582356412 594.6325637 c 0,13,14
 611 566 611 566 611 532.629189362 c 0,15,16
 611 514 611 514 607.112191875 466.235500182 c 0,17,18
 604 428 604 428 604 418.297732777 c 0,19,20
 604 406 604 406 597.019028715 358.52939526 c 0,21,22
 594 338 594 338 588.200763154 295.230628258 c 0,23,24
 586 279 586 279 584.941607208 271.326652258 c 0,25,26
 582 250 582 250 581.221522569 243.883391616 c 0,27,28
 575 195 575 195 556.420451122 136.098876961 c 0,29,30
 528 46 528 46 495.268970958 13.9369511421 c 0,31,32
 479 -2 479 -2 463.616584507 -2 c 0,33,34
 455 -2 455 -2 448 3 c 1,35,36
 448 3 448 3 448 3 c 0,37,38
 432 17 432 17 415.687923389 55.4965008026 c 0,39,40
 407 76 407 76 401.971418437 97.5510638406 c 0,41,42
 400 106 400 106 397.739192317 112.782423049 c 0,43,44
 396 118 396 118 375 178 c 0,45,46
 375 178 375 178 375 178 c 0,47,48
 354 238 354 238 349.905763415 251.647455282 c 0,49,50
 348 258 348 258 345.31884798 268.389464076 c 0,51,52
 340 289 340 289 333.587423969 310.375253438 c 0,53,54
 325 339 325 339 323.727470286 349.816502569 c 0,55,56
 323 356 323 356 320 367 c 1,57,58
 320 368 320 368 312 346 c 2,59,60
 310 342 310 342 310 342 c 0,61,62
 302 326 302 326 298.792850868 317.019982431 c 0,63,64
 297 312 297 312 295.20843808 305.550377089 c 0,65,66
 292 294 292 294 289.175392165 287.54375352 c 0,67,68
 285 278 285 278 277.061687167 253.494773428 c 0,69,70
 262 207 262 207 245.569513998 172.76982083 c 0,71,72
 238 157 238 157 235.463288837 148.12151093 c 0,73,74
 232 136 232 136 217.993972406 110.98923644 c 128,-1,75
 204 86 204 86 194.48443319 64.2501330062 c 0,76,77
 169 6 169 6 145.127831892 6 c 0,78,79
 142 6 142 6 140.371317128 6.40717071789 c 0,80,81
 122 11 122 11 106.170082318 61.0225398741 c 0,82,83
 97 90 97 90 92.8435858356 124.43886022 c 0,84,85
 90 148 90 148 83.5957055097 180.936371665 c 0,86,87
 76 220 76 220 73.5696514001 242.683253599 c 0,88,89
 70 276 70 276 66 382 c 1,90,91
 66 382 66 382 62 498 c 1,92,93
 76 576 76 576 89 656 c 1,94,95
 89 656 89 656 89.0000001176 656.000000157 c 0,96,97
 98 668 98 668 104.262965807 669.565741452 c 0,98,99
 106 670 106 670 108.320591486 670.331513069 c 0,100,101
 120 672 120 672 125.674229289 667.460616569 c 0,102,103
 130 664 130 664 133.483985162 657.982207447 c 0,104,105
 141 645 141 645 141 623.229997547 c 0,106,107
 141 612 141 612 139.098359987 596.311469889 c 0,108,109
 137 579 137 579 137 560.602397176 c 0,110,111
 137 527 137 527 146.09824846 467.593789465 c 0,112,113
 154 416 154 416 160.645617542 342.898207039 c 0,114,115
 164 306 164 306 165.637179732 293.311857081 c 0,116,117
 168 275 168 275 172.153214224 262.125035906 c 0,118,119
 178 244 178 244 182.281426371 253.989994865 c 0,120,121
 184 258 184 258 187.547187808 269.351000985 c 0,122,123
 194 290 194 290 198.648064711 308.85048466 c 0,124,125
 212 363 212 363 242.198848612 436.340060916 c 0,126,127
 268 499 268 499 281.518649456 515.33503476 c 0,128,129
 292 528 292 528 309.741413015 532.435353254 c 0,130,131
 316 534 316 534 320.760387482 534 c 0,132,133
 335 534 335 534 344.476157733 519.560140597 c 0,134,135
 356 502 356 502 384.17047144 419.938191891 c 0,136,137
 402 368 402 368 428.804090013 297.080845173 c 0,138,139
 450 241 450 241 458.766863444 214.073205137 c 0,140,141
 464 198 464 198 466.949188028 192.101623944 c 0,142,143
 470 186 470 186 471.253211411 191.012845646 c 0,144,145
 472 194 472 194 475.623658432 204.870975295 c 0,146,147
 485 233 485 233 485.580414998 240.545394972 c 0,148,149
 486 246 486 246 491.591872635 273.027384403 c 0,150,151
 498 304 498 304 501.776240484 327.916189733 c 0,152,153
 504 342 504 342 505.760290514 356.082324115 c 0,154,155
 508 374 508 374 509.772048426 385.518314768 c 0,156,157
 516 426 516 426 516.892419965 473.298258142 c 0,0,1
EndSplineSet
Validated: 524289
EndChar

StartChar: X
Encoding: 88 88 58
Width: 622
GlyphClass: 1
Flags: W
LayerCount: 2
Fore
SplineSet
535.603744016 -1.701417727 m 0,0,1
 525 -10 525 -10 516.224767319 -5.82131777074 c 0,2,3
 504 0 504 0 464.344301168 45.917124963 c 0,4,5
 428 88 428 88 372.962962336 158.486030693 c 0,6,7
 314 234 314 234 309.608762791 234 c 0,8,9
 306 234 306 234 258.242962535 179.875357539 c 0,10,11
 216 132 216 132 179.247329124 92.5249090586 c 0,12,13
 108 16 108 16 82.6524562925 1.32510627461 c 0,14,15
 70 -6 70 -6 62.6268229394 -3.95189526095 c 0,16,17
 52 -1 52 -1 53.8533544929 24.9469629006 c 0,18,19
 54 27 54 27 54.1514767608 30.1052735954 c 0,20,21
 56 68 56 68 116.756034042 158.487710275 c 0,22,23
 150 208 150 208 193.993789678 263.23664704 c 0,24,25
 240 321 240 321 240 329.719002825 c 0,26,27
 240 338 240 338 204.047519287 381.316241823 c 0,28,29
 157 438 157 438 119.697443875 494.568711486 c 0,30,31
 66 576 66 576 57.663417957 623.518517645 c 0,32,33
 56 633 56 633 56 641.520705728 c 0,34,35
 56 659 56 659 67.6062480428 663.513540906 c 0,36,37
 74 666 74 666 78.9802196688 664.754945083 c 0,38,39
 90 662 90 662 116.033933134 636.895850193 c 0,40,41
 146 608 146 608 219.647432745 525.688163402 c 0,42,43
 282 456 282 456 310 428 c 1,44,-1
 324 412 l 1,45,-1
 336 426 l 1,46,47
 358 452 358 452 392.535394998 499.965826386 c 0,48,49
 430 552 430 552 455.999381279 583.540233027 c 0,50,51
 491 626 491 626 524.203466479 650.739837769 c 0,52,53
 542 664 542 664 551.711633356 666.158140746 c 0,54,55
 560 668 560 668 568.822400932 662.118399378 c 0,56,57
 578 656 578 656 578 646.386566593 c 0,58,59
 578 621 578 621 492.799044732 475.395382415 c 0,60,61
 444 392 444 392 414.247067575 354.596313522 c 0,62,63
 409 348 409 348 399.728450196 337.092294348 c 0,64,65
 392 328 392 328 388 323 c 1,66,67
 414 274 414 274 458.31334404 203.619982995 c 0,68,69
 516 112 516 112 535.027906462 70.3764546135 c 0,70,71
 548 42 548 42 548 24.8070331756 c 0,72,73
 548 8 548 8 535.603744016 -1.701417727 c 0,0,1
EndSplineSet
Validated: 524289
EndChar

StartChar: Y
Encoding: 89 89 59
Width: 568
GlyphClass: 1
Flags: W
LayerCount: 2
Fore
SplineSet
517.047432497 672.467390158 m 128,-1,1
 525 667 525 667 525 660.616822711 c 0,2,3
 525 650 525 650 501.643033461 606.400329127 c 0,4,5
 480 566 480 566 429.52774411 481.046698007 c 128,-1,6
 379 396 379 396 345.195028717 334.829099583 c 0,7,8
 316 282 316 282 256.119588169 167.446168672 c 0,9,10
 224 106 224 106 211.641121267 82.7955746244 c 0,11,12
 175 14 175 14 164.895043231 7.2633621538 c 0,13,14
 160 4 160 4 154.508838974 6.26106630476 c 0,15,16
 143 11 143 11 142.267741911 33.7000007719 c 0,17,18
 142 42 142 42 142.497103927 48.4623510548 c 0,19,20
 146 94 146 94 205.621914195 260.386737287 c 0,21,22
 232 334 232 334 232 340.149062685 c 0,23,24
 232 348 232 348 194.635929222 391.881059867 c 0,25,26
 146 449 146 449 109.199426801 502.63487796 c 0,27,28
 52 586 52 586 45.2311805027 634.227838918 c 0,29,30
 44 643 44 643 44 651.41758345 c 0,31,32
 44 670 44 670 54.2561047447 673.846039279 c 0,33,34
 60 676 60 676 65.3972421507 673.976034193 c 0,35,36
 76 670 76 670 98.5547262888 646.54308466 c 0,37,38
 126 618 126 618 205.449130998 522.412764268 c 0,39,40
 254 464 254 464 277 438 c 2,41,-1
 291 422 l 1,42,43
 292 422 292 422 302 436 c 1,44,45
 329 475 329 475 416 599 c 1,46,47
 445 635 445 635 472.021043075 657.909145216 c 0,48,49
 491 674 491 674 501.082731294 676.240606954 c 0,50,0
 509 678 509 678 517.047432497 672.467390158 c 128,-1,1
EndSplineSet
Validated: 524289
EndChar

StartChar: Z
Encoding: 90 90 60
Width: 698
GlyphClass: 1
Flags: W
LayerCount: 2
Fore
SplineSet
79.3836638897 96.1834577325 m 0,0,1
 168 204 168 204 260.326405894 303.914877612 c 0,2,3
 314 362 314 362 380.390806728 428.390806728 c 0,4,5
 412 460 412 460 421.588181872 467.99015156 c 0,6,7
 424 470 424 470 426.476333387 471.85725004 c 0,8,9
 432 476 432 476 438.790950285 482.225037761 c 0,10,11
 444 487 444 487 448.417260885 490.91243107 c 0,12,13
 479 518 479 518 482.037231454 532.426849406 c 0,14,15
 483 537 483 537 480.12539718 537 c 0,16,17
 478 537 478 537 466.710103893 538.660278839 c 0,18,19
 444 542 444 542 423.492487999 544.121466759 c 0,20,21
 386 548 386 548 354 548 c 1,22,23
 316 554 316 554 240.676771031 557.463136964 c 0,24,25
 142 562 142 562 96.0859968669 573.168271032 c 0,26,27
 68 580 68 580 63.082323081 588.360050762 c 0,28,29
 58 597 58 597 72.0176390594 611.45569028 c 0,30,31
 90 630 90 630 115.844960897 634.78610387 c 0,32,33
 144 640 144 640 247.950743013 640 c 0,34,35
 339 640 339 640 378.223685086 636.141932615 c 0,36,37
 400 634 400 634 428.988451656 634 c 0,38,39
 457 634 457 634 487.491458047 635.663170439 c 0,40,41
 512 637 512 637 530.570724206 637 c 0,42,43
 576 637 576 637 606.643469825 629.339132544 c 0,44,45
 644 620 644 620 644 602.946006717 c 0,46,47
 644 599 644 599 640.148881933 591.022684005 c 0,48,49
 630 570 630 570 583.569920208 516.937051666 c 0,50,51
 560 490 560 490 532.558961529 460.119758109 c 0,52,53
 470 392 470 392 443.206797289 357.374938035 c 0,54,55
 405 308 405 308 285.925048296 184.77815943 c 0,56,57
 204 100 204 100 211.80170791 100 c 0,58,59
 213 100 213 100 213.955101905 100.545772517 c 0,60,61
 220 104 220 104 289 104 c 0,62,63
 289 104 289 104 289 104 c 0,64,65
 469 104 469 104 566.765934323 74.3210556518 c 0,66,67
 581 70 581 70 585.785264516 67.8732157709 c 0,68,69
 590 66 590 66 591.0221614 63.9556771998 c 128,-1,70
 592 62 592 62 596.381887779 59.8090561105 c 0,71,72
 600 58 600 58 602.6217037 55.3782963004 c 0,73,74
 604 54 604 54 605.800340768 52.499716027 c 0,75,76
 610 49 610 49 611.954977941 45.7417034324 c 0,77,78
 613 44 613 44 614.307721972 40.948648733 c 0,79,80
 616 37 616 37 616.519918164 35.1802864261 c 0,81,82
 618 30 618 30 618 22.7091753253 c 0,83,84
 618 -2 618 -2 600.415499687 -7.86150010439 c 0,85,86
 594 -10 594 -10 585.130450628 -10 c 0,87,88
 573 -10 573 -10 550.816152889 -2.80523877496 c 0,89,90
 536 2 536 2 518.477318454 4.38945657451 c 0,91,92
 514 5 514 5 508.909714634 5.84838089436 c 0,93,94
 502 7 502 7 499.486155139 7.55863219127 c 0,95,96
 493 9 493 9 492.275669794 10.0864953084 c 0,97,98
 489 15 489 15 390.028910848 14.2558564725 c 0,99,100
 356 14 356 14 336.242281854 14 c 0,101,102
 180 14 180 14 120.176679814 -7.20320209138 c 0,103,104
 101 -14 101 -14 86.0886951565 -14 c 0,105,106
 78 -14 78 -14 71.1910761803 -10.9738116357 c 0,107,108
 60 -6 60 -6 54.4924430228 5.01511395436 c 0,109,110
 51 12 51 12 51 19.7287183278 c 0,111,112
 51 28 51 28 57.0193565103 45.5108553027 c 0,113,114
 62 60 62 60 68.5399640817 73.547068455 c 0,115,116
 76 89 76 89 82 96 c 1,117,118
 50 58 50 58 49.001204054 58 c 128,-1,119
 48 58 48 58 79.3836638897 96.1834577325 c 0,0,1
EndSplineSet
Validated: 524325
EndChar

StartChar: backslash
Encoding: 92 92 61
Width: 355
GlyphClass: 1
Flags: W
LayerCount: 2
Fore
SplineSet
31 431 m 1,0,1
 53 729 53 729 55.6411839491 729 c 0,2,3
 56 729 56 729 58.0480757863 726.747116635 c 0,4,5
 66 718 66 718 76.1410456195 701.098257301 c 0,6,7
 87 683 87 683 97.1308517397 658.062518795 c 0,8,9
 100 651 100 651 104.075925896 641.319675997 c 0,10,11
 116 613 116 613 121.147143216 601.504713484 c 0,12,13
 146 546 146 546 204.195897 365.656670836 c 0,14,15
 237 264 237 264 251.185035735 227.223981427 c 0,16,17
 264 194 264 194 283.506236731 130.836947727 c 0,18,19
 306 58 306 58 306 45.7020771273 c 0,20,21
 306 36 306 36 293.606930043 27.221575447 c 0,22,23
 282 19 282 19 269.395798783 19 c 0,24,25
 265 19 265 19 259.011504593 20.3018468277 c 0,26,27
 242 24 242 24 234.482397871 31.8934822353 c 0,28,29
 222 45 222 45 200.967121014 95.4063823968 c 0,30,31
 164 184 164 184 109.872283742 392.887243024 c 0,32,33
 93 458 93 458 73.4785641113 528.076949344 c 128,-1,34
 54 598 54 598 51.4315009229 611.869895016 c 0,35,36
 49 625 49 625 48 662 c 1,37,38
 48 662 48 662 31 431 c 1,0,1
EndSplineSet
Validated: 524293
EndChar

StartChar: asciicircum
Encoding: 94 94 62
Width: 418
GlyphClass: 1
Flags: W
LayerCount: 2
Fore
SplineSet
180 518 m 1,0,1
 145 434 145 434 84.4239732728 356.637845385 c 0,2,3
 62 328 62 328 54.78535345 326.55707069 c 0,4,5
 52 326 52 326 49.1571911205 328.842808879 c 0,6,7
 44 334 44 334 44 343.797439485 c 0,8,9
 44 356 44 356 50.7921942914 381.470728593 c 0,10,11
 60 416 60 416 80.9686952231 461.163343557 c 0,12,13
 86 472 86 472 97 494 c 0,14,15
 97 494 97 494 100.5 501 c 128,-1,16
 104 508 104 508 104 508 c 0,17,18
 110 520 110 520 113.74550152 527.116452888 c 0,19,20
 130 558 130 558 149.449559004 607.164163038 c 0,21,22
 166 649 166 649 169.93886043 666.232514379 c 0,23,24
 174 684 174 684 183.103451785 686.844828683 c 0,25,26
 190 689 190 689 198.637226326 683.090318829 c 0,27,28
 209 676 209 676 226.348002361 653.055867845 c 0,29,30
 240 635 240 635 252.558546592 612.673694947 c 0,31,32
 258 603 258 603 263.607536677 594.121400261 c 0,33,34
 270 584 270 584 274.882689372 574.777142297 c 0,35,36
 279 567 279 567 284.684546918 557.698014134 c 0,37,38
 290 549 290 549 292.425144578 545.766473896 c 0,39,40
 296 541 296 541 302.041634577 528.245438115 c 0,41,42
 305 522 305 522 306.450608451 519.582319249 c 128,-1,43
 308 517 308 517 310.642880027 513.916639968 c 0,44,45
 314 510 314 510 315.731862694 506.536274612 c 0,46,47
 317 504 317 504 318.885333831 500.700665795 c 0,48,49
 329 483 329 483 345.961076155 442.644336044 c 0,50,51
 358 414 358 414 363.261031034 405.231614943 c 0,52,53
 367 399 367 399 373.070719919 386.594615818 c 0,54,55
 390 352 390 352 391.08018134 337.957642575 c 0,56,57
 392 326 392 326 379.601327184 320.420597233 c 0,58,59
 372 317 372 317 365.730845688 318.34339021 c 0,60,61
 358 320 358 320 346.926121029 332.376688262 c 0,62,63
 341 339 341 339 334.815606374 344.456817905 c 0,64,65
 324 354 324 354 317.142138408 364.550556296 c 0,66,67
 311 374 311 374 295.415591467 393.04761043 c 0,68,69
 275 418 275 418 260.852097114 439.221854329 c 0,70,71
 251 454 251 454 232.73409963 478.683649149 c 0,72,73
 214 504 214 504 202.917440943 521.415449946 c 0,74,75
 200 526 200 526 190 542 c 1,76,-1
 180 518 l 1,0,1
EndSplineSet
Validated: 524289
EndChar

StartChar: underscore
Encoding: 95 95 63
Width: 571
GlyphClass: 1
Flags: W
LayerCount: 2
Fore
SplineSet
193.731238272 42.1978967943 m 0,0,1
 282 60 282 60 380 60 c 0,2,3
 380 60 380 60 380 60 c 0,4,5
 466 60 466 60 486.123035852 50.7124449916 c 0,6,7
 492 48 492 48 499.860033902 40.6312182169 c 0,8,9
 508 33 508 33 508 30.5875012182 c 0,10,11
 508 27 508 27 496.705862665 21.6666573697 c 0,12,13
 472 10 472 10 428.096662554 4.51208281921 c 0,14,15
 376 -2 376 -2 274 -2 c 0,16,17
 274 -2 274 -2 274 -2 c 0,18,19
 182 -2 182 -2 100.554593564 6.72629354672 c 0,20,21
 70 10 70 10 63.7918659071 13.1040670465 c 0,22,23
 62 14 62 14 60 16 c 1,24,25
 65 21 65 21 128.446654993 30.7112227029 c 0,26,27
 163 36 163 36 193.731238272 42.1978967943 c 0,0,1
EndSplineSet
Validated: 524293
EndChar

StartChar: a
Encoding: 97 97 64
Width: 592
GlyphClass: 1
Flags: W
LayerCount: 2
Fore
SplineSet
158 25 m 128,-1,1
 154 28 154 28 153.225148227 28.7748517734 c 0,2,3
 152 30 152 30 149.747981871 31.0008969464 c 0,4,5
 143 34 143 34 124.818887585 49.2486749285 c 0,6,7
 112 60 112 60 110 63 c 2,8,9
 110 63 110 63 110 63 c 0,10,11
 78 111 78 111 69.4138714416 136.042874962 c 0,12,13
 66 146 66 146 64.1182118479 158.231622988 c 0,14,15
 62 172 62 172 61.3082959786 189.984304556 c 0,16,17
 61 198 61 198 61 204.311536823 c 0,18,19
 61 224 61 224 63.4156040112 247.465867537 c 0,20,21
 68 292 68 292 80.1838041817 321.241130036 c 0,22,23
 88 340 88 340 101.122831115 360.842143536 c 0,24,25
 122 394 122 394 160.20520153 433.522622272 c 0,26,27
 180 454 180 454 184.08502291 454 c 0,28,29
 186 454 186 454 190.089532307 457.680579076 c 0,30,31
 196 463 196 463 206.906659226 468.453329613 c 0,32,33
 214 472 214 472 218.039894766 474.376408686 c 0,34,35
 265 502 265 502 309.336724686 502 c 0,36,37
 330 502 330 502 350.484920629 495.171693124 c 0,38,39
 372 488 372 488 394.30676998 472.79083865 c 0,40,41
 416 458 416 458 432 440 c 1,42,-1
 436 434 l 1,43,-1
 441 448 l 1,44,45
 446 462 446 462 446.509262437 462 c 128,-1,46
 447 462 447 462 453.893809771 476.936587837 c 0,47,48
 459 488 459 488 459.53500848 488.53500848 c 128,-1,49
 460 489 460 489 462.444019233 493.643636543 c 0,50,51
 470 508 470 508 475.907925156 514.498717671 c 0,52,53
 480 519 480 519 485.081361427 527.045488927 c 0,54,55
 492 538 492 538 494.520006838 537.36999829 c 0,56,57
 496 537 496 537 494.82223702 533.85929872 c 0,58,59
 493 529 493 529 491.286338453 517.347101478 c 0,60,61
 488 495 488 495 486.910200921 457.401931768 c 0,62,63
 486 426 486 426 483.219602454 388.928032726 c 0,64,65
 480 346 480 346 476.719429201 259.885016535 c 0,66,67
 476 241 476 241 476 237 c 0,68,69
 476 237 476 237 476 235.5 c 128,-1,70
 476 234 476 234 476 234 c 0,71,72
 476 183 476 183 494.032828989 132.908808363 c 0,73,74
 503 108 503 108 514.716200654 92.8378579771 c 0,75,76
 520 86 520 86 528.825767374 72.0645778309 c 0,77,78
 539 56 539 56 539 52.9547206329 c 0,79,80
 539 52 539 52 539.98841639 50.0231672199 c 128,-1,81
 541 48 541 48 541.760477112 46.6480406906 c 0,82,83
 550 32 550 32 545.592265969 16.5729308917 c 0,84,85
 540 -3 540 -3 516.424558534 -3 c 0,86,87
 500 -3 500 -3 479.705027835 7.14748608227 c 0,88,89
 462 16 462 16 450.909453025 30.7873959666 c 0,90,91
 447 36 447 36 446.161451208 35.5807256039 c 0,92,93
 445 35 445 35 439.294299376 46.4114012475 c 0,94,95
 434 57 434 57 432.167034677 58.3747239925 c 0,96,97
 430 60 430 60 424.965539532 73.0895972156 c 128,-1,98
 420 86 420 86 418.715166276 94.3514192046 c 0,99,100
 418 99 418 99 416.910761281 99.5446193594 c 128,-1,101
 416 100 416 100 413.844320246 97.8443202459 c 0,102,103
 412 96 412 96 409.550640823 92.570897152 c 128,-1,104
 407 89 407 89 404 84 c 2,105,-1
 402 80 l 1,106,107
 398 76 398 76 394.986503717 71.7811052036 c 0,108,109
 388 62 388 62 372.422907 47.2427539997 c 0,110,111
 350 26 350 26 335.199880946 16.9554828004 c 0,112,113
 314 4 314 4 280.488942742 -0.599556878544 c 0,114,115
 263 -3 263 -3 248.24172206 -2.32916918454 c 0,116,117
 241 -2 241 -2 235.097185466 -1.52777483726 c 0,118,119
 216 0 216 0 176.76201863 15.0915312963 c 0,120,121
 164 20 164 20 162.525981018 21.4740189815 c 0,122,0
 162 22 162 22 158 25 c 128,-1,1
152 260 m 1,123,124
 152 260 152 260 149.08204906 247.112383347 c 0,125,126
 140 207 140 207 139.40751153 190.410322844 c 0,127,128
 139 179 139 179 144.832168123 156.967364868 c 0,129,130
 148 145 148 145 151.3409115 139.153404874 c 0,131,132
 152 138 152 138 153.338103007 135.769828321 c 0,133,134
 158 128 158 128 160.24731235 124.468509165 c 0,135,136
 172 106 172 106 189.664073785 91.6479400493 c 0,137,138
 204 80 204 80 219.519760212 71.6109404257 c 0,139,140
 241 60 241 60 250.893771083 60 c 0,141,142
 255 60 255 60 266.222588224 62.4265055619 c 0,143,144
 292 68 292 68 314.280735087 84.861096823 c 0,145,146
 329 96 329 96 337.691191441 110.70817013 c 0,147,148
 342 118 342 118 343.773183711 118 c 0,149,150
 346 118 346 118 353.697609956 132.753752417 c 0,151,152
 358 141 358 141 360.179792518 143.724740648 c 0,153,154
 362 146 362 146 366.594513854 154.040399244 c 0,155,156
 370 160 370 160 371.082722921 161.759424747 c 0,157,158
 378 173 378 173 384.312868223 205.195627937 c 0,159,160
 388 224 388 224 389.329450094 225.329450094 c 0,161,162
 392 228 392 228 392 293.401679109 c 0,163,164
 392 350 392 350 388.249277545 365.940570433 c 0,165,166
 388 367 388 367 387.83633634 367.681931919 c 0,167,168
 382 392 382 392 369.237802831 405.51291465 c 0,169,170
 365 410 365 410 365 411.471967068 c 0,171,172
 365 414 365 414 354.048485171 421.008969491 c 0,173,174
 340 430 340 430 326.98666959 435.205332164 c 0,175,176
 315 440 315 440 306.092237948 440 c 0,177,178
 292 440 292 440 262.527978943 422.060508922 c 0,179,180
 246 412 246 412 240.082626182 406.378494873 c 0,181,182
 226 393 226 393 167 305 c 1,183,184
 158 286 158 286 153.765788331 271.885961102 c 0,185,186
 152 266 152 266 152 264 c 2,187,-1
 152 260 l 1,123,124
EndSplineSet
Validated: 524321
EndChar

StartChar: b
Encoding: 98 98 65
Width: 569
GlyphClass: 1
Flags: W
LayerCount: 2
Fore
SplineSet
493.32190589 197.507941208 m 4,0,1
 468 92 468 92 393.035971495 35.0273383359 c 4,2,3
 343 -3 343 -3 293.845626146 -3.84748920437 c 0,4,5
 285 -4 285 -4 274.666469471 -2.85182994126 c 4,6,7
 222 3 222 3 180.882913351 29.8842489625 c 4,8,9
 144 54 144 54 115.861250011 97.2903845988 c 4,10,11
 92 134 92 134 78.3289535961 177.942649156 c 4,12,13
 64 224 64 224 59.6186058558 278.767426802 c 4,14,15
 58 299 58 299 58 316.997075244 c 0,16,17
 58 366 58 366 71.4464648443 440.916018418 c 4,18,19
 86 522 86 522 118.877062957 635.24321685 c 4,20,21
 140 708 140 708 146.395043855 709.598760964 c 4,22,23
 148 710 148 710 148.589770975 707.6409161 c 4,24,25
 150 702 150 702 147.437708355 678.939375199 c 4,26,27
 144 648 144 648 139.833132457 576.121534889 c 4,28,29
 136 510 136 510 133.209172619 479.300898813 c 4,30,31
 130 444 130 444 130.657982766 411.75884449 c 0,32,33
 131 395 131 395 133.272844593 365.074212856 c 4,34,35
 137 316 137 316 140.496795277 304.01098762 c 132,-1,36
 144 292 144 292 152.696674644 301.783758975 c 4,37,38
 160 310 160 310 184.822971343 328.617228507 c 4,39,40
 220 355 220 355 245.176452721 368.936964899 c 4,41,42
 276 386 276 386 313.909701906 397.70052528 c 4,43,44
 357 411 357 411 388.362464703 410.174671982 c 0,45,46
 395 410 395 410 403.89027017 409.586499062 c 4,47,48
 438 408 438 408 455.472203313 400.428711898 c 4,49,50
 468 395 468 395 479.216852983 385.535780296 c 4,51,52
 500 368 500 368 504.460470728 345.69764636 c 4,53,54
 507 333 507 333 506.262160246 305.699929112 c 0,55,56
 506 296 506 296 505.62442266 285.859411817 c 4,57,58
 504 242 504 242 493.32190589 197.507941208 c 4,0,1
299.037332154 87 m 4,59,60
 314 87 314 87 331.532526915 92.1566255633 c 4,61,62
 348 97 348 97 357.865803041 102.637601738 c 4,63,64
 376 113 376 113 391.496836449 134.614008732 c 4,65,66
 414 166 414 166 427.569256387 219.097090208 c 4,67,68
 437 256 437 256 436.133096881 280.273287319 c 0,69,70
 436 284 436 284 435.763726679 287.307826488 c 4,71,72
 434 312 434 312 413.531035075 324.72395117 c 4,73,74
 397 335 397 335 372.009984967 335 c 0,75,76
 318 335 318 335 224 287 c 5,77,78
 212 278 212 278 203.37804258 271.453698996 c 4,79,80
 158 237 158 237 158 227.145241381 c 0,81,82
 158 219 158 219 177.77613551 184.721365117 c 4,83,84
 218 115 218 115 255.275208864 96.3623955678 c 4,85,86
 274 87 274 87 299.037332154 87 c 4,59,60
EndSplineSet
Validated: 524321
EndChar

StartChar: c
Encoding: 99 99 66
Width: 472
GlyphClass: 1
Flags: W
LayerCount: 2
Fore
SplineSet
368 68 m 1,0,1
 372 72 372 72 382.819261441 68.6709964797 c 0,2,3
 398 64 398 64 396.325305597 42.2289727572 c 0,4,5
 396 38 396 38 394.998137142 35.4953428555 c 0,6,7
 392 28 392 28 371.669302019 18.0710544745 c 0,8,9
 349 7 349 7 320.303286645 1.04407836022 c 0,10,11
 296 -4 296 -4 267.527009075 -4 c 0,12,13
 252 -4 252 -4 243.155467471 -3.33666006031 c 0,14,15
 212 -1 212 -1 182.387063149 13.8064684254 c 0,16,17
 144 33 144 33 112.470740959 71.1402327111 c 0,18,19
 82 108 82 108 68.8697493551 150.126220819 c 0,20,21
 58 185 58 185 58.9002217561 222.809313755 c 0,22,23
 59 227 59 227 59.0688806377 230.099628694 c 0,24,25
 60 272 60 272 69.3423362092 310.537136863 c 0,26,27
 84 371 84 371 122.720505959 422.434701946 c 0,28,29
 151 460 151 460 188.274495638 479.327516257 c 0,30,31
 205 488 205 488 220.3902458 492.340838559 c 0,32,33
 244 499 244 499 271.229670263 499 c 0,34,35
 310 499 310 499 351.132231613 485.778925553 c 0,36,37
 394 472 394 472 414.777358238 448.778246676 c 0,38,39
 428 434 428 434 421.362563894 428.100056795 c 0,40,41
 419 426 419 426 414.595868421 426 c 0,42,43
 406 426 406 426 393.942128771 431.846240596 c 0,44,45
 373 442 373 442 343.367850975 442 c 0,46,47
 328 442 328 442 313.501364686 440.432579966 c 0,48,49
 254 434 254 434 216.819762024 402.539798636 c 0,50,51
 176 368 176 368 162.292148654 298.775350701 c 0,52,53
 156 267 156 267 156.627057235 233.13890931 c 0,54,55
 157 213 157 213 161.060647925 189.743561883 c 0,56,57
 168 150 168 150 181.232164981 131.805773151 c 0,58,59
 192 117 192 117 217.147642543 97.7463361778 c 0,60,61
 256 68 256 68 287.400051575 59.207985559 c 0,62,63
 306 54 306 54 330.493394525 54.7901095008 c 0,64,65
 337 55 337 55 346 56 c 1,66,67
 346 56 346 56 368 68 c 1,0,1
EndSplineSet
Validated: 524321
EndChar

StartChar: d
Encoding: 100 100 67
Width: 569
GlyphClass: 1
Flags: W
LayerCount: 2
Fore
SplineSet
54.3648405488 212.81316438 m 0,0,1
 80 106 80 106 155.04927029 48.2239744589 c 0,2,3
 206 9 206 9 256.014214296 9 c 0,4,5
 264 9 264 9 272.791156257 9.96153271561 c 0,6,7
 328 16 328 16 369.397252507 43.0674343314 c 0,8,9
 406 67 406 67 434.302792559 111.087042255 c 0,10,11
 458 148 458 148 471.606548243 191.735333639 c 0,12,13
 486 238 486 238 490.396991721 292.229564553 c 0,14,15
 492 312 492 312 492 329.933417827 c 0,16,17
 492 379 492 379 478.600654704 454.132043267 c 0,18,19
 464 536 464 536 430.995217991 649.683138032 c 0,20,21
 410 722 410 722 403.681518529 723.579620368 c 0,22,23
 402 724 402 724 401.372717587 721.177229141 c 0,24,25
 400 715 400 715 402.533701403 687.636024845 c 0,26,27
 405 661 405 661 412.660734518 544.386596783 c 0,28,29
 414 524 414 524 415.262523985 503.168354241 c 0,30,31
 418 458 418 458 418 431.581365576 c 0,32,33
 418 409 418 409 415.173804063 370.84635485 c 0,34,35
 412 328 412 328 409.192408109 317.237564417 c 0,36,37
 406 305 406 305 397.415668694 314.657372719 c 0,38,39
 390 323 390 323 362.543902498 343.254498157 c 0,40,41
 329 368 329 368 307.450755942 380.537741997 c 0,42,43
 274 400 274 400 233.425827138 412.021977144 c 128,-1,44
 193 424 193 424 155 424 c 0,45,46
 155 424 155 424 147.657439141 423.658485541 c 0,47,48
 112 422 112 422 93.3401971462 413.292092002 c 0,49,50
 82 408 82 408 71.5651079846 399.521650237 c 0,51,52
 50 382 50 382 45.3478286281 358.73914314 c 0,53,54
 43 347 43 347 42.327763359 322.127244284 c 0,55,56
 42 310 42 310 42.5286807279 295.725620347 c 0,57,58
 44 256 44 256 54.3648405488 212.81316438 c 0,0,1
326 300 m 1,59,60
 338 290 338 290 351.389037755 280.330139399 c 0,61,62
 392 251 392 251 392 240.85960195 c 0,63,64
 392 232 392 232 371.679846474 196.778400556 c 0,65,66
 332 128 332 128 293.582088401 108.791044201 c 0,67,68
 276 100 276 100 252.627019086 100 c 0,69,70
 235 100 235 100 216.772969208 105.360891409 c 0,71,72
 201 110 201 110 191.271416997 115.559190287 c 0,73,74
 173 126 173 126 157.911518828 147.205432999 c 0,75,76
 136 178 136 178 122.09835553 234.87036374 c 0,77,78
 114 268 114 268 114 289.02849263 c 0,79,80
 114 296 114 296 114.324732582 300.870988732 c 0,81,82
 116 326 116 326 136.067230754 338.263307683 c 0,83,84
 152 348 152 348 176.531749861 348 c 0,85,86
 231 348 231 348 326 300 c 1,59,60
EndSplineSet
Validated: 524329
EndChar

StartChar: e
Encoding: 101 101 68
Width: 548
GlyphClass: 1
Flags: W
LayerCount: 2
Fore
SplineSet
142 182 m 1,0,1
 145 174 145 174 148.881616087 167.053950159 c 0,2,3
 164 140 164 140 203.897391648 112.847608462 c 0,4,5
 236 91 236 91 262.475171678 84.2514268272 c 0,6,7
 287 78 287 78 328.204938166 78 c 0,8,9
 379 78 379 78 410.616985695 92.6517738585 c 0,10,11
 420 97 420 97 433.958956078 101.904498081 c 0,12,13
 457 110 457 110 469.276060004 119.002444003 c 0,14,15
 472 121 472 121 474.816051109 122.760031943 c 0,16,17
 480 126 480 126 480 127 c 2,18,-1
 484 130 l 1,19,-1
 486 124 l 2,20,21
 487 121 487 121 487 117.525931633 c 0,22,23
 487 105 487 105 473.945363795 85.6431256278 c 0,24,25
 458 62 458 62 433.230956195 43.0973086753 c 0,26,27
 382 4 382 4 315.940828729 4 c 0,28,29
 301 4 301 4 273.136775158 7.71509664557 c 0,30,31
 196 18 196 18 153.763730935 43.5640575922 c 0,32,33
 120 64 120 64 93.1486951571 104.276957264 c 0,34,35
 68 142 68 142 60.573641149 180.482041319 c 0,36,37
 57 199 57 199 57 220.396163655 c 0,38,39
 57 240 57 240 59.7300168073 260.626793655 c 0,40,41
 66 308 66 308 80.2179343884 340.177430458 c 0,42,43
 104 394 104 394 163.951646171 441.961316937 c 0,44,45
 174 450 174 450 179.478170931 454.260799613 c 0,46,47
 192 464 192 464 195.563221001 467.325672935 c 0,48,49
 207 478 207 478 235.849402939 489.065524415 c 0,50,51
 280 506 280 506 319.949511916 506.929058417 c 0,52,53
 323 507 323 507 325.487847582 507 c 0,54,55
 364 507 364 507 403.39837962 491.678407926 c 0,56,57
 454 472 454 472 472.94817955 434.714872499 c 0,58,59
 485 411 485 411 485.475297851 377.253852607 c 0,60,61
 486 340 486 340 470.693009264 310.479375009 c 0,62,63
 458 286 458 286 428.613074122 257.225301744 c 0,64,65
 362 192 362 192 274.437069374 176.638082346 c 0,66,67
 248 172 248 172 222.314752317 172 c 0,68,69
 181 172 181 172 152 184 c 1,70,-1
 142 188 l 1,71,-1
 142 182 l 1,0,1
397.322736801 372.979264382 m 0,72,73
 396 412 396 412 352.672744583 423.553934778 c 0,74,75
 336 428 336 428 316.406712981 427.455742027 c 0,76,77
 300 427 300 427 286.287435875 423.286180549 c 0,78,79
 252 414 252 414 202.425635818 370.39845078 c 0,80,81
 169 341 169 341 152.491656502 316.987864003 c 128,-1,82
 136 293 136 293 130.930993269 258.965240521 c 0,83,84
 129 246 129 246 129 237.76391479 c 0,85,86
 129 221 129 221 139.179804724 217.606731759 c 0,87,88
 144 216 144 216 156.063081345 217.608410846 c 0,89,90
 159 218 159 218 161.93402558 218.34517948 c 0,91,92
 176 220 176 220 184.222295886 221.315567342 c 0,93,94
 226 228 226 228 282.835532714 252.429307921 c 0,95,96
 340 277 340 277 366.22130215 303.22130215 c 0,97,98
 380 317 380 317 388.020268723 333.040537446 c 0,99,100
 398 353 398 353 397.322736801 372.979264382 c 0,72,73
EndSplineSet
Validated: 524321
EndChar

StartChar: f
Encoding: 102 102 69
Width: 411
GlyphClass: 1
Flags: W
LayerCount: 2
Fore
SplineSet
245.033495601 710.284019472 m 0,0,1
 251 711 251 711 258.548499592 711 c 0,2,3
 274 711 274 711 290.307812802 708.804717507 c 0,4,5
 326 704 326 704 347.539969663 691.076018202 c 0,6,7
 366 680 366 680 378.062320505 654.367568927 c 0,8,9
 382 646 382 646 382 643.570091014 c 0,10,11
 382 640 382 640 365 640 c 0,12,13
 365 640 365 640 356.5 640 c 128,-1,14
 348 640 348 640 348 640 c 0,15,16
 324 640 324 640 310.572932372 639.328646619 c 0,17,18
 284 638 284 638 256.556630125 631.666914644 c 0,19,20
 232 626 232 626 217.337135369 619.483171275 c 0,21,22
 196 610 196 610 176 590 c 1,23,24
 168 578 168 578 164.496645151 569.719343085 c 0,25,26
 157 552 157 552 147.635691225 484.288844244 c 0,27,28
 144 458 144 458 144 455.475985826 c 0,29,30
 144 447 144 447 200.168506904 445.630036417 c 0,31,32
 226 445 226 445 239.234000321 441.886117572 c 0,33,34
 243 441 243 441 245.721535099 440.659808113 c 0,35,36
 251 440 251 440 254.331550404 438.096256912 c 0,37,38
 258 436 258 436 261.140578951 436 c 0,39,40
 268 436 268 436 289.436234829 426.256256896 c 0,41,42
 312 416 312 416 318.051744091 408.603423889 c 0,43,44
 321 405 321 405 320.585830394 402.100812759 c 0,45,46
 320 398 320 398 315.477492788 395.587996154 c 0,47,48
 305 390 305 390 240.992944609 379.526118209 c 0,49,50
 195 372 195 372 161.647375843 368.967943258 c 0,51,52
 140 367 140 367 139.219606406 365.829409609 c 0,53,54
 138 364 138 364 137.238487187 302.317462131 c 0,55,56
 137 283 137 283 136.933011745 277.841904368 c 0,57,58
 136 206 136 206 151.94180153 113.537551129 c 0,59,60
 161 61 161 61 161.689933864 36.1623809051 c 0,61,62
 162 25 162 25 158.574218988 16.4355474706 c 0,63,64
 154 5 154 5 144.032539971 0.514642986851 c 128,-1,65
 134 -4 134 -4 125.2879276 0.356036199983 c 0,66,67
 114 6 114 6 105.278230626 24.3157156846 c 0,68,69
 94 48 94 48 85.5941583203 97.3843198685 c 0,70,71
 78 142 78 142 72.7079487903 203.740597447 c 0,72,73
 66 282 66 282 63.6925863282 383.526201561 c 0,74,75
 63 414 63 414 63 437.709576326 c 0,76,77
 63 478 63 478 65.9758690947 492.284171655 c 0,78,79
 68 502 68 502 69.7259176505 517.317519148 c 0,80,81
 76 573 76 573 92.1695009155 606.349595638 c 0,82,83
 108 639 108 639 144.788167401 667.029079925 c 0,84,85
 171 687 171 687 203.215666182 699.300527088 c 0,86,87
 226 708 226 708 245.033495601 710.284019472 c 0,0,1
EndSplineSet
Validated: 524321
EndChar

StartChar: g
Encoding: 103 103 70
Width: 512
GlyphClass: 1
Flags: W
LayerCount: 2
Fore
SplineSet
216.815973366 -204.412992841 m 0,0,1
 182 -214 182 -214 148.502190819 -216.283941535 c 0,2,3
 138 -217 138 -217 129.015433614 -217 c 0,4,5
 114 -217 114 -217 98.476509065 -213.765939389 c 0,6,7
 90 -212 90 -212 84.4816570909 -209.240828545 c 0,8,9
 82 -208 82 -208 79.8338450368 -207.187691889 c 0,10,11
 74 -205 74 -205 76.7440156512 -202.941988262 c 0,12,13
 78 -202 78 -202 81.3314361959 -200.519361691 c 0,14,15
 87 -198 87 -198 95.7025856691 -194.97301368 c 0,16,17
 110 -190 110 -190 124.827442777 -183.156564872 c 0,18,19
 136 -178 136 -178 157.68805067 -167.449056431 c 0,20,21
 210 -142 210 -142 223.874528069 -132.75031462 c 0,22,23
 228 -130 228 -130 253 -115 c 0,24,25
 253 -115 253 -115 253 -115 c 0,26,27
 263 -109 263 -109 278.519815245 -95.0321662793 c 0,28,29
 283 -91 283 -91 289.047629338 -85.4361810087 c 0,30,31
 308 -68 308 -68 314.823614487 -61.1763855126 c 0,32,33
 330 -46 330 -46 340.546342253 -28.2629698466 c 0,34,35
 352 -9 352 -9 361.771396072 21.4637642231 c 0,36,37
 369 44 369 44 369 56.3666165843 c 0,38,39
 369 62 369 62 367.47947611 67.5752542645 c 128,-1,40
 366 73 366 73 364.789520739 75.5938841308 c 0,41,42
 359 88 359 88 346.512133051 69.9141237286 c 0,43,44
 330 46 330 46 294.713125819 24.9195297101 c 0,45,46
 253 0 253 0 218.352529024 0.805755138979 c 0,47,48
 210 1 210 1 198.464159825 3.44027388319 c 0,49,50
 158 12 158 12 125.020376339 41.681661295 c 0,51,52
 98 66 98 66 79.321764935 103.35647013 c 0,53,54
 64 134 64 134 58.0090428221 163.289123981 c 0,55,56
 55 178 55 178 54.701207627 188.756525429 c 0,57,58
 54 214 54 214 68.9625339546 257.818849438 c 0,59,60
 82 296 82 296 105.507394772 329.581992531 c 0,61,62
 110 336 110 336 114.065342699 342.254373383 c 0,63,64
 123 356 123 356 129.457192425 365.000934896 c 0,65,66
 156 402 156 402 188.228765326 423.485843551 c 0,67,68
 216 442 216 442 224.764938026 465.790546072 c 0,69,70
 230 480 230 480 243 495 c 1,71,72
 243 494 243 494 252 504 c 1,73,-1
 262 504 l 1,74,75
 280 503 280 503 299.454841863 485.540526533 c 128,-1,76
 319 468 319 468 342.319573156 426.691041837 c 0,77,78
 354 406 354 406 365.449530999 387.680750401 c 0,79,80
 404 326 404 326 426.588512856 263.316876825 c 0,81,82
 444 215 444 215 450.491508035 165.953050404 c 0,83,84
 453 147 453 147 453.481906145 132.060909495 c 0,85,86
 454 116 454 116 451.015540103 101.077700513 c 128,-1,87
 448 86 448 86 445.761330406 58.0166300798 c 0,88,89
 444 36 444 36 441.752733241 23.6400328262 c 0,90,91
 440 14 440 14 438.762936564 -2.08182466326 c 0,92,93
 438 -12 438 -12 437.386678986 -16.9065681147 c 0,94,95
 436 -28 436 -28 432.251119766 -33.6233203512 c 0,96,97
 430 -37 430 -37 423.344400321 -49.8674927119 c 0,98,99
 415 -66 415 -66 413.25649034 -69.2187870641 c 0,100,101
 402 -90 402 -90 395.323834799 -93.3380826005 c 0,102,103
 390 -96 390 -96 378.977188335 -108.597499045 c 0,104,105
 320 -176 320 -176 216.815973366 -204.412992841 c 0,0,1
286 368.702000801 m 0,106,107
 286 370 286 370 283.850746119 369.64179102 c 0,108,109
 280 369 280 369 262.188545886 360.730396304 c 0,110,111
 252 356 252 356 241.57011494 351.317194463 c 0,112,113
 203 334 203 334 195.684207848 328.635085755 c 0,114,115
 188 323 188 323 172.95572894 303.29916885 c 0,116,117
 146 268 146 268 135.3628885 238.328057395 c 0,118,119
 127 215 127 215 127 191.594306328 c 0,120,121
 127 166 127 166 136.789982118 145.441037552 c 0,122,123
 147 124 147 124 172.18138175 102.176135817 c 0,124,125
 192 85 192 85 205.420477215 85 c 0,126,127
 210 85 210 85 215.801171675 86.2891492611 c 0,128,129
 228 89 228 89 240.028883752 94.6803062163 c 0,130,131
 264 106 264 106 286.179396407 128.683473598 c 0,132,133
 308 151 308 151 319.67005789 177.841133148 c 0,134,135
 328 197 328 197 332.611978277 219.483394099 c 0,136,137
 336 236 336 236 336 248.871290831 c 0,138,139
 336 266 336 266 327.130288124 296.748334505 c 0,140,141
 321 318 321 318 315.096185795 327.183710986 c 0,142,143
 312 332 312 332 302.960892657 343.820371141 c 0,144,145
 286 366 286 366 286 368.702000801 c 0,106,107
EndSplineSet
Validated: 524321
EndChar

StartChar: h
Encoding: 104 104 71
Width: 584
GlyphClass: 1
Flags: W
LayerCount: 2
Fore
SplineSet
335.499401832 368.237125448 m 0,0,1
 317 377 317 377 291.567255174 377 c 0,2,3
 260 377 260 377 237.328733746 364.507669615 c 0,4,5
 211 350 211 350 185.104551836 296.538429597 c 0,6,7
 180 286 180 286 172.202142304 268.176325267 c 0,8,9
 166 254 166 254 164.49188376 250.98376752 c 0,10,11
 161 244 161 244 158.237150403 227.975472336 c 0,12,13
 156 215 156 215 152.414372422 202.002100028 c 0,14,15
 148 186 148 186 143.022948852 173.201868476 c 0,16,17
 134 150 134 150 130.181265739 120.723037331 c 0,18,19
 128 104 128 104 125.47534514 97.2675870402 c 0,20,21
 122 88 122 88 119.039697318 62.6259770096 c 0,22,23
 115 28 115 28 109.330012154 12.7346481075 c 0,24,25
 102 -7 102 -7 83.631779848 -4.37596854972 c 0,26,27
 74 -3 74 -3 71.8382051905 4.02583313098 c 0,28,29
 70 10 70 10 68.3318187526 31.1302958001 c 0,30,31
 67 48 67 48 67 63.1948174844 c 0,32,33
 67 86 67 86 70.4080597005 133.712835807 c 0,34,35
 74 184 74 184 76.6782708961 205.872545651 c 0,36,37
 80 233 80 233 80 264.639880026 c 0,38,39
 80 282 80 282 78.7184259388 307.631481224 c 0,40,41
 77 342 77 342 76.6152074953 375.861740413 c 0,42,43
 76 430 76 430 77.6831944195 494.802985152 c 0,44,45
 80 584 80 584 84.4068668943 645.696136521 c 0,46,47
 87 682 87 682 86.5130881547 708.780151492 c 0,48,49
 86 737 86 737 81.802838469 756.187024142 c 0,50,51
 79 769 79 769 79.4829180582 777.209606989 c 0,52,53
 80 786 80 786 84.5540014359 786 c 0,54,55
 92 786 92 786 105.128728534 748.254905465 c 0,56,57
 108 740 108 740 114.209103826 722.722493702 c 0,58,59
 131 676 131 676 131 663.841225816 c 0,60,61
 131 654 131 654 140.309074023 607.454629886 c 0,62,63
 155 534 155 534 155 497.201510746 c 0,64,65
 155 478 155 478 159 456 c 1,66,-1
 163 440 l 1,67,-1
 168 444 l 1,68,69
 175 451 175 451 201.937305213 460.531661845 c 0,70,71
 240 474 240 474 271.420047691 476.356503577 c 0,72,73
 280 477 280 477 287.963797953 476.765770648 c 0,74,75
 314 476 314 476 342.503682854 465.214822704 c 0,76,77
 388 448 388 448 431.756576748 405.310656831 c 0,78,79
 470 368 470 368 485.623579423 321.873241705 c 0,80,81
 491 306 491 306 497.471281091 291.931997628 c 0,82,83
 514 256 514 256 518.737633064 213.361302421 c 0,84,85
 522 184 522 184 522 129.378794864 c 0,86,87
 522 77 522 77 517.914382976 58.6147233935 c 0,88,89
 516 50 516 50 514.502438716 37.5203226297 c 0,90,91
 510 0 510 0 498.815596586 -5.92115474842 c 0,92,93
 493 -9 493 -9 485.746465924 -4.73321524923 c 0,94,95
 476 1 476 1 471.704169578 20.3312369004 c 0,96,97
 470 28 470 28 468.3784847 30.4322729503 c 0,98,99
 466 34 466 34 464 48 c 2,100,101
 464 48 464 48 463.999997476 48.0000179172 c 0,102,103
 454 119 454 119 453.633400483 121.596746582 c 0,104,105
 442 204 442 204 408.977442075 274.901374368 c 0,106,107
 374 350 374 350 335.499401832 368.237125448 c 0,0,1
EndSplineSet
Validated: 524321
EndChar

StartChar: i
Encoding: 105 105 72
Width: 241
GlyphClass: 1
Flags: W
LayerCount: 2
Fore
SplineSet
126.099407094 444.32455532 m 0,0,1
 131 448 131 448 134.76420934 447.657799151 c 0,2,3
 142 447 142 447 146.239496131 425.095936655 c 0,4,5
 148 416 148 416 149.310135347 413.379729306 c 0,6,7
 152 408 152 408 154.397343727 375.036523757 c 0,8,9
 156 353 156 353 157.141541435 348.053320449 c 0,10,11
 159 340 159 340 159.466124794 302.710016488 c 0,12,13
 160 260 160 260 162.105974331 194.188302164 c 0,14,15
 164 135 164 135 164 98 c 0,16,17
 164 98 164 98 164 98 c 0,18,19
 164 62 164 62 157.269630222 41.8088906669 c 0,20,21
 150 20 150 20 132.64092449 8.62681259665 c 0,22,23
 121 1 121 1 110.559089665 1.61417119618 c 0,24,25
 104 2 104 2 96.095897913 5.95205104352 c 0,26,27
 80 14 80 14 72.9707702133 34.3847663815 c 0,28,29
 70 43 70 43 68.0744629497 51.9056088576 c 0,30,31
 62 80 62 80 62 129.192596006 c 0,32,33
 62 182 62 182 71.0296756334 228.438331829 c 0,34,35
 76 254 76 254 76 266.530291815 c 0,36,37
 76 286 76 286 92.2079149423 347.455010823 c 0,38,39
 100 377 100 377 100 381.063483574 c 0,40,41
 100 386 100 386 114.054305103 417.774950668 c 0,42,43
 123 438 123 438 123 440.51791452 c 0,44,45
 123 442 123 442 126.099407094 444.32455532 c 0,0,1
172 631 m 128,-1,47
 180 622 180 622 183.726110797 610.07644545 c 0,48,49
 185 606 185 606 185 602.637937522 c 0,50,51
 185 590 185 590 167.607748728 568.594152281 c 0,52,53
 146 542 146 542 122.114162877 539.892426136 c 0,54,55
 112 539 112 539 104.616298007 541.461233998 c 0,56,57
 91 546 91 546 86.3416284886 562.563098707 c 0,58,59
 82 578 82 578 91.1405138637 599.093493532 c 0,60,61
 95 608 95 608 95.9624715869 613.133181797 c 0,62,63
 98 624 98 624 111.59673487 634.640922941 c 0,64,65
 121 642 121 642 129.14712575 644.572776553 c 0,66,67
 140 648 140 648 152.31933431 643.89355523 c 0,68,46
 164 640 164 640 172 631 c 128,-1,47
EndSplineSet
Validated: 524325
EndChar

StartChar: j
Encoding: 106 106 73
Width: 377
GlyphClass: 1
Flags: W
LayerCount: 2
Fore
SplineSet
39.277424124 -117.966454474 m 0,0,1
 36 -116 36 -116 48.7677386354 -107.336177355 c 0,2,3
 64 -97 64 -97 79.6130127383 -80.9277810047 c 0,4,5
 98 -62 98 -62 119.644996805 -31.6970044725 c 0,6,7
 138 -6 138 -6 149.403288985 7.30383714951 c 0,8,9
 180 43 180 43 204.979304477 107.151395589 c 0,10,11
 224 156 224 156 226.477856099 193.167841492 c 0,12,13
 227 201 227 201 227 209.80909215 c 0,14,15
 227 222 227 222 225.870355346 229.530964362 c 0,16,17
 224 242 224 242 222.51000722 277.759826729 c 0,18,19
 220 338 220 338 213.085906509 376.718923549 c 0,20,21
 210 394 210 394 206.809003816 421.655300257 c 0,22,23
 204 446 204 446 201.932581397 456.337093015 c 0,24,25
 200 466 200 466 200 474.01451692 c 0,26,27
 200 484 200 484 196.833901928 495.609026263 c 0,28,29
 194 506 194 506 194 514.695256349 c 0,30,31
 194 522 194 522 196.966699788 523.977799859 c 128,-1,32
 200 526 200 526 204.555029462 520.989467592 c 256,33,34
 210 515 210 515 216.875206808 502.812133386 c 0,35,36
 232 476 232 476 244.525680989 435.291536787 c 0,37,38
 256 398 256 398 267.053478905 380.917350783 c 128,-1,39
 278 364 278 364 286.168727371 328.991168411 c 0,40,41
 292 304 292 304 297.952209899 289.86350149 c 0,42,43
 308 266 308 266 313.42918653 224.3762366 c 0,44,45
 317 197 317 197 317 173.520849873 c 0,46,47
 317 152 317 152 314.538823843 132.857518776 c 0,48,49
 308 82 308 82 278.847897584 37.1057622796 c 0,50,51
 258 5 258 5 218.485445842 -31.6090722342 c 0,52,53
 190 -58 190 -58 151.494113003 -85.6761062793 c 0,54,55
 126 -104 126 -104 118.45488381 -105.509023238 c 0,56,57
 116 -106 116 -106 112.102407642 -108.598394906 c 0,58,59
 110 -110 110 -110 109.129077762 -110.522553343 c 0,60,61
 100 -116 100 -116 67.7472168543 -118.250194173 c 0,62,63
 57 -119 57 -119 49.640498491 -119 c 0,64,65
 41 -119 41 -119 39.277424124 -117.966454474 c 0,0,1
100 605.046652157 m 0,66,67
 100 618 100 618 115.695641862 636.003824489 c 0,68,69
 134 657 134 657 157.976088593 668.016040705 c 0,70,71
 171 674 171 674 180.159411889 674 c 0,72,73
 192 674 192 674 202.003761148 663.541522437 c 0,74,75
 214 651 214 651 214 633.958325171 c 0,76,77
 214 627 214 627 212.320748589 620.073087931 c 0,78,79
 206 594 206 594 179.708788026 572.281172717 c 0,80,81
 160 556 160 556 147.177759799 556 c 0,82,83
 144 556 144 556 139.354546412 557.393636076 c 0,84,85
 124 562 124 562 110.91673492 579.44435344 c 0,86,87
 100 594 100 594 100 605.046652157 c 0,66,67
EndSplineSet
Validated: 524289
EndChar

StartChar: k
Encoding: 107 107 74
Width: 441
GlyphClass: 1
Flags: W
LayerCount: 2
Fore
SplineSet
159 24 m 2,0,1
 152 12 152 12 137.460739555 5.76888838089 c 0,2,3
 124 0 124 0 111.938408626 3.28952492031 c 0,4,5
 102 6 102 6 92.0859610566 15.39224742 c 0,6,7
 83 24 83 24 79.8021322483 34.2331768054 c 0,8,9
 78 40 78 40 78 44.819606481 c 0,10,11
 78 52 78 52 79.9152053321 91.6721104511 c 0,12,13
 85 197 85 197 84.1603467451 221.349944392 c 0,14,15
 84 226 84 226 83.7083739057 230.666017509 c 0,16,17
 83 242 83 242 83 262.479009862 c 0,18,19
 83 308 83 308 79.4084945672 342.888909919 c 0,20,21
 76 376 76 376 76 407.238692511 c 0,22,23
 76 458 76 458 67.7695180199 520.454833849 c 0,24,25
 59 587 59 587 59 650 c 0,26,27
 59 650 59 650 59.1546989257 660.828924801 c 0,28,29
 60 720 60 720 63.6579196633 729.754452435 c 0,30,31
 66 736 66 736 73.6776649726 720.644670055 c 0,32,33
 76 716 76 716 80.0861498055 707.827700389 c 0,34,35
 112 644 112 644 131 544 c 1,36,37
 132 544 132 544 152 412 c 1,38,39
 152 412 152 412 191 502 c 1,40,41
 199 515 199 515 204.539014932 523.704166322 c 0,42,43
 213 537 213 537 216.398680397 541.369731939 c 0,44,45
 220 546 220 546 220.910433623 549.641734491 c 0,46,47
 222 554 222 554 226.203761748 559.044514098 c 0,48,49
 232 566 232 566 243.311981172 587.293141029 c 0,50,51
 249 598 249 598 255.807673773 611.615347547 c 0,52,53
 266 632 266 632 269.894157834 639.058161075 c 0,54,55
 282 661 282 661 278.387766803 627.767454589 c 0,56,57
 277 615 277 615 273.830308186 597.79310158 c 0,58,59
 270 577 270 577 264.790259051 556.682010299 c 0,60,61
 260 538 260 538 255.190439347 513.952196734 c 0,62,63
 251 493 251 493 248.187141434 476.889991847 c 0,64,65
 240 430 240 430 232 410 c 1,66,-1
 213 369 l 1,67,68
 212 368 212 368 228 356 c 1,69,70
 275 314 275 314 317.546282984 239.067740416 c 0,71,72
 342 196 342 196 363.954756531 145.504059979 c 0,73,74
 392 81 392 81 392 55.6133669357 c 0,75,76
 392 38 392 38 377.778934986 25.3590533205 c 0,77,78
 365 14 365 14 349.219552516 14 c 0,79,80
 333 14 333 14 324.291807815 23.0868092361 c 0,81,82
 310 38 310 38 293.526926704 90.9491641653 c 0,83,84
 268 173 268 173 190.527363769 284.597487904 c 0,85,86
 184 294 184 294 180.964094686 298.047873752 c 128,-1,87
 178 302 178 302 176 304 c 2,88,-1
 173 308 l 1,89,90
 175 299 175 299 174.138026263 287.794341421 c 0,91,92
 174 286 174 286 172.694381362 268.700553042 c 0,93,94
 170 233 170 233 170 220.571578624 c 0,95,96
 170 213 170 213 170.82193472 208.890326398 c 0,97,98
 172 203 172 203 172 189.988181629 c 0,99,100
 172 178 172 178 170.78674422 153.734884401 c 0,101,102
 169 118 169 118 169 92 c 1,103,-1
 164 33 l 1,104,-1
 159 24 l 2,0,1
EndSplineSet
Validated: 524321
EndChar

StartChar: l
Encoding: 108 108 75
Width: 321
GlyphClass: 1
Flags: W
LayerCount: 2
Fore
SplineSet
165.127016654 434.762099923 m 0,0,1
 164 428 164 428 164 423.798495715 c 0,2,3
 164 421 164 421 164 401 c 128,-1,4
 164 381 164 381 164 381 c 0,5,6
 164 270 164 270 166.057671035 248.051508962 c 0,7,8
 167 238 167 238 166.425739824 227.663316823 c 0,9,10
 166 220 166 220 165.705701945 214.702635008 c 0,11,12
 165 202 165 202 165 188.616806602 c 0,13,14
 165 148 165 148 172.339853647 112.994544144 c 0,15,16
 178 86 178 86 187.065367688 70.1356065458 c 0,17,18
 194 58 194 58 218 26 c 1,19,-1
 270 -24 l 1,20,21
 273 -27 273 -27 273 -30.017210737 c 0,22,23
 273 -38 273 -38 252.460846458 -44.0409275123 c 0,24,25
 239 -48 239 -48 226.757781414 -48 c 0,26,27
 213 -48 213 -48 192.263325736 -39.112853887 c 0,28,29
 178 -33 178 -33 170.456012038 -26.6166255702 c 0,30,31
 165 -22 165 -22 151.622936936 -13.369636733 c 0,32,33
 134 -2 134 -2 126.984255585 3.74015452123 c 0,34,35
 112 16 112 16 98.5555051793 38.6875850099 c 0,36,37
 80 70 80 70 72.121525155 105.715752631 c 0,38,39
 65 138 65 138 65 183.099905713 c 0,40,41
 65 200 65 200 67.9870852498 257.352036796 c 0,42,43
 70 296 70 296 73 348 c 1,44,45
 72 348 72 348 84 504 c 1,46,47
 120 712 120 712 158.442420259 768.951733718 c 0,48,49
 174 792 174 792 179.928859099 774.872184825 c 0,50,51
 183 766 183 766 183 746.630712446 c 0,52,53
 183 731 183 731 180.059296144 698.652257581 c 0,54,55
 176 654 176 654 173.315159429 572.783572723 c 0,56,57
 172 533 172 533 170.868023604 519.982271441 c 0,58,59
 170 510 170 510 169.075009113 485.95023695 c 0,60,61
 168 458 168 458 166.549209257 444.942883314 c 0,62,63
 166 440 166 440 165.127016654 434.762099923 c 0,0,1
EndSplineSet
Validated: 524321
EndChar

StartChar: m
Encoding: 109 109 76
Width: 690
GlyphClass: 1
Flags: W
LayerCount: 2
Fore
SplineSet
319 419.477200266 m 0,0,1
 319 418 319 418 321.657533884 415.100872127 c 0,2,3
 329 407 329 407 338 407 c 2,4,-1
 348 407 l 1,5,-1
 356 419 l 1,6,7
 379 459 379 459 389.131306714 473.183829399 c 0,8,9
 404 494 404 494 422.183364536 501.48726775 c 0,10,11
 438 508 438 508 466.781575413 508 c 0,12,13
 492 508 492 508 507.42272366 501.573865142 c 0,14,15
 516 498 516 498 524.655859542 492.517955624 c 0,16,17
 546 479 546 479 571.852886924 450.454104021 c 0,18,19
 594 426 594 426 600.252674527 411.410426105 c 0,20,21
 606 398 606 398 615 354 c 1,22,23
 614 354 614 354 624 306 c 1,24,-1
 624 246 l 1,25,26
 624 106 624 106 592.140756072 43.0779932415 c 0,27,28
 584 27 584 27 572.52958903 16.7370007115 c 0,29,30
 565 10 565 10 562.892317541 12.1076824592 c 0,31,32
 561 14 561 14 559.683894017 21.3701935046 c 0,33,34
 556 42 556 42 552.917285085 129.343589251 c 0,35,36
 550 212 550 212 545.034646332 228.551178892 c 0,37,38
 544 232 544 232 542.977971844 238.643183017 c 0,39,40
 542 245 542 245 541.427600675 250.43779359 c 0,41,42
 540 264 540 264 537.069222011 282.117536659 c 0,43,44
 529 332 529 332 515.127827282 370.313619889 c 0,45,46
 508 390 508 390 502.871592534 391.709469155 c 0,47,48
 502 392 502 392 501.287985593 392 c 0,49,50
 499 392 499 392 492.397597968 393.886400581 c 0,51,52
 485 396 485 396 479.089977399 396 c 0,53,54
 470 396 470 396 455.989999179 391.055293828 c 0,55,56
 436 384 436 384 426.682187053 374.682187053 c 0,57,58
 416 364 416 364 404.134275504 328.402826511 c 0,59,60
 399 313 399 313 394.254013638 302.980695457 c 0,61,62
 390 294 390 294 378 276 c 0,63,64
 378 276 378 276 368 270.5 c 129,-1,65
 358 265 358 265 340 256.33203125 c 1,66,67
 337 255 337 255 333.609180848 255 c 0,68,69
 330 255 330 255 320.90761172 258.030796093 c 0,70,71
 303 264 303 264 298.110316959 269.778716321 c 0,72,73
 292 277 292 277 276.989778429 314.525553928 c 0,74,75
 256 367 256 367 239.156736345 387.082352819 c 0,76,77
 230 398 230 398 219.776735649 404.645121828 c 0,78,79
 210 411 210 411 202.193337177 411 c 0,80,81
 194 411 194 411 185.536862647 405.975012197 c 0,82,83
 162 392 162 392 147.568191438 332.960783157 c 0,84,85
 140 302 140 302 135.760637433 261.423243998 c 0,86,87
 133 235 133 235 133.744756687 217.125839502 c 0,88,89
 134 211 134 211 134.303672535 205.230221828 c 0,90,91
 135 192 135 192 134.339902821 158.335043888 c 0,92,93
 134 141 134 141 134 105 c 0,94,95
 134 105 134 105 134 105 c 0,96,97
 134 62 134 62 135.803249364 49.3772544513 c 0,98,99
 136 48 136 48 136.555058695 44.9471771789 c 0,100,101
 138 37 138 37 138.782363673 31.1322724501 c 0,102,103
 140 22 140 22 140 14.6556828936 c 0,104,105
 140 8 140 8 139.183784384 7.18378438367 c 0,106,107
 138 6 138 6 128 10 c 1,108,-1
 119 12 l 1,109,110
 118 12 118 12 106 36 c 1,111,112
 80 83 80 83 69.1134568442 129.267808412 c 0,113,114
 60 168 60 168 58.3879889098 216.360332706 c 0,115,116
 58 228 58 228 58 236.23000177 c 0,117,118
 58 282 58 282 76.7283860615 359.794834409 c 0,119,120
 84 390 84 390 91.1924736335 410.138926174 c 0,121,122
 94 418 94 418 96.2279131683 423.569782921 c 0,123,124
 104 443 104 443 117.063770581 457.805606658 c 0,125,126
 119 460 119 460 121.368517377 462.583837138 c 0,127,128
 130 472 130 472 134.847580692 477.81709683 c 0,129,130
 150 496 150 496 163.011657985 504.394618055 c 0,131,132
 181 516 181 516 202.066463369 516 c 0,133,134
 208 516 208 516 208 516 c 0,135,136
 238 516 238 516 257.265267292 506.786176513 c 0,137,138
 284 494 284 494 312.12438355 436.144125269 c 0,139,140
 319 422 319 422 319 419.477200266 c 0,0,1
EndSplineSet
EndChar

StartChar: n
Encoding: 110 110 77
Width: 620
GlyphClass: 1
Flags: W
LayerCount: 2
Fore
SplineSet
100.907116288 328.995345536 m 0,0,1
 106 341 106 341 109.882698656 352.191307891 c 0,2,3
 123 390 123 390 148.765115811 426.807308301 c 0,4,5
 165 450 165 450 178.578049001 463.166592971 c 0,6,7
 198 482 198 482 220.452586598 490.121148344 c 0,8,9
 245 499 245 499 288 499 c 0,10,11
 288 499 288 499 291.6205249 498.927589502 c 0,12,13
 338 498 338 498 373.286631466 480.612384495 c 0,14,15
 407 464 407 464 444.239107526 425.230518192 c 0,16,17
 480 388 480 388 498.698938866 339.552749303 c 0,18,19
 502 331 502 331 504.581400759 322.825564263 c 0,20,21
 508 312 508 312 512.053196032 300.853710912 c 0,22,23
 524 268 524 268 527.024267397 248.990319219 c 0,24,25
 531 224 531 224 531 133.554877731 c 0,26,27
 531 78 531 78 528.21567426 63.1502627207 c 0,28,29
 528 62 528 62 527.408926613 58.9264183896 c 0,30,31
 523 36 523 36 520.994846861 26.6426186865 c 0,32,33
 517 8 517 8 514.046649365 2.09329873061 c 0,34,35
 510 -6 510 -6 504.732585429 -3.36629271444 c 0,36,37
 494 2 494 2 483.296144592 52.3081204159 c 0,38,39
 474 96 474 96 470.484100781 136.43284102 c 0,40,41
 464 211 464 211 435.790849227 271.710998402 c 0,42,43
 418 310 418 310 391.13116395 342.839688505 c 0,44,45
 364 376 364 376 342 386 c 2,46,-1
 325 394 l 1,47,48
 324 394 324 394 300 400 c 1,49,-1
 276 396 l 1,50,-1
 266 388 l 2,51,52
 248 374 248 374 229.217879061 346.235125569 c 0,53,54
 202 306 202 306 173.280098675 228.978446448 c 0,55,56
 158 188 158 188 152.012162928 158.060814641 c 0,57,58
 150 148 150 148 146 136 c 0,59,60
 146 136 146 136 145.999999682 135.999999046 c 0,61,62
 140 118 140 118 136.225524646 107.095960089 c 0,63,64
 131 92 131 92 126.000000172 75.0000005836 c 0,65,66
 126 75 126 75 125.99999894 74.9999963951 c 0,67,68
 116 41 116 41 112.254556305 29.1394282999 c 0,69,70
 104 3 104 3 98.7072745434 -1.76345291091 c 0,71,72
 94 -6 94 -6 82.7783097912 -1.32429574631 c 0,73,74
 70 4 70 4 66 14 c 1,75,-1
 60 24 l 1,76,-1
 62 64 l 1,77,78
 64 242 64 242 100.907116288 328.995345536 c 0,0,1
EndSplineSet
Validated: 524289
EndChar

StartChar: o
Encoding: 111 111 78
Width: 552
GlyphClass: 1
Flags: W
LayerCount: 2
Fore
SplineSet
230.313345766 1.46565969826 m 0,0,1
 130 15 130 15 87.7056381385 80.7277245145 c 0,2,3
 56 130 56 130 56 201.327696591 c 0,4,5
 56 290 56 290 117.726070987 368.102375535 c 0,6,7
 154 414 154 414 203.776655862 450.677535899 c 0,8,9
 268 498 268 498 319.454397674 504.003013062 c 0,10,11
 328 505 328 505 336.322860788 505 c 0,12,13
 378 505 378 505 413.928677127 478.998983658 c 0,14,15
 454 450 454 450 473.196828515 391.209712672 c 0,16,17
 486 352 486 352 490.675175464 300.573069898 c 0,18,19
 492 286 492 286 492 273.98039659 c 0,20,21
 492 225 492 225 472.257763518 167.072121901 c 0,22,23
 416 2 416 2 279.062515257 -1.42343711857 c 0,24,25
 256 -2 256 -2 230.313345766 1.46565969826 c 0,0,1
198.294117647 103.058823529 m 0,26,27
 223 94 223 94 248.911858986 94 c 0,28,29
 270 94 270 94 289.71143924 100.358528787 c 0,30,31
 332 114 332 114 363.98412041 161.976180615 c 0,32,33
 384 192 384 192 393.967296735 228.546754695 c 0,34,35
 402 258 402 258 402.889382461 311.362947638 c 0,36,37
 403 318 403 318 403 322.478498512 c 0,38,39
 403 332 403 332 402.420174445 337.798255552 c 0,40,41
 402 342 402 342 401.088830162 346.55584919 c 0,42,43
 400 352 400 352 398.712417276 354.575165449 c 0,44,45
 398 356 398 356 396.504959555 359.737601111 c 0,46,47
 394 366 394 366 392.617610892 368.073583662 c 0,48,49
 392 369 392 369 390.30743261 371.82094565 c 0,50,51
 386 379 386 379 383.568455055 382.8209992 c 0,52,53
 372 401 372 401 362.47111964 407.930094807 c 0,54,55
 350 417 350 417 331.348402597 417 c 0,56,57
 304 417 304 417 269.795108523 402.17788036 c 0,58,59
 214 378 214 378 169.954159172 322.363148428 c 0,60,61
 138 282 138 282 127.194614373 242.155140499 c 0,62,63
 122 223 122 223 122 204.48713909 c 0,64,65
 122 193 122 193 126.543052327 173.124146068 c 0,66,67
 130 158 130 158 134.928858388 146.499330428 c 0,68,69
 136 144 136 144 136.519873684 142.700315789 c 0,70,71
 140 134 140 134 147.382463113 127.355783198 c 0,72,73
 150 125 150 125 151.132391033 123.584511209 c 0,74,75
 154 120 154 120 165.552784698 114.608700474 c 0,76,77
 169 113 169 113 172 112 c 0,78,79
 172 112 172 112 172 112 c 0,80,81
 193 105 193 105 198.294117647 103.058823529 c 0,26,27
EndSplineSet
Validated: 524321
EndChar

StartChar: p
Encoding: 112 112 79
Width: 556
GlyphClass: 1
Flags: W
LayerCount: 2
Fore
SplineSet
148.447656116 -203.850781295 m 0,0,1
 139 -207 139 -207 124.270751603 -199.340790833 c 0,2,3
 114 -194 114 -194 111.125444505 -189.688166758 c 0,4,5
 106 -182 106 -182 97.9503451962 -126.994025507 c 0,6,7
 94 -100 94 -100 92.1169067637 -92.0910084077 c 0,8,9
 89 -79 89 -79 83.4797418325 -24.3494441413 c 0,10,11
 79 20 79 20 76.3035769069 62.4686637167 c 0,12,13
 75 83 75 83 74.0853187517 93.6712812306 c 0,14,15
 72 118 72 118 68.1257032509 147.444655293 c 0,16,17
 62 194 62 194 62 222.647729119 c 0,18,19
 62 251 62 251 68.1033010584 288.001262667 c 0,20,21
 78 348 78 348 101.409379103 374.53062965 c 0,22,23
 108 382 108 382 108.599614124 384.998070622 c 0,24,25
 110 392 110 392 135.42631361 408.686018306 c 0,26,27
 174 434 174 434 205.964033814 441.325091082 c 0,28,29
 222 445 222 445 241.188529759 444.435631478 c 0,30,31
 256 444 256 444 278.257837395 439.87817826 c 0,32,33
 310 434 310 434 312.826784547 427.781073997 c 0,34,35
 315 423 315 423 327.223627013 417.598862482 c 0,36,37
 358 404 358 404 403.144474461 358.324414075 c 0,38,39
 443 318 443 318 466.727129497 282.409305755 c 0,40,41
 499 234 499 234 499 191.187520892 c 0,42,43
 499 162 499 162 473.685634803 136.685634803 c 0,44,45
 469 132 469 132 468 130 c 2,46,47
 468 130 468 130 465.55285781 126.19333437 c 0,48,49
 441 88 441 88 383.177968483 64.1369393737 c 0,50,51
 378 62 378 62 369.044378823 58.4177515292 c 0,52,53
 358 54 358 54 355.699064202 53.0652448319 c 0,54,55
 326 41 326 41 279.212619672 33.2021032787 c 0,56,57
 248 28 248 28 229.482033455 28 c 0,58,59
 218 28 218 28 203.148595702 31.7128510744 c 0,60,61
 190 35 190 35 169.85582976 43.5225335632 c 0,62,63
 164 46 164 46 155 50 c 1,64,65
 154 38 154 38 154 24 c 128,-1,66
 154 10 154 10 153.999999993 9.99999985783 c 0,67,68
 153 -10 153 -10 154.348575933 -27.5314871342 c 0,69,70
 155 -36 155 -36 156.409582133 -47.2766570626 c 0,71,72
 159 -68 159 -68 158.583419569 -77.1647694852 c 0,73,74
 158 -90 158 -90 163.636413833 -140.727724499 c 0,75,76
 165 -153 165 -153 165.242340525 -163.905323632 c 0,77,78
 166 -198 166 -198 148.447656116 -203.850781295 c 0,0,1
158 252 m 2,79,80
 156 209 156 209 156 193.992958445 c 0,81,82
 156 168 156 168 162.367884094 154.202917797 c 0,83,84
 168 142 168 142 179.55437522 133.746874843 c 0,85,86
 196 122 196 122 222 120 c 1,87,-1
 232 120 l 2,88,89
 234 120 234 120 242.878702655 120.95128957 c 0,90,91
 290 126 290 126 322.073377657 134.668480448 c 0,92,93
 364 146 364 146 382 164 c 2,94,-1
 388 170 l 1,95,-1
 386 182 l 1,96,97
 382 240 382 240 333.373128184 306.082671955 c 0,98,99
 304 346 304 346 277.178356345 356.728657462 c 0,100,101
 264 362 264 362 247.550074054 362 c 0,102,103
 230 362 230 362 215.748551483 355.89223635 c 0,104,105
 202 350 202 350 189.791093637 338.663158377 c 0,106,107
 174 324 174 324 167 306 c 2,108,-1
 160 289 l 1,109,-1
 158 252 l 2,79,80
EndSplineSet
Validated: 524321
EndChar

